M48
; DRILL file {KiCad 8.0.1} date 2024-03-25T22:30:42+1100
; FORMAT={-:-/ absolute / inch / decimal}
; #@! TF.CreationDate,2024-03-25T22:30:42+11:00
; #@! TF.GenerationSoftware,Kicad,Pcbnew,8.0.1
; #@! TF.FileFunction,Plated,1,4,PTH
FMAT,2
INCH
; #@! TA.AperFunction,Plated,PTH,ViaDrill
T1C0.0157
; #@! TA.AperFunction,Plated,PTH,ComponentDrill
T2C0.0315
; #@! TA.AperFunction,Plated,PTH,ComponentDrill
T3C0.0394
; #@! TA.AperFunction,Plated,PTH,ComponentDrill
T4C0.1250
%
G90
G05
T1
X2.1209Y-6.4575
X2.3209Y-6.4075
X3.3209Y-6.4075
X4.3209Y-6.4075
X5.1209Y-6.4575
X5.3209Y-3.3575
X5.3209Y-6.3575
X6.1709Y-3.3575
X6.1709Y-3.8575
X6.1709Y-4.3575
X6.1709Y-5.0575
X6.1709Y-5.5575
X6.1709Y-6.0575
X6.3209Y-6.3575
X7.3209Y-6.3575
X8.4209Y-4.6825
X8.5209Y-6.4575
X8.7209Y-6.3575
X9.3709Y-3.8575
X9.3709Y-4.3575
X9.3959Y-3.3325
X9.4709Y-6.4075
X9.5709Y-5.0575
X9.5709Y-5.5575
X9.5709Y-6.0575
X9.7209Y-6.3575
X10.1209Y-5.6075
X10.1209Y-6.0575
X10.2209Y-6.2075
X10.2459Y-5.6075
X10.2709Y-5.0075
X10.3709Y-4.1325
X10.3959Y-4.8575
X10.4459Y-3.2825
X10.4459Y-5.1575
X10.4709Y-5.8075
X10.4709Y-5.9075
X10.5209Y-3.2075
X10.5709Y-3.8075
X10.5959Y-5.1075
X10.6209Y-5.0325
X10.6709Y-3.3825
X10.6709Y-3.8575
X10.6709Y-4.5075
X10.6709Y-4.9825
X10.7459Y-4.9825
X10.7709Y-5.9075
X10.8709Y-4.6325
X10.8709Y-5.0075
X11.2209Y-4.4075
X11.2709Y-4.8825
X11.2709Y-5.5575
X11.3209Y-4.3825
X11.3709Y-5.6075
X11.3959Y-4.8575
X11.4709Y-4.3575
X11.4709Y-5.7825
X11.5209Y-4.8325
X11.5709Y-4.3325
X11.6209Y-4.8075
X11.6209Y-5.9825
X11.7209Y-5.9825
X11.7459Y-4.5575
X11.7709Y-6.1325
X11.8209Y-5.9825
X11.8709Y-5.0325
X11.9459Y-5.1575
X11.9709Y-5.6075
X12.2209Y-4.4075
X12.2709Y-4.8825
X12.3209Y-4.3825
X12.3709Y-6.0325
X12.3959Y-4.8575
X12.4209Y-5.9825
X12.4709Y-4.3575
X12.4709Y-5.9075
X12.5209Y-4.8325
X12.5209Y-5.8325
X12.5709Y-4.3325
X12.5709Y-5.6075
X12.5709Y-5.8825
X12.6209Y-4.8075
X12.6209Y-5.8325
X12.9709Y-5.1075
X12.9709Y-5.8075
X13.0709Y-5.8075
X13.2209Y-4.4075
X13.2709Y-5.8075
X13.3209Y-4.3825
X13.4709Y-4.3575
X13.4709Y-5.8075
X13.4709Y-5.9075
X13.5709Y-4.3325
X13.7709Y-6.0075
X14.1709Y-5.9075
T2
X1.4709Y-5.2825
X1.4709Y-5.7825
X1.4959Y-3.9075
X1.4959Y-4.4075
X1.4959Y-4.5091
X1.4959Y-4.7059
X1.5709Y-5.2825
X1.5709Y-5.7825
X1.5959Y-4.0591
X1.5959Y-4.2559
X1.5959Y-4.5075
X1.5959Y-5.0075
X1.6209Y-3.1591
X1.6209Y-3.3559
X1.6959Y-3.9075
X1.6959Y-4.4075
X1.6959Y-4.5075
X1.6959Y-5.0075
X1.7459Y-3.0325
X1.7459Y-3.5325
X1.8209Y-4.0091
X1.8209Y-4.2059
X1.8209Y-4.5129
X1.8209Y-4.7097
X1.8209Y-5.2091
X1.8209Y-5.4059
X1.8209Y-5.7091
X1.8209Y-5.9059
X1.8459Y-3.2091
X1.8459Y-3.4059
X1.8459Y-3.5591
X1.8459Y-3.7559
X1.9209Y-3.0325
X2.0209Y-3.0325
X2.0209Y-3.2075
X2.0209Y-3.5075
X2.0209Y-3.7075
X2.0209Y-4.0075
X2.0209Y-4.2075
X2.0209Y-4.5075
X2.0209Y-4.9075
X2.0209Y-5.2075
X2.0209Y-5.4075
X2.0209Y-5.7075
X2.0209Y-5.9075
X2.0209Y-6.2075
X2.1209Y-3.0325
X2.1209Y-3.2075
X2.1209Y-3.5075
X2.1209Y-3.7075
X2.1209Y-4.0075
X2.1209Y-4.2075
X2.1209Y-4.5075
X2.1209Y-4.9075
X2.1209Y-5.2075
X2.1209Y-5.4075
X2.1209Y-5.7075
X2.1209Y-5.9075
X2.1209Y-6.2075
X2.2209Y-3.0325
X2.2209Y-3.2075
X2.2209Y-3.5075
X2.2209Y-3.7075
X2.2209Y-4.0075
X2.2209Y-4.2075
X2.2209Y-4.5075
X2.2209Y-4.9075
X2.2209Y-5.2075
X2.2209Y-5.4075
X2.2209Y-5.7075
X2.2209Y-5.9075
X2.2209Y-6.2075
X2.3209Y-3.0325
X2.3209Y-3.2075
X2.3209Y-3.5075
X2.3209Y-3.7075
X2.3209Y-4.0075
X2.3209Y-4.2075
X2.3209Y-4.5075
X2.3209Y-4.9075
X2.3209Y-5.2075
X2.3209Y-5.4075
X2.3209Y-5.7075
X2.3209Y-5.9075
X2.3209Y-6.2075
X2.4209Y-3.0325
X2.4209Y-3.2075
X2.4209Y-3.5075
X2.4209Y-3.7075
X2.4209Y-4.0075
X2.4209Y-4.2075
X2.4209Y-4.5075
X2.4209Y-4.9075
X2.4209Y-5.2075
X2.4209Y-5.4075
X2.4209Y-5.7075
X2.4209Y-5.9075
X2.4209Y-6.2075
X2.5209Y-3.0325
X2.5209Y-3.2075
X2.5209Y-3.5075
X2.5209Y-3.7075
X2.5209Y-4.0075
X2.5209Y-4.2075
X2.5209Y-4.5075
X2.5209Y-4.9075
X2.5209Y-5.2075
X2.5209Y-5.4075
X2.5209Y-5.7075
X2.5209Y-5.9075
X2.5209Y-6.2075
X2.6209Y-3.0325
X2.6209Y-3.2075
X2.6209Y-3.5075
X2.6209Y-3.7075
X2.6209Y-4.0075
X2.6209Y-4.2075
X2.6209Y-4.5075
X2.6209Y-4.9075
X2.6209Y-5.2075
X2.6209Y-5.4075
X2.6209Y-5.7075
X2.6209Y-5.9075
X2.6209Y-6.2075
X2.7209Y-3.0325
X2.7209Y-3.2075
X2.7209Y-3.5075
X2.7209Y-3.7075
X2.7209Y-4.0075
X2.7209Y-4.2075
X2.7209Y-4.5075
X2.7209Y-4.9075
X2.7209Y-5.2075
X2.7209Y-5.4075
X2.7209Y-5.7075
X2.7209Y-5.9075
X2.7209Y-6.2075
X2.8209Y-3.0325
X2.8709Y-3.1591
X2.8709Y-3.3559
X2.8709Y-3.5091
X2.8709Y-3.7059
X2.8709Y-4.0091
X2.8709Y-4.2059
X2.8709Y-4.7129
X2.8709Y-4.9097
X2.8709Y-5.2091
X2.8709Y-5.4059
X2.8709Y-5.7091
X2.8709Y-5.9059
X2.8709Y-6.1091
X2.8709Y-6.3059
X3.0209Y-3.2075
X3.0209Y-3.5075
X3.0209Y-3.7075
X3.0209Y-4.0075
X3.0209Y-4.2075
X3.0209Y-4.5075
X3.0209Y-4.9075
X3.0209Y-5.2075
X3.0209Y-5.4075
X3.0209Y-5.7075
X3.0209Y-5.9075
X3.0209Y-6.2075
X3.1209Y-3.2075
X3.1209Y-3.5075
X3.1209Y-3.7075
X3.1209Y-4.0075
X3.1209Y-4.2075
X3.1209Y-4.5075
X3.1209Y-4.9075
X3.1209Y-5.2075
X3.1209Y-5.4075
X3.1209Y-5.7075
X3.1209Y-5.9075
X3.1209Y-6.2075
X3.2209Y-3.2075
X3.2209Y-3.5075
X3.2209Y-3.7075
X3.2209Y-4.0075
X3.2209Y-4.2075
X3.2209Y-4.5075
X3.2209Y-4.9075
X3.2209Y-5.2075
X3.2209Y-5.4075
X3.2209Y-5.7075
X3.2209Y-5.9075
X3.2209Y-6.2075
X3.3209Y-3.2075
X3.3209Y-3.5075
X3.3209Y-3.7075
X3.3209Y-4.0075
X3.3209Y-4.2075
X3.3209Y-4.5075
X3.3209Y-4.9075
X3.3209Y-5.2075
X3.3209Y-5.4075
X3.3209Y-5.7075
X3.3209Y-5.9075
X3.3209Y-6.2075
X3.4209Y-3.2075
X3.4209Y-3.5075
X3.4209Y-3.7075
X3.4209Y-4.0075
X3.4209Y-4.2075
X3.4209Y-4.5075
X3.4209Y-4.9075
X3.4209Y-5.2075
X3.4209Y-5.4075
X3.4209Y-5.7075
X3.4209Y-5.9075
X3.4209Y-6.2075
X3.5209Y-3.2075
X3.5209Y-3.5075
X3.5209Y-3.7075
X3.5209Y-4.0075
X3.5209Y-4.2075
X3.5209Y-4.5075
X3.5209Y-4.9075
X3.5209Y-5.2075
X3.5209Y-5.4075
X3.5209Y-5.7075
X3.5209Y-5.9075
X3.5209Y-6.2075
X3.6209Y-3.2075
X3.6209Y-3.5075
X3.6209Y-3.7075
X3.6209Y-4.0075
X3.6209Y-4.2075
X3.6209Y-4.5075
X3.6209Y-4.9075
X3.6209Y-5.2075
X3.6209Y-5.4075
X3.6209Y-5.7075
X3.6209Y-5.9075
X3.6209Y-6.2075
X3.7209Y-3.2075
X3.7209Y-3.5075
X3.7209Y-3.7075
X3.7209Y-4.0075
X3.7209Y-4.2075
X3.7209Y-4.5075
X3.7209Y-4.9075
X3.7209Y-5.2075
X3.7209Y-5.4075
X3.7209Y-5.7075
X3.7209Y-5.9075
X3.7209Y-6.2075
X3.8709Y-3.1106
X3.8709Y-3.3075
X3.8709Y-3.5091
X3.8709Y-3.7059
X3.8709Y-4.0091
X3.8709Y-4.2059
X3.8709Y-4.5129
X3.8709Y-4.7097
X3.8709Y-5.2091
X3.8709Y-5.4059
X3.8709Y-5.7091
X3.8709Y-5.9059
X3.8709Y-6.1091
X3.8709Y-6.3059
X4.0209Y-3.2075
X4.0209Y-3.5075
X4.0209Y-3.7075
X4.0209Y-4.0075
X4.0209Y-4.2075
X4.0209Y-4.5075
X4.0209Y-4.9075
X4.0209Y-5.2075
X4.0209Y-5.4075
X4.0209Y-5.7075
X4.0209Y-5.9075
X4.0209Y-6.2075
X4.1209Y-3.2075
X4.1209Y-3.5075
X4.1209Y-3.7075
X4.1209Y-4.0075
X4.1209Y-4.2075
X4.1209Y-4.5075
X4.1209Y-4.9075
X4.1209Y-5.2075
X4.1209Y-5.4075
X4.1209Y-5.7075
X4.1209Y-5.9075
X4.1209Y-6.2075
X4.2209Y-3.2075
X4.2209Y-3.5075
X4.2209Y-3.7075
X4.2209Y-4.0075
X4.2209Y-4.2075
X4.2209Y-4.5075
X4.2209Y-4.9075
X4.2209Y-5.2075
X4.2209Y-5.4075
X4.2209Y-5.7075
X4.2209Y-5.9075
X4.2209Y-6.2075
X4.3209Y-3.2075
X4.3209Y-3.5075
X4.3209Y-3.7075
X4.3209Y-4.0075
X4.3209Y-4.2075
X4.3209Y-4.5075
X4.3209Y-4.9075
X4.3209Y-5.2075
X4.3209Y-5.4075
X4.3209Y-5.7075
X4.3209Y-5.9075
X4.3209Y-6.2075
X4.4209Y-3.2075
X4.4209Y-3.5075
X4.4209Y-3.7075
X4.4209Y-4.0075
X4.4209Y-4.2075
X4.4209Y-4.5075
X4.4209Y-4.9075
X4.4209Y-5.2075
X4.4209Y-5.4075
X4.4209Y-5.7075
X4.4209Y-5.9075
X4.4209Y-6.2075
X4.5209Y-3.2075
X4.5209Y-3.5075
X4.5209Y-3.7075
X4.5209Y-4.0075
X4.5209Y-4.2075
X4.5209Y-4.5075
X4.5209Y-4.9075
X4.5209Y-5.2075
X4.5209Y-5.4075
X4.5209Y-5.7075
X4.5209Y-5.9075
X4.5209Y-6.2075
X4.6209Y-3.2075
X4.6209Y-3.5075
X4.6209Y-3.7075
X4.6209Y-4.0075
X4.6209Y-4.2075
X4.6209Y-4.5075
X4.6209Y-4.9075
X4.6209Y-5.2075
X4.6209Y-5.4075
X4.6209Y-5.7075
X4.6209Y-5.9075
X4.6209Y-6.2075
X4.7209Y-3.2075
X4.7209Y-3.5075
X4.7209Y-3.7075
X4.7209Y-4.0075
X4.7209Y-4.2075
X4.7209Y-4.5075
X4.7209Y-4.9075
X4.7209Y-5.2075
X4.7209Y-5.4075
X4.7209Y-5.7075
X4.7209Y-5.9075
X4.7209Y-6.2075
X4.8709Y-3.1091
X4.8709Y-3.3059
X4.8709Y-3.5091
X4.8709Y-3.7059
X4.8709Y-4.0091
X4.8709Y-4.2059
X4.8709Y-4.7129
X4.8709Y-4.9097
X4.8709Y-5.2091
X4.8709Y-5.4059
X4.8709Y-5.7091
X4.8709Y-5.9059
X4.8709Y-6.1091
X4.8709Y-6.3059
X5.0209Y-3.2075
X5.0209Y-3.5075
X5.0209Y-3.7075
X5.0209Y-4.0075
X5.0209Y-4.2075
X5.0209Y-4.5075
X5.0209Y-4.9075
X5.0209Y-5.2075
X5.0209Y-5.4075
X5.0209Y-5.7075
X5.0209Y-5.9075
X5.0209Y-6.2075
X5.1209Y-3.2075
X5.1209Y-3.5075
X5.1209Y-3.7075
X5.1209Y-4.0075
X5.1209Y-4.2075
X5.1209Y-4.5075
X5.1209Y-4.9075
X5.1209Y-5.2075
X5.1209Y-5.4075
X5.1209Y-5.7075
X5.1209Y-5.9075
X5.1209Y-6.2075
X5.2209Y-3.2075
X5.2209Y-3.5075
X5.2209Y-3.7075
X5.2209Y-4.0075
X5.2209Y-4.2075
X5.2209Y-4.5075
X5.2209Y-4.9075
X5.2209Y-5.2075
X5.2209Y-5.4075
X5.2209Y-5.7075
X5.2209Y-5.9075
X5.2209Y-6.2075
X5.3209Y-3.2075
X5.3209Y-3.5075
X5.3209Y-3.7075
X5.3209Y-4.0075
X5.3209Y-4.2075
X5.3209Y-4.5075
X5.3209Y-4.9075
X5.3209Y-5.2075
X5.3209Y-5.4075
X5.3209Y-5.7075
X5.3209Y-5.9075
X5.3209Y-6.2075
X5.4209Y-3.2075
X5.4209Y-3.5075
X5.4209Y-3.7075
X5.4209Y-4.0075
X5.4209Y-4.2075
X5.4209Y-4.5075
X5.4209Y-4.9075
X5.4209Y-5.2075
X5.4209Y-5.4075
X5.4209Y-5.7075
X5.4209Y-5.9075
X5.4209Y-6.2075
X5.5209Y-3.2075
X5.5209Y-3.5075
X5.5209Y-3.7075
X5.5209Y-4.0075
X5.5209Y-4.2075
X5.5209Y-4.5075
X5.5209Y-4.9075
X5.5209Y-5.2075
X5.5209Y-5.4075
X5.5209Y-5.7075
X5.5209Y-5.9075
X5.5209Y-6.2075
X5.6209Y-3.2075
X5.6209Y-3.5075
X5.6209Y-3.7075
X5.6209Y-4.0075
X5.6209Y-4.2075
X5.6209Y-4.5075
X5.6209Y-4.9075
X5.6209Y-5.2075
X5.6209Y-5.4075
X5.6209Y-5.7075
X5.6209Y-5.9075
X5.6209Y-6.2075
X5.7209Y-3.2075
X5.7209Y-3.5075
X5.7209Y-3.7075
X5.7209Y-4.0075
X5.7209Y-4.2075
X5.7209Y-4.5075
X5.7209Y-4.9075
X5.7209Y-5.2075
X5.7209Y-5.4075
X5.7209Y-5.7075
X5.7209Y-5.9075
X5.7209Y-6.2075
X5.8709Y-3.1075
X5.8709Y-3.3043
X5.8709Y-3.5091
X5.8709Y-3.7059
X5.8709Y-4.0091
X5.8709Y-4.2059
X5.8709Y-4.5129
X5.8709Y-4.7097
X5.8709Y-5.2091
X5.8709Y-5.4059
X5.8709Y-5.7091
X5.8709Y-5.9059
X5.8709Y-6.1091
X5.8709Y-6.3059
X6.0209Y-3.2075
X6.0209Y-3.5075
X6.0209Y-3.7075
X6.0209Y-4.0075
X6.0209Y-4.2075
X6.0209Y-4.5075
X6.0209Y-4.9075
X6.0209Y-5.2075
X6.0209Y-5.4075
X6.0209Y-5.7075
X6.0209Y-5.9075
X6.0209Y-6.2075
X6.1209Y-3.2075
X6.1209Y-3.5075
X6.1209Y-3.7075
X6.1209Y-4.0075
X6.1209Y-4.2075
X6.1209Y-4.5075
X6.1209Y-4.9075
X6.1209Y-5.2075
X6.1209Y-5.4075
X6.1209Y-5.7075
X6.1209Y-5.9075
X6.1209Y-6.2075
X6.2209Y-3.2075
X6.2209Y-3.5075
X6.2209Y-3.7075
X6.2209Y-4.0075
X6.2209Y-4.2075
X6.2209Y-4.5075
X6.2209Y-4.9075
X6.2209Y-5.2075
X6.2209Y-5.4075
X6.2209Y-5.7075
X6.2209Y-5.9075
X6.2209Y-6.2075
X6.3209Y-3.2075
X6.3209Y-3.5075
X6.3209Y-3.7075
X6.3209Y-4.0075
X6.3209Y-4.2075
X6.3209Y-4.5075
X6.3209Y-4.9075
X6.3209Y-5.2075
X6.3209Y-5.4075
X6.3209Y-5.7075
X6.3209Y-5.9075
X6.3209Y-6.2075
X6.4209Y-3.2075
X6.4209Y-3.5075
X6.4209Y-3.7075
X6.4209Y-4.0075
X6.4209Y-4.2075
X6.4209Y-4.5075
X6.4209Y-4.9075
X6.4209Y-5.2075
X6.4209Y-5.4075
X6.4209Y-5.7075
X6.4209Y-5.9075
X6.4209Y-6.2075
X6.5209Y-3.2075
X6.5209Y-3.5075
X6.5209Y-3.7075
X6.5209Y-4.0075
X6.5209Y-4.2075
X6.5209Y-4.5075
X6.5209Y-4.9075
X6.5209Y-5.2075
X6.5209Y-5.4075
X6.5209Y-5.7075
X6.5209Y-5.9075
X6.5209Y-6.2075
X6.6209Y-3.2075
X6.6209Y-3.5075
X6.6209Y-3.7075
X6.6209Y-4.0075
X6.6209Y-4.2075
X6.6209Y-4.5075
X6.6209Y-4.9075
X6.6209Y-5.2075
X6.6209Y-5.4075
X6.6209Y-5.7075
X6.6209Y-5.9075
X6.6209Y-6.2075
X6.7209Y-3.2075
X6.7209Y-3.5075
X6.7209Y-3.7075
X6.7209Y-4.0075
X6.7209Y-4.2075
X6.7209Y-4.5075
X6.7209Y-4.9075
X6.7209Y-5.2075
X6.7209Y-5.4075
X6.7209Y-5.7075
X6.7209Y-5.9075
X6.7209Y-6.2075
X6.8709Y-3.1091
X6.8709Y-3.3059
X6.8709Y-3.5091
X6.8709Y-3.7059
X6.8709Y-4.0091
X6.8709Y-4.2059
X6.8709Y-4.7129
X6.8709Y-4.9097
X6.8709Y-5.2091
X6.8709Y-5.4059
X6.8709Y-5.7091
X6.8709Y-5.9059
X6.8709Y-6.1091
X6.8709Y-6.3059
X7.0209Y-3.2075
X7.0209Y-3.5075
X7.0209Y-3.7075
X7.0209Y-4.0075
X7.0209Y-4.2075
X7.0209Y-4.5075
X7.0209Y-4.9075
X7.0209Y-5.2075
X7.0209Y-5.4075
X7.0209Y-5.7075
X7.0209Y-5.9075
X7.0209Y-6.2075
X7.1209Y-3.2075
X7.1209Y-3.5075
X7.1209Y-3.7075
X7.1209Y-4.0075
X7.1209Y-4.2075
X7.1209Y-4.5075
X7.1209Y-4.9075
X7.1209Y-5.2075
X7.1209Y-5.4075
X7.1209Y-5.7075
X7.1209Y-5.9075
X7.1209Y-6.2075
X7.2209Y-3.2075
X7.2209Y-3.5075
X7.2209Y-3.7075
X7.2209Y-4.0075
X7.2209Y-4.2075
X7.2209Y-4.5075
X7.2209Y-4.9075
X7.2209Y-5.2075
X7.2209Y-5.4075
X7.2209Y-5.7075
X7.2209Y-5.9075
X7.2209Y-6.2075
X7.3209Y-3.2075
X7.3209Y-3.5075
X7.3209Y-3.7075
X7.3209Y-4.0075
X7.3209Y-4.2075
X7.3209Y-4.5075
X7.3209Y-4.9075
X7.3209Y-5.2075
X7.3209Y-5.4075
X7.3209Y-5.7075
X7.3209Y-5.9075
X7.3209Y-6.2075
X7.4209Y-3.2075
X7.4209Y-3.5075
X7.4209Y-3.7075
X7.4209Y-4.0075
X7.4209Y-4.2075
X7.4209Y-4.5075
X7.4209Y-4.9075
X7.4209Y-5.2075
X7.4209Y-5.4075
X7.4209Y-5.7075
X7.4209Y-5.9075
X7.4209Y-6.2075
X7.5209Y-3.2075
X7.5209Y-3.5075
X7.5209Y-3.7075
X7.5209Y-4.0075
X7.5209Y-4.2075
X7.5209Y-4.5075
X7.5209Y-4.9075
X7.5209Y-5.2075
X7.5209Y-5.4075
X7.5209Y-5.7075
X7.5209Y-5.9075
X7.5209Y-6.2075
X7.6209Y-3.2075
X7.6209Y-3.5075
X7.6209Y-3.7075
X7.6209Y-4.0075
X7.6209Y-4.2075
X7.6209Y-4.5075
X7.6209Y-4.9075
X7.6209Y-5.2075
X7.6209Y-5.4075
X7.6209Y-5.7075
X7.6209Y-5.9075
X7.6209Y-6.2075
X7.7209Y-3.2075
X7.7209Y-3.5075
X7.7209Y-3.7075
X7.7209Y-4.0075
X7.7209Y-4.2075
X7.7209Y-4.5075
X7.7209Y-4.9075
X7.7209Y-5.2075
X7.7209Y-5.4075
X7.7209Y-5.7075
X7.7209Y-5.9075
X7.7209Y-6.2075
X7.9209Y-3.1091
X7.9209Y-3.3059
X7.9209Y-3.5091
X7.9209Y-3.7059
X7.9209Y-4.0091
X7.9209Y-4.2059
X7.9209Y-4.5129
X7.9209Y-4.7097
X7.9209Y-5.2091
X7.9209Y-5.4059
X7.9209Y-5.7091
X7.9209Y-5.9059
X7.9209Y-6.1091
X7.9209Y-6.3059
X8.2209Y-3.2075
X8.2209Y-3.5075
X8.2209Y-3.7075
X8.2209Y-4.0075
X8.2209Y-4.2075
X8.2209Y-4.5075
X8.3209Y-3.2075
X8.3209Y-3.5075
X8.3209Y-3.7075
X8.3209Y-4.0075
X8.3209Y-4.2075
X8.3209Y-4.5075
X8.4209Y-3.2075
X8.4209Y-3.5075
X8.4209Y-3.7075
X8.4209Y-4.0075
X8.4209Y-4.2075
X8.4209Y-4.5075
X8.4209Y-4.9075
X8.4209Y-5.2075
X8.4209Y-5.4075
X8.4209Y-5.7075
X8.4209Y-5.9075
X8.4209Y-6.2075
X8.5209Y-3.2075
X8.5209Y-3.5075
X8.5209Y-3.7075
X8.5209Y-4.0075
X8.5209Y-4.2075
X8.5209Y-4.5075
X8.5209Y-4.9075
X8.5209Y-5.2075
X8.5209Y-5.4075
X8.5209Y-5.7075
X8.5209Y-5.9075
X8.5209Y-6.2075
X8.6209Y-3.2075
X8.6209Y-3.5075
X8.6209Y-3.7075
X8.6209Y-4.0075
X8.6209Y-4.2075
X8.6209Y-4.5075
X8.6209Y-4.9075
X8.6209Y-5.2075
X8.6209Y-5.4075
X8.6209Y-5.7075
X8.6209Y-5.9075
X8.6209Y-6.2075
X8.7209Y-3.2075
X8.7209Y-3.5075
X8.7209Y-3.7075
X8.7209Y-4.0075
X8.7209Y-4.2075
X8.7209Y-4.5075
X8.7209Y-4.9075
X8.7209Y-5.2075
X8.7209Y-5.4075
X8.7209Y-5.7075
X8.7209Y-5.9075
X8.7209Y-6.2075
X8.8209Y-3.2075
X8.8209Y-3.5075
X8.8209Y-3.7075
X8.8209Y-4.0075
X8.8209Y-4.2075
X8.8209Y-4.5075
X8.8209Y-4.9075
X8.8209Y-5.2075
X8.8209Y-5.4075
X8.8209Y-5.7075
X8.8209Y-5.9075
X8.8209Y-6.2075
X8.9209Y-3.2075
X8.9209Y-3.5075
X8.9209Y-3.7075
X8.9209Y-4.0075
X8.9209Y-4.2075
X8.9209Y-4.5075
X8.9209Y-4.9075
X8.9209Y-5.2075
X8.9209Y-5.4075
X8.9209Y-5.7075
X8.9209Y-5.9075
X8.9209Y-6.2075
X9.0209Y-4.9075
X9.0209Y-5.2075
X9.0209Y-5.4075
X9.0209Y-5.7075
X9.0209Y-5.9075
X9.0209Y-6.2075
X9.0709Y-3.1091
X9.0709Y-3.3059
X9.0709Y-3.5091
X9.0709Y-3.7059
X9.0709Y-3.9879
X9.0709Y-4.1847
X9.1209Y-4.9075
X9.1209Y-5.2075
X9.1209Y-5.4075
X9.1209Y-5.7075
X9.1209Y-5.9075
X9.1209Y-6.2075
X9.2209Y-3.2075
X9.2209Y-3.5075
X9.2209Y-3.7075
X9.2209Y-4.0075
X9.2209Y-4.2075
X9.2209Y-4.5075
X9.2709Y-5.2091
X9.2709Y-5.4059
X9.2709Y-5.7091
X9.2709Y-5.9059
X9.2709Y-6.1091
X9.2709Y-6.3059
X9.3209Y-3.2075
X9.3209Y-3.5075
X9.3209Y-3.7075
X9.3209Y-4.0075
X9.3209Y-4.2075
X9.3209Y-4.5075
X9.4209Y-3.2075
X9.4209Y-3.5075
X9.4209Y-3.7075
X9.4209Y-4.0075
X9.4209Y-4.2075
X9.4209Y-4.5075
X9.4209Y-4.9075
X9.4209Y-5.2075
X9.4209Y-5.4075
X9.4209Y-5.7075
X9.4209Y-5.9075
X9.4209Y-6.2075
X9.5209Y-3.2075
X9.5209Y-3.5075
X9.5209Y-3.7075
X9.5209Y-4.0075
X9.5209Y-4.2075
X9.5209Y-4.5075
X9.5209Y-4.9075
X9.5209Y-5.2075
X9.5209Y-5.4075
X9.5209Y-5.7075
X9.5209Y-5.9075
X9.5209Y-6.2075
X9.6209Y-3.2075
X9.6209Y-3.5075
X9.6209Y-3.7075
X9.6209Y-4.0075
X9.6209Y-4.2075
X9.6209Y-4.5075
X9.6209Y-4.9075
X9.6209Y-5.2075
X9.6209Y-5.4075
X9.6209Y-5.7075
X9.6209Y-5.9075
X9.6209Y-6.2075
X9.7209Y-3.2075
X9.7209Y-3.5075
X9.7209Y-3.7075
X9.7209Y-4.0075
X9.7209Y-4.2075
X9.7209Y-4.5075
X9.7209Y-4.9075
X9.7209Y-5.2075
X9.7209Y-5.4075
X9.7209Y-5.7075
X9.7209Y-5.9075
X9.7209Y-6.2075
X9.8209Y-3.2075
X9.8209Y-3.5075
X9.8209Y-3.7075
X9.8209Y-4.0075
X9.8209Y-4.2075
X9.8209Y-4.5075
X9.8209Y-4.9075
X9.8209Y-5.2075
X9.8209Y-5.4075
X9.8209Y-5.7075
X9.8209Y-5.9075
X9.8209Y-6.2075
X9.9209Y-3.2075
X9.9209Y-3.5075
X9.9209Y-3.7075
X9.9209Y-4.0075
X9.9209Y-4.2075
X9.9209Y-4.5075
X9.9209Y-4.9075
X9.9209Y-5.2075
X9.9209Y-5.4075
X9.9209Y-5.7075
X9.9209Y-5.9075
X9.9209Y-6.2075
X10.0209Y-4.9075
X10.0209Y-5.2075
X10.0209Y-5.4075
X10.0209Y-5.7075
X10.0209Y-5.9075
X10.0209Y-6.2075
X10.1209Y-4.9075
X10.1209Y-5.2075
X10.1209Y-5.4075
X10.1209Y-5.7075
X10.1209Y-5.9075
X10.1209Y-6.2075
X10.2709Y-4.0091
X10.2709Y-4.2059
X10.2709Y-5.2091
X10.2709Y-5.4059
X10.2709Y-5.7091
X10.2709Y-5.9059
X10.2709Y-6.1091
X10.2709Y-6.3059
X10.2959Y-4.7129
X10.2959Y-4.9097
X10.4709Y-5.3075
X10.4709Y-5.4075
X10.4709Y-5.7075
X10.4959Y-4.8841
X10.4959Y-5.0809
X10.5709Y-5.3075
X10.5709Y-5.4075
X10.5709Y-5.7075
X10.6709Y-5.3075
X10.6709Y-5.4075
X10.6709Y-5.7075
X10.7709Y-3.1091
X10.7709Y-3.3059
X10.7709Y-4.0091
X10.7709Y-4.2059
X10.7709Y-4.5091
X10.7709Y-4.7059
X10.7709Y-5.3075
X10.7709Y-5.4075
X10.7709Y-5.7075
X10.8709Y-5.3075
X10.8709Y-5.4075
X10.8709Y-5.7075
X10.8959Y-3.1075
X10.8959Y-3.6075
X10.8959Y-3.7091
X10.8959Y-3.9059
X10.9709Y-4.2075
X10.9709Y-4.5075
X10.9709Y-4.7075
X10.9709Y-5.0075
X10.9709Y-5.3075
X10.9709Y-5.4075
X10.9709Y-5.7075
X10.9959Y-3.1075
X10.9959Y-3.6075
X10.9959Y-3.7091
X10.9959Y-3.9059
X11.0709Y-4.2075
X11.0709Y-4.5075
X11.0709Y-4.7075
X11.0709Y-5.0075
X11.0709Y-5.3075
X11.0709Y-5.4075
X11.0709Y-5.7075
X11.1709Y-4.2075
X11.1709Y-4.5075
X11.1709Y-4.7075
X11.1709Y-5.0075
X11.1709Y-5.3075
X11.1709Y-5.4075
X11.1709Y-5.7075
X11.2709Y-4.2075
X11.2709Y-4.5075
X11.2709Y-4.7075
X11.2709Y-5.0075
X11.2709Y-5.3075
X11.2709Y-5.4075
X11.2709Y-5.7075
X11.3709Y-4.2075
X11.3709Y-4.5075
X11.3709Y-4.7075
X11.3709Y-5.0075
X11.3709Y-5.3075
X11.3709Y-5.4075
X11.3709Y-5.7075
X11.4709Y-4.2075
X11.4709Y-4.5075
X11.4709Y-4.7075
X11.4709Y-5.0075
X11.5709Y-4.2075
X11.5709Y-4.5075
X11.5709Y-4.7075
X11.5709Y-5.0075
X11.5709Y-5.3075
X11.5709Y-5.4075
X11.5709Y-5.7075
X11.6709Y-4.2075
X11.6709Y-4.5075
X11.6709Y-4.7075
X11.6709Y-5.0075
X11.6709Y-5.3075
X11.6709Y-5.4075
X11.6709Y-5.7075
X11.7709Y-5.3075
X11.7709Y-5.4075
X11.7709Y-5.7075
X11.8209Y-4.5129
X11.8209Y-4.7097
X11.8209Y-4.9591
X11.8209Y-5.1559
X11.8709Y-5.3075
X11.8709Y-5.4075
X11.8709Y-5.7075
X11.9709Y-4.2075
X11.9709Y-4.5075
X11.9709Y-4.7075
X11.9709Y-5.0075
X11.9709Y-5.3075
X11.9709Y-5.4075
X11.9709Y-5.7075
X12.0709Y-4.2075
X12.0709Y-4.5075
X12.0709Y-4.7075
X12.0709Y-5.0075
X12.0709Y-5.3075
X12.0709Y-5.4075
X12.0709Y-5.7075
X12.1709Y-4.2075
X12.1709Y-4.5075
X12.1709Y-4.7075
X12.1709Y-5.0075
X12.1709Y-5.3075
X12.1709Y-5.4075
X12.1709Y-5.7075
X12.2709Y-4.2075
X12.2709Y-4.5075
X12.2709Y-4.7075
X12.2709Y-5.0075
X12.2709Y-5.3075
X12.2709Y-5.4075
X12.2709Y-5.7075
X12.3709Y-4.2075
X12.3709Y-4.5075
X12.3709Y-4.7075
X12.3709Y-5.0075
X12.3709Y-5.3075
X12.3709Y-5.4075
X12.3709Y-5.7075
X12.4709Y-4.2075
X12.4709Y-4.5075
X12.4709Y-4.7075
X12.4709Y-5.0075
X12.4709Y-5.3075
X12.4709Y-5.4075
X12.4709Y-5.7075
X12.5709Y-4.2075
X12.5709Y-4.5075
X12.5709Y-4.7075
X12.5709Y-5.0075
X12.6709Y-4.2075
X12.6709Y-4.5075
X12.6709Y-4.7075
X12.6709Y-5.0075
X12.6709Y-5.4075
X12.6709Y-5.7075
X12.7709Y-5.4075
X12.7709Y-5.7075
X12.8209Y-4.5091
X12.8209Y-4.7059
X12.8209Y-5.0091
X12.8209Y-5.2059
X12.8709Y-5.4075
X12.8709Y-5.7075
X12.9709Y-4.2075
X12.9709Y-4.5075
X12.9709Y-4.7075
X12.9709Y-5.0075
X12.9709Y-5.4075
X12.9709Y-5.7075
X13.0709Y-4.2075
X13.0709Y-4.5075
X13.0709Y-4.7075
X13.0709Y-5.0075
X13.0709Y-5.4075
X13.0709Y-5.7075
X13.1709Y-4.2075
X13.1709Y-4.5075
X13.1709Y-4.7075
X13.1709Y-5.0075
X13.1709Y-5.4075
X13.1709Y-5.7075
X13.2709Y-4.2075
X13.2709Y-4.5075
X13.2709Y-4.7075
X13.2709Y-5.0075
X13.2709Y-5.4075
X13.2709Y-5.7075
X13.3709Y-4.2075
X13.3709Y-4.5075
X13.3709Y-4.7075
X13.3709Y-5.0075
X13.3709Y-5.4075
X13.3709Y-5.7075
X13.4709Y-4.2075
X13.4709Y-4.5075
X13.4709Y-4.7075
X13.4709Y-5.0075
X13.4709Y-5.4075
X13.4709Y-5.7075
X13.5709Y-4.2075
X13.5709Y-4.5075
X13.5709Y-4.7075
X13.5709Y-5.0075
X13.5709Y-5.4075
X13.5709Y-5.7075
X13.6709Y-4.2075
X13.6709Y-4.5075
X13.6709Y-4.7075
X13.6709Y-5.0075
X13.7709Y-5.4075
X13.7709Y-5.7075
X13.8709Y-4.5091
X13.8709Y-4.7059
X13.8709Y-5.0091
X13.8709Y-5.2059
X13.8709Y-5.4075
X13.8709Y-5.7075
X13.9709Y-5.4075
X13.9709Y-5.7075
X14.0709Y-4.7075
X14.0709Y-5.2075
X14.0709Y-5.4075
X14.0709Y-5.7075
X14.1709Y-5.4075
X14.1709Y-5.7075
X14.2709Y-5.4075
X14.2709Y-5.7075
X14.3709Y-5.4075
X14.3709Y-5.7075
T3
X10.8709Y-6.2325
X10.8709Y-6.3325
X10.9709Y-6.2325
X10.9709Y-6.3325
X11.0709Y-6.2325
X11.0709Y-6.3325
X11.1709Y-6.2325
X11.1709Y-6.3325
X11.2709Y-6.2325
X11.2709Y-6.3325
X11.3709Y-6.2325
X11.3709Y-6.3325
X11.4709Y-6.2325
X11.4709Y-6.3325
X11.5709Y-6.2325
X11.5709Y-6.3325
X11.6709Y-6.2325
X11.6709Y-6.3325
X11.7709Y-6.2325
X11.7709Y-6.3325
X11.8709Y-6.2325
X11.8709Y-6.3325
X11.9709Y-6.2325
X11.9709Y-6.3325
X12.0709Y-6.2325
X12.0709Y-6.3325
X12.1709Y-6.2325
X12.1709Y-6.3325
X12.2709Y-6.2325
X12.2709Y-6.3325
X12.3709Y-6.2325
X12.3709Y-6.3325
X12.4709Y-6.2325
X12.4709Y-6.3325
X12.5709Y-6.2325
X12.5709Y-6.3325
X12.6709Y-6.2325
X12.6709Y-6.3325
X12.7709Y-6.2325
X12.7709Y-6.3325
X12.8709Y-6.2325
X12.8709Y-6.3325
X12.9709Y-6.2325
X12.9709Y-6.3325
X13.0709Y-6.2325
X13.0709Y-6.3325
X13.1709Y-6.2325
X13.1709Y-6.3325
X13.2709Y-6.2325
X13.2709Y-6.3325
X13.3709Y-6.2325
X13.3709Y-6.3325
T4
X10.6209Y-6.2825
X13.6209Y-6.2825
M30
