%TF.GenerationSoftware,KiCad,Pcbnew,8.0.1*%
%TF.CreationDate,2024-03-25T22:30:46+11:00*%
%TF.ProjectId,System Memory Board,53797374-656d-4204-9d65-6d6f72792042,rev?*%
%TF.SameCoordinates,Original*%
%TF.FileFunction,Copper,L4,Bot*%
%TF.FilePolarity,Positive*%
%FSLAX46Y46*%
G04 Gerber Fmt 4.6, Leading zero omitted, Abs format (unit mm)*
G04 Created by KiCad (PCBNEW 8.0.1) date 2024-03-25 22:30:46*
%MOMM*%
%LPD*%
G01*
G04 APERTURE LIST*
%ADD10C,0.250000*%
%TA.AperFunction,NonConductor*%
%ADD11C,0.250000*%
%TD*%
%TA.AperFunction,ComponentPad*%
%ADD12C,1.600000*%
%TD*%
%TA.AperFunction,ComponentPad*%
%ADD13O,1.600000X1.600000*%
%TD*%
%TA.AperFunction,ComponentPad*%
%ADD14R,1.600000X1.600000*%
%TD*%
%TA.AperFunction,ComponentPad*%
%ADD15C,5.080000*%
%TD*%
%TA.AperFunction,ComponentPad*%
%ADD16R,1.700000X1.700000*%
%TD*%
%TA.AperFunction,ComponentPad*%
%ADD17O,1.700000X1.700000*%
%TD*%
%TA.AperFunction,ViaPad*%
%ADD18C,0.800000*%
%TD*%
%TA.AperFunction,Conductor*%
%ADD19C,0.250000*%
%TD*%
G04 APERTURE END LIST*
D10*
D11*
X279678384Y-155323857D02*
X279364098Y-155409571D01*
X279364098Y-155409571D02*
X279259336Y-155495285D01*
X279259336Y-155495285D02*
X279154574Y-155666714D01*
X279154574Y-155666714D02*
X279154574Y-155923857D01*
X279154574Y-155923857D02*
X279259336Y-156095285D01*
X279259336Y-156095285D02*
X279364098Y-156181000D01*
X279364098Y-156181000D02*
X279573622Y-156266714D01*
X279573622Y-156266714D02*
X280411717Y-156266714D01*
X280411717Y-156266714D02*
X280411717Y-154466714D01*
X280411717Y-154466714D02*
X279678384Y-154466714D01*
X279678384Y-154466714D02*
X279468860Y-154552428D01*
X279468860Y-154552428D02*
X279364098Y-154638142D01*
X279364098Y-154638142D02*
X279259336Y-154809571D01*
X279259336Y-154809571D02*
X279259336Y-154981000D01*
X279259336Y-154981000D02*
X279364098Y-155152428D01*
X279364098Y-155152428D02*
X279468860Y-155238142D01*
X279468860Y-155238142D02*
X279678384Y-155323857D01*
X279678384Y-155323857D02*
X280411717Y-155323857D01*
X278316479Y-154638142D02*
X278211717Y-154552428D01*
X278211717Y-154552428D02*
X278002193Y-154466714D01*
X278002193Y-154466714D02*
X277478384Y-154466714D01*
X277478384Y-154466714D02*
X277268860Y-154552428D01*
X277268860Y-154552428D02*
X277164098Y-154638142D01*
X277164098Y-154638142D02*
X277059336Y-154809571D01*
X277059336Y-154809571D02*
X277059336Y-154981000D01*
X277059336Y-154981000D02*
X277164098Y-155238142D01*
X277164098Y-155238142D02*
X278421241Y-156266714D01*
X278421241Y-156266714D02*
X277059336Y-156266714D01*
X275173622Y-154466714D02*
X275592669Y-154466714D01*
X275592669Y-154466714D02*
X275802193Y-154552428D01*
X275802193Y-154552428D02*
X275906955Y-154638142D01*
X275906955Y-154638142D02*
X276116479Y-154895285D01*
X276116479Y-154895285D02*
X276221241Y-155238142D01*
X276221241Y-155238142D02*
X276221241Y-155923857D01*
X276221241Y-155923857D02*
X276116479Y-156095285D01*
X276116479Y-156095285D02*
X276011717Y-156181000D01*
X276011717Y-156181000D02*
X275802193Y-156266714D01*
X275802193Y-156266714D02*
X275383146Y-156266714D01*
X275383146Y-156266714D02*
X275173622Y-156181000D01*
X275173622Y-156181000D02*
X275068860Y-156095285D01*
X275068860Y-156095285D02*
X274964098Y-155923857D01*
X274964098Y-155923857D02*
X274964098Y-155495285D01*
X274964098Y-155495285D02*
X275068860Y-155323857D01*
X275068860Y-155323857D02*
X275173622Y-155238142D01*
X275173622Y-155238142D02*
X275383146Y-155152428D01*
X275383146Y-155152428D02*
X275802193Y-155152428D01*
X275802193Y-155152428D02*
X276011717Y-155238142D01*
X276011717Y-155238142D02*
X276116479Y-155323857D01*
X276116479Y-155323857D02*
X276221241Y-155495285D01*
D10*
D11*
X347328384Y-155323857D02*
X347014098Y-155409571D01*
X347014098Y-155409571D02*
X346909336Y-155495285D01*
X346909336Y-155495285D02*
X346804574Y-155666714D01*
X346804574Y-155666714D02*
X346804574Y-155923857D01*
X346804574Y-155923857D02*
X346909336Y-156095285D01*
X346909336Y-156095285D02*
X347014098Y-156181000D01*
X347014098Y-156181000D02*
X347223622Y-156266714D01*
X347223622Y-156266714D02*
X348061717Y-156266714D01*
X348061717Y-156266714D02*
X348061717Y-154466714D01*
X348061717Y-154466714D02*
X347328384Y-154466714D01*
X347328384Y-154466714D02*
X347118860Y-154552428D01*
X347118860Y-154552428D02*
X347014098Y-154638142D01*
X347014098Y-154638142D02*
X346909336Y-154809571D01*
X346909336Y-154809571D02*
X346909336Y-154981000D01*
X346909336Y-154981000D02*
X347014098Y-155152428D01*
X347014098Y-155152428D02*
X347118860Y-155238142D01*
X347118860Y-155238142D02*
X347328384Y-155323857D01*
X347328384Y-155323857D02*
X348061717Y-155323857D01*
X344709336Y-156266714D02*
X345966479Y-156266714D01*
X345337907Y-156266714D02*
X345337907Y-154466714D01*
X345337907Y-154466714D02*
X345547431Y-154723857D01*
X345547431Y-154723857D02*
X345756955Y-154895285D01*
X345756955Y-154895285D02*
X345966479Y-154981000D01*
D10*
D11*
X341766479Y-164502428D02*
X340718860Y-164502428D01*
X341976003Y-165016714D02*
X341242669Y-163216714D01*
X341242669Y-163216714D02*
X340509336Y-165016714D01*
X338623622Y-165016714D02*
X339880765Y-165016714D01*
X339252193Y-165016714D02*
X339252193Y-163216714D01*
X339252193Y-163216714D02*
X339461717Y-163473857D01*
X339461717Y-163473857D02*
X339671241Y-163645285D01*
X339671241Y-163645285D02*
X339880765Y-163731000D01*
D12*
%TO.P,C45,1*%
%TO.N,VCC*%
X174520000Y-132310000D03*
%TO.P,C45,2*%
%TO.N,GND*%
X174520000Y-137310000D03*
%TD*%
%TO.P,C41,1*%
%TO.N,VCC*%
X72920000Y-132310000D03*
%TO.P,C41,2*%
%TO.N,GND*%
X72920000Y-137310000D03*
%TD*%
%TO.P,C3,1*%
%TO.N,VCC*%
X98320000Y-79010000D03*
%TO.P,C3,2*%
%TO.N,GND*%
X98320000Y-84010000D03*
%TD*%
%TO.P,C59,1*%
%TO.N,VCC*%
X201190000Y-145010000D03*
%TO.P,C59,2*%
%TO.N,GND*%
X201190000Y-150010000D03*
%TD*%
%TO.P,C16,1*%
%TO.N,VCC*%
X201190000Y-89130000D03*
%TO.P,C16,2*%
%TO.N,GND*%
X201190000Y-94130000D03*
%TD*%
%TO.P,C8,1*%
%TO.N,VCC*%
X230400000Y-78970000D03*
%TO.P,C8,2*%
%TO.N,GND*%
X230400000Y-83970000D03*
%TD*%
%TO.P,C43,1*%
%TO.N,VCC*%
X123720000Y-132310000D03*
%TO.P,C43,2*%
%TO.N,GND*%
X123720000Y-137310000D03*
%TD*%
%TO.P,C30,1*%
%TO.N,VCC*%
X325650000Y-114530000D03*
%TO.P,C30,2*%
%TO.N,GND*%
X325650000Y-119530000D03*
%TD*%
%TO.P,C51,1*%
%TO.N,VCC*%
X325650000Y-127230000D03*
%TO.P,C51,2*%
%TO.N,GND*%
X325650000Y-132230000D03*
%TD*%
%TO.P,C55,1*%
%TO.N,VCC*%
X98320000Y-145010000D03*
%TO.P,C55,2*%
%TO.N,GND*%
X98320000Y-150010000D03*
%TD*%
%TO.P,C31,1*%
%TO.N,VCC*%
X352320000Y-114530000D03*
%TO.P,C31,2*%
%TO.N,GND*%
X352320000Y-119530000D03*
%TD*%
%TO.P,C14,1*%
%TO.N,VCC*%
X149120000Y-89130000D03*
%TO.P,C14,2*%
%TO.N,GND*%
X149120000Y-94130000D03*
%TD*%
%TO.P,C11,1*%
%TO.N,VCC*%
X72920000Y-89130000D03*
%TO.P,C11,2*%
%TO.N,GND*%
X72920000Y-94130000D03*
%TD*%
%TO.P,C2,1*%
%TO.N,VCC*%
X72920000Y-80240000D03*
%TO.P,C2,2*%
%TO.N,GND*%
X72920000Y-85240000D03*
%TD*%
%TO.P,C60,1*%
%TO.N,VCC*%
X235480000Y-145010000D03*
%TO.P,C60,2*%
%TO.N,GND*%
X235480000Y-150010000D03*
%TD*%
%TO.P,C58,1*%
%TO.N,VCC*%
X174520000Y-145010000D03*
%TO.P,C58,2*%
%TO.N,GND*%
X174520000Y-150010000D03*
%TD*%
%TO.P,C42,1*%
%TO.N,VCC*%
X98320000Y-132310000D03*
%TO.P,C42,2*%
%TO.N,GND*%
X98320000Y-137310000D03*
%TD*%
%TO.P,C73,1*%
%TO.N,Net-(C73-Pad1)*%
X276755000Y-94210000D03*
%TO.P,C73,2*%
%TO.N,GND*%
X276755000Y-99210000D03*
%TD*%
%TO.P,C23,1*%
%TO.N,VCC*%
X123720000Y-101830000D03*
%TO.P,C23,2*%
%TO.N,GND*%
X123720000Y-106830000D03*
%TD*%
%TO.P,C65,1*%
%TO.N,VCC*%
X149120000Y-155170000D03*
%TO.P,C65,2*%
%TO.N,GND*%
X149120000Y-160170000D03*
%TD*%
%TO.P,C18,1*%
%TO.N,VCC*%
X260880000Y-101830000D03*
%TO.P,C18,2*%
%TO.N,GND*%
X260880000Y-106830000D03*
%TD*%
%TO.P,C44,1*%
%TO.N,VCC*%
X149120000Y-132310000D03*
%TO.P,C44,2*%
%TO.N,GND*%
X149120000Y-137310000D03*
%TD*%
%TO.P,C40,1*%
%TO.N,VCC*%
X46250000Y-132310000D03*
%TO.P,C40,2*%
%TO.N,GND*%
X46250000Y-137310000D03*
%TD*%
%TO.P,C48,1*%
%TO.N,VCC*%
X260880000Y-132310000D03*
%TO.P,C48,2*%
%TO.N,GND*%
X260880000Y-137310000D03*
%TD*%
%TO.P,C52,1*%
%TO.N,VCC*%
X352320000Y-127230000D03*
%TO.P,C52,2*%
%TO.N,GND*%
X352320000Y-132230000D03*
%TD*%
%TO.P,C47,1*%
%TO.N,VCC*%
X235480000Y-132310000D03*
%TO.P,C47,2*%
%TO.N,GND*%
X235480000Y-137310000D03*
%TD*%
%TO.P,C68,1*%
%TO.N,VCC*%
X235480000Y-155170000D03*
%TO.P,C68,2*%
%TO.N,GND*%
X235480000Y-160170000D03*
%TD*%
%TO.P,C63,1*%
%TO.N,VCC*%
X98320000Y-155170000D03*
%TO.P,C63,2*%
%TO.N,GND*%
X98320000Y-160170000D03*
%TD*%
%TO.P,C49,1*%
%TO.N,VCC*%
X266595000Y-124055000D03*
%TO.P,C49,2*%
%TO.N,GND*%
X266595000Y-129055000D03*
%TD*%
%TO.P,C72,1*%
%TO.N,Net-(C72-Pad1)*%
X46885000Y-81510000D03*
%TO.P,C72,2*%
%TO.N,GND*%
X46885000Y-86510000D03*
%TD*%
%TO.P,C7,1*%
%TO.N,VCC*%
X201190000Y-78970000D03*
%TO.P,C7,2*%
%TO.N,GND*%
X201190000Y-83970000D03*
%TD*%
%TO.P,C20,1*%
%TO.N,VCC*%
X46250000Y-101830000D03*
%TO.P,C20,2*%
%TO.N,GND*%
X46250000Y-106830000D03*
%TD*%
%TO.P,C67,1*%
%TO.N,VCC*%
X201190000Y-155170000D03*
%TO.P,C67,2*%
%TO.N,GND*%
X201190000Y-160170000D03*
%TD*%
%TO.P,C74,1*%
%TO.N,Net-(C74-Pad1)*%
X279295000Y-94210000D03*
%TO.P,C74,2*%
%TO.N,GND*%
X279295000Y-99210000D03*
%TD*%
%TO.P,C10,1*%
%TO.N,VCC*%
X46885000Y-90400000D03*
%TO.P,C10,2*%
%TO.N,GND*%
X46885000Y-95400000D03*
%TD*%
%TO.P,C50,1*%
%TO.N,VCC*%
X300250000Y-125960000D03*
%TO.P,C50,2*%
%TO.N,GND*%
X300250000Y-130960000D03*
%TD*%
%TO.P,C70,1*%
%TO.N,Net-(C70-Pad1)*%
X40535000Y-103100000D03*
%TO.P,C70,2*%
%TO.N,GND*%
X40535000Y-108100000D03*
%TD*%
%TO.P,C12,1*%
%TO.N,VCC*%
X98320000Y-89130000D03*
%TO.P,C12,2*%
%TO.N,GND*%
X98320000Y-94130000D03*
%TD*%
%TO.P,C15,1*%
%TO.N,VCC*%
X174520000Y-89130000D03*
%TO.P,C15,2*%
%TO.N,GND*%
X174520000Y-94130000D03*
%TD*%
%TO.P,C28,1*%
%TO.N,VCC*%
X273580000Y-114530000D03*
%TO.P,C28,2*%
%TO.N,GND*%
X273580000Y-119530000D03*
%TD*%
%TO.P,C26,1*%
%TO.N,VCC*%
X201190000Y-101830000D03*
%TO.P,C26,2*%
%TO.N,GND*%
X201190000Y-106830000D03*
%TD*%
%TO.P,C62,1*%
%TO.N,VCC*%
X72920000Y-155170000D03*
%TO.P,C62,2*%
%TO.N,GND*%
X72920000Y-160170000D03*
%TD*%
%TO.P,C66,1*%
%TO.N,VCC*%
X174520000Y-155170000D03*
%TO.P,C66,2*%
%TO.N,GND*%
X174520000Y-160170000D03*
%TD*%
%TO.P,C69,1*%
%TO.N,VCC*%
X260880000Y-155170000D03*
%TO.P,C69,2*%
%TO.N,GND*%
X260880000Y-160170000D03*
%TD*%
%TO.P,C13,1*%
%TO.N,VCC*%
X123720000Y-89130000D03*
%TO.P,C13,2*%
%TO.N,GND*%
X123720000Y-94130000D03*
%TD*%
%TO.P,C4,1*%
%TO.N,VCC*%
X123720000Y-78970000D03*
%TO.P,C4,2*%
%TO.N,GND*%
X123720000Y-83970000D03*
%TD*%
%TO.P,C22,1*%
%TO.N,VCC*%
X98320000Y-101830000D03*
%TO.P,C22,2*%
%TO.N,GND*%
X98320000Y-106830000D03*
%TD*%
%TO.P,C1,1*%
%TO.N,VCC*%
X41170000Y-80240000D03*
%TO.P,C1,2*%
%TO.N,GND*%
X41170000Y-85240000D03*
%TD*%
%TO.P,C6,1*%
%TO.N,VCC*%
X174520000Y-78970000D03*
%TO.P,C6,2*%
%TO.N,GND*%
X174520000Y-83970000D03*
%TD*%
%TO.P,C24,1*%
%TO.N,VCC*%
X149120000Y-101830000D03*
%TO.P,C24,2*%
%TO.N,GND*%
X149120000Y-106830000D03*
%TD*%
%TO.P,C54,1*%
%TO.N,VCC*%
X72920000Y-145010000D03*
%TO.P,C54,2*%
%TO.N,GND*%
X72920000Y-150010000D03*
%TD*%
%TO.P,C17,1*%
%TO.N,VCC*%
X230400000Y-89130000D03*
%TO.P,C17,2*%
%TO.N,GND*%
X230400000Y-94130000D03*
%TD*%
%TO.P,C53,1*%
%TO.N,VCC*%
X46250000Y-145010000D03*
%TO.P,C53,2*%
%TO.N,GND*%
X46250000Y-150010000D03*
%TD*%
%TO.P,C5,1*%
%TO.N,VCC*%
X149120000Y-78930000D03*
%TO.P,C5,2*%
%TO.N,GND*%
X149120000Y-83930000D03*
%TD*%
%TO.P,C25,1*%
%TO.N,VCC*%
X174520000Y-101830000D03*
%TO.P,C25,2*%
%TO.N,GND*%
X174520000Y-106830000D03*
%TD*%
%TO.P,C57,1*%
%TO.N,VCC*%
X149120000Y-145010000D03*
%TO.P,C57,2*%
%TO.N,GND*%
X149120000Y-150010000D03*
%TD*%
%TO.P,C19,1*%
%TO.N,VCC*%
X273580000Y-101830000D03*
%TO.P,C19,2*%
%TO.N,GND*%
X273580000Y-106830000D03*
%TD*%
%TO.P,C9,1*%
%TO.N,VCC*%
X273580000Y-78970000D03*
%TO.P,C9,2*%
%TO.N,GND*%
X273580000Y-83970000D03*
%TD*%
%TO.P,C71,1*%
%TO.N,Net-(C71-Pad1)*%
X37995000Y-114530000D03*
%TO.P,C71,2*%
%TO.N,GND*%
X37995000Y-119530000D03*
%TD*%
%TO.P,C21,1*%
%TO.N,VCC*%
X72920000Y-101830000D03*
%TO.P,C21,2*%
%TO.N,GND*%
X72920000Y-106830000D03*
%TD*%
%TO.P,C61,1*%
%TO.N,VCC*%
X260880000Y-145010000D03*
%TO.P,C61,2*%
%TO.N,GND*%
X260880000Y-150010000D03*
%TD*%
%TO.P,C46,1*%
%TO.N,VCC*%
X201190000Y-132310000D03*
%TO.P,C46,2*%
%TO.N,GND*%
X201190000Y-137310000D03*
%TD*%
%TO.P,C64,1*%
%TO.N,VCC*%
X123720000Y-155170000D03*
%TO.P,C64,2*%
%TO.N,GND*%
X123720000Y-160170000D03*
%TD*%
%TO.P,C56,1*%
%TO.N,VCC*%
X123720000Y-145010000D03*
%TO.P,C56,2*%
%TO.N,GND*%
X123720000Y-150010000D03*
%TD*%
%TO.P,R10,1*%
%TO.N,/MDPOUT1*%
X39900000Y-134175000D03*
D13*
%TO.P,R10,2*%
%TO.N,VCC*%
X39900000Y-146875000D03*
%TD*%
D14*
%TO.P,U35,1,A8*%
%TO.N,/MA8*%
X102130000Y-144970000D03*
D13*
%TO.P,U35,2,D*%
%TO.N,/MD5*%
X104670000Y-144970000D03*
%TO.P,U35,3,~{WE}*%
%TO.N,/~{WE34}*%
X107210000Y-144970000D03*
%TO.P,U35,4,~{RAS}*%
%TO.N,/~{RAS4}*%
X109750000Y-144970000D03*
%TO.P,U35,5,A0*%
%TO.N,/MA0*%
X112290000Y-144970000D03*
%TO.P,U35,6,A2*%
%TO.N,/MA2*%
X114830000Y-144970000D03*
%TO.P,U35,7,A1*%
%TO.N,/MA1*%
X117370000Y-144970000D03*
%TO.P,U35,8,VCC*%
%TO.N,VCC*%
X119910000Y-144970000D03*
%TO.P,U35,9,A7*%
%TO.N,/MA7*%
X119910000Y-137350000D03*
%TO.P,U35,10,A5*%
%TO.N,/MA5*%
X117370000Y-137350000D03*
%TO.P,U35,11,A4*%
%TO.N,/MA4*%
X114830000Y-137350000D03*
%TO.P,U35,12,A3*%
%TO.N,/MA3*%
X112290000Y-137350000D03*
%TO.P,U35,13,A6*%
%TO.N,/MA6*%
X109750000Y-137350000D03*
%TO.P,U35,14,Q*%
%TO.N,/MD5*%
X107210000Y-137350000D03*
%TO.P,U35,15,~{CAS}*%
%TO.N,/~{CASL}*%
X104670000Y-137350000D03*
%TO.P,U35,16,VSS*%
%TO.N,GND*%
X102130000Y-137350000D03*
%TD*%
D14*
%TO.P,Z1,1,common*%
%TO.N,VCC*%
X48790000Y-77025000D03*
D13*
%TO.P,Z1,2,R1*%
%TO.N,/MA6*%
X51330000Y-77025000D03*
%TO.P,Z1,3,R2*%
%TO.N,/MA3*%
X53870000Y-77025000D03*
%TO.P,Z1,4,R3*%
%TO.N,/MA0*%
X56410000Y-77025000D03*
%TO.P,Z1,5,R4*%
%TO.N,/MA4*%
X58950000Y-77025000D03*
%TO.P,Z1,6,R5*%
%TO.N,/MA2*%
X61490000Y-77025000D03*
%TO.P,Z1,7,R6*%
%TO.N,/MA5*%
X64030000Y-77025000D03*
%TO.P,Z1,8,R7*%
%TO.N,/MA1*%
X66570000Y-77025000D03*
%TO.P,Z1,9,R8*%
%TO.N,/MA7*%
X69110000Y-77025000D03*
%TO.P,Z1,10,R9*%
%TO.N,unconnected-(Z1-R9-Pad10)*%
X71650000Y-77025000D03*
%TD*%
D14*
%TO.P,C29,1*%
%TO.N,VCC*%
X300250000Y-114627349D03*
D12*
%TO.P,C29,2*%
%TO.N,GND*%
X300250000Y-119627349D03*
%TD*%
D14*
%TO.P,C33,1*%
%TO.N,VCC*%
X72920000Y-119707349D03*
D12*
%TO.P,C33,2*%
%TO.N,GND*%
X72920000Y-124707349D03*
%TD*%
D14*
%TO.P,U13,1,A8*%
%TO.N,/MA8*%
X152930000Y-101790000D03*
D13*
%TO.P,U13,2,D*%
%TO.N,/MD12*%
X155470000Y-101790000D03*
%TO.P,U13,3,~{WE}*%
%TO.N,/~{WE34}*%
X158010000Y-101790000D03*
%TO.P,U13,4,~{RAS}*%
%TO.N,/~{RAS3}*%
X160550000Y-101790000D03*
%TO.P,U13,5,A0*%
%TO.N,/MA0*%
X163090000Y-101790000D03*
%TO.P,U13,6,A2*%
%TO.N,/MA2*%
X165630000Y-101790000D03*
%TO.P,U13,7,A1*%
%TO.N,/MA1*%
X168170000Y-101790000D03*
%TO.P,U13,8,VCC*%
%TO.N,VCC*%
X170710000Y-101790000D03*
%TO.P,U13,9,A7*%
%TO.N,/MA7*%
X170710000Y-94170000D03*
%TO.P,U13,10,A5*%
%TO.N,/MA5*%
X168170000Y-94170000D03*
%TO.P,U13,11,A4*%
%TO.N,/MA4*%
X165630000Y-94170000D03*
%TO.P,U13,12,A3*%
%TO.N,/MA3*%
X163090000Y-94170000D03*
%TO.P,U13,13,A6*%
%TO.N,/MA6*%
X160550000Y-94170000D03*
%TO.P,U13,14,Q*%
%TO.N,/MD12*%
X158010000Y-94170000D03*
%TO.P,U13,15,~{CAS}*%
%TO.N,/~{CASH}*%
X155470000Y-94170000D03*
%TO.P,U13,16,VSS*%
%TO.N,GND*%
X152930000Y-94170000D03*
%TD*%
D14*
%TO.P,U11,1,A8*%
%TO.N,/MA8*%
X102130000Y-101790000D03*
D13*
%TO.P,U11,2,D*%
%TO.N,/MD13*%
X104670000Y-101790000D03*
%TO.P,U11,3,~{WE}*%
%TO.N,/~{WE34}*%
X107210000Y-101790000D03*
%TO.P,U11,4,~{RAS}*%
%TO.N,/~{RAS4}*%
X109750000Y-101790000D03*
%TO.P,U11,5,A0*%
%TO.N,/MA0*%
X112290000Y-101790000D03*
%TO.P,U11,6,A2*%
%TO.N,/MA2*%
X114830000Y-101790000D03*
%TO.P,U11,7,A1*%
%TO.N,/MA1*%
X117370000Y-101790000D03*
%TO.P,U11,8,VCC*%
%TO.N,VCC*%
X119910000Y-101790000D03*
%TO.P,U11,9,A7*%
%TO.N,/MA7*%
X119910000Y-94170000D03*
%TO.P,U11,10,A5*%
%TO.N,/MA5*%
X117370000Y-94170000D03*
%TO.P,U11,11,A4*%
%TO.N,/MA4*%
X114830000Y-94170000D03*
%TO.P,U11,12,A3*%
%TO.N,/MA3*%
X112290000Y-94170000D03*
%TO.P,U11,13,A6*%
%TO.N,/MA6*%
X109750000Y-94170000D03*
%TO.P,U11,14,Q*%
%TO.N,/MD13*%
X107210000Y-94170000D03*
%TO.P,U11,15,~{CAS}*%
%TO.N,/~{CASH}*%
X104670000Y-94170000D03*
%TO.P,U11,16,VSS*%
%TO.N,GND*%
X102130000Y-94170000D03*
%TD*%
D14*
%TO.P,U8,1,A8*%
%TO.N,/MA8*%
X234210000Y-89090000D03*
D13*
%TO.P,U8,2,D*%
%TO.N,/MD9*%
X236750000Y-89090000D03*
%TO.P,U8,3,~{WE}*%
%TO.N,/~{WE2}*%
X239290000Y-89090000D03*
%TO.P,U8,4,~{RAS}*%
%TO.N,/~{RAS2}*%
X241830000Y-89090000D03*
%TO.P,U8,5,A0*%
%TO.N,/MA0*%
X244370000Y-89090000D03*
%TO.P,U8,6,A2*%
%TO.N,/MA2*%
X246910000Y-89090000D03*
%TO.P,U8,7,A1*%
%TO.N,/MA1*%
X249450000Y-89090000D03*
%TO.P,U8,8,VCC*%
%TO.N,VCC*%
X251990000Y-89090000D03*
%TO.P,U8,9,A7*%
%TO.N,/MA7*%
X251990000Y-81470000D03*
%TO.P,U8,10,A5*%
%TO.N,/MA5*%
X249450000Y-81470000D03*
%TO.P,U8,11,A4*%
%TO.N,/MA4*%
X246910000Y-81470000D03*
%TO.P,U8,12,A3*%
%TO.N,/MA3*%
X244370000Y-81470000D03*
%TO.P,U8,13,A6*%
%TO.N,/MA6*%
X241830000Y-81470000D03*
%TO.P,U8,14,Q*%
%TO.N,/MD9*%
X239290000Y-81470000D03*
%TO.P,U8,15,~{CAS}*%
%TO.N,/~{CASH}*%
X236750000Y-81470000D03*
%TO.P,U8,16,VSS*%
%TO.N,GND*%
X234210000Y-81470000D03*
%TD*%
D14*
%TO.P,U6,1,A8*%
%TO.N,/MA8*%
X178330000Y-89090000D03*
D13*
%TO.P,U6,2,D*%
%TO.N,/MD10*%
X180870000Y-89090000D03*
%TO.P,U6,3,~{WE}*%
%TO.N,/~{WE34}*%
X183410000Y-89090000D03*
%TO.P,U6,4,~{RAS}*%
%TO.N,/~{RAS3}*%
X185950000Y-89090000D03*
%TO.P,U6,5,A0*%
%TO.N,/MA0*%
X188490000Y-89090000D03*
%TO.P,U6,6,A2*%
%TO.N,/MA2*%
X191030000Y-89090000D03*
%TO.P,U6,7,A1*%
%TO.N,/MA1*%
X193570000Y-89090000D03*
%TO.P,U6,8,VCC*%
%TO.N,VCC*%
X196110000Y-89090000D03*
%TO.P,U6,9,A7*%
%TO.N,/MA7*%
X196110000Y-81470000D03*
%TO.P,U6,10,A5*%
%TO.N,/MA5*%
X193570000Y-81470000D03*
%TO.P,U6,11,A4*%
%TO.N,/MA4*%
X191030000Y-81470000D03*
%TO.P,U6,12,A3*%
%TO.N,/MA3*%
X188490000Y-81470000D03*
%TO.P,U6,13,A6*%
%TO.N,/MA6*%
X185950000Y-81470000D03*
%TO.P,U6,14,Q*%
%TO.N,/MD10*%
X183410000Y-81470000D03*
%TO.P,U6,15,~{CAS}*%
%TO.N,/~{CASH}*%
X180870000Y-81470000D03*
%TO.P,U6,16,VSS*%
%TO.N,GND*%
X178330000Y-81470000D03*
%TD*%
D14*
%TO.P,U36,1,A8*%
%TO.N,/MA8*%
X127530000Y-144970000D03*
D13*
%TO.P,U36,2,D*%
%TO.N,/MD3*%
X130070000Y-144970000D03*
%TO.P,U36,3,~{WE}*%
%TO.N,/~{WE34}*%
X132610000Y-144970000D03*
%TO.P,U36,4,~{RAS}*%
%TO.N,/~{RAS3}*%
X135150000Y-144970000D03*
%TO.P,U36,5,A0*%
%TO.N,/MA0*%
X137690000Y-144970000D03*
%TO.P,U36,6,A2*%
%TO.N,/MA2*%
X140230000Y-144970000D03*
%TO.P,U36,7,A1*%
%TO.N,/MA1*%
X142770000Y-144970000D03*
%TO.P,U36,8,VCC*%
%TO.N,VCC*%
X145310000Y-144970000D03*
%TO.P,U36,9,A7*%
%TO.N,/MA7*%
X145310000Y-137350000D03*
%TO.P,U36,10,A5*%
%TO.N,/MA5*%
X142770000Y-137350000D03*
%TO.P,U36,11,A4*%
%TO.N,/MA4*%
X140230000Y-137350000D03*
%TO.P,U36,12,A3*%
%TO.N,/MA3*%
X137690000Y-137350000D03*
%TO.P,U36,13,A6*%
%TO.N,/MA6*%
X135150000Y-137350000D03*
%TO.P,U36,14,Q*%
%TO.N,/MD3*%
X132610000Y-137350000D03*
%TO.P,U36,15,~{CAS}*%
%TO.N,/~{CASL}*%
X130070000Y-137350000D03*
%TO.P,U36,16,VSS*%
%TO.N,GND*%
X127530000Y-137350000D03*
%TD*%
D14*
%TO.P,C32,1*%
%TO.N,VCC*%
X46250000Y-114627349D03*
D12*
%TO.P,C32,2*%
%TO.N,GND*%
X46250000Y-119627349D03*
%TD*%
D14*
%TO.P,U21,1,A8*%
%TO.N,/MA8*%
X152930000Y-114490000D03*
D13*
%TO.P,U21,2,D*%
%TO.N,/MD14*%
X155470000Y-114490000D03*
%TO.P,U21,3,~{WE}*%
%TO.N,/~{WE34}*%
X158010000Y-114490000D03*
%TO.P,U21,4,~{RAS}*%
%TO.N,/~{RAS3}*%
X160550000Y-114490000D03*
%TO.P,U21,5,A0*%
%TO.N,/MA0*%
X163090000Y-114490000D03*
%TO.P,U21,6,A2*%
%TO.N,/MA2*%
X165630000Y-114490000D03*
%TO.P,U21,7,A1*%
%TO.N,/MA1*%
X168170000Y-114490000D03*
%TO.P,U21,8,VCC*%
%TO.N,VCC*%
X170710000Y-114490000D03*
%TO.P,U21,9,A7*%
%TO.N,/MA7*%
X170710000Y-106870000D03*
%TO.P,U21,10,A5*%
%TO.N,/MA5*%
X168170000Y-106870000D03*
%TO.P,U21,11,A4*%
%TO.N,/MA4*%
X165630000Y-106870000D03*
%TO.P,U21,12,A3*%
%TO.N,/MA3*%
X163090000Y-106870000D03*
%TO.P,U21,13,A6*%
%TO.N,/MA6*%
X160550000Y-106870000D03*
%TO.P,U21,14,Q*%
%TO.N,/MD14*%
X158010000Y-106870000D03*
%TO.P,U21,15,~{CAS}*%
%TO.N,/~{CASH}*%
X155470000Y-106870000D03*
%TO.P,U21,16,VSS*%
%TO.N,GND*%
X152930000Y-106870000D03*
%TD*%
D14*
%TO.P,U24,1,A8*%
%TO.N,/MA8*%
X234210000Y-114490000D03*
D13*
%TO.P,U24,2,D*%
%TO.N,/MD14*%
X236750000Y-114490000D03*
%TO.P,U24,3,~{WE}*%
%TO.N,/~{WE2}*%
X239290000Y-114490000D03*
%TO.P,U24,4,~{RAS}*%
%TO.N,/~{RAS2}*%
X241830000Y-114490000D03*
%TO.P,U24,5,A0*%
%TO.N,/MA0*%
X244370000Y-114490000D03*
%TO.P,U24,6,A2*%
%TO.N,/MA2*%
X246910000Y-114490000D03*
%TO.P,U24,7,A1*%
%TO.N,/MA1*%
X249450000Y-114490000D03*
%TO.P,U24,8,VCC*%
%TO.N,VCC*%
X251990000Y-114490000D03*
%TO.P,U24,9,A7*%
%TO.N,/MA7*%
X251990000Y-106870000D03*
%TO.P,U24,10,A5*%
%TO.N,/MA5*%
X249450000Y-106870000D03*
%TO.P,U24,11,A4*%
%TO.N,/MA4*%
X246910000Y-106870000D03*
%TO.P,U24,12,A3*%
%TO.N,/MA3*%
X244370000Y-106870000D03*
%TO.P,U24,13,A6*%
%TO.N,/MA6*%
X241830000Y-106870000D03*
%TO.P,U24,14,Q*%
%TO.N,/MD14*%
X239290000Y-106870000D03*
%TO.P,U24,15,~{CAS}*%
%TO.N,/~{CASH}*%
X236750000Y-106870000D03*
%TO.P,U24,16,VSS*%
%TO.N,GND*%
X234210000Y-106870000D03*
%TD*%
D14*
%TO.P,U28,1,A8*%
%TO.N,/MA8*%
X127530000Y-132270000D03*
D13*
%TO.P,U28,2,D*%
%TO.N,/MD0*%
X130070000Y-132270000D03*
%TO.P,U28,3,~{WE}*%
%TO.N,/~{WE34}*%
X132610000Y-132270000D03*
%TO.P,U28,4,~{RAS}*%
%TO.N,/~{RAS3}*%
X135150000Y-132270000D03*
%TO.P,U28,5,A0*%
%TO.N,/MA0*%
X137690000Y-132270000D03*
%TO.P,U28,6,A2*%
%TO.N,/MA2*%
X140230000Y-132270000D03*
%TO.P,U28,7,A1*%
%TO.N,/MA1*%
X142770000Y-132270000D03*
%TO.P,U28,8,VCC*%
%TO.N,VCC*%
X145310000Y-132270000D03*
%TO.P,U28,9,A7*%
%TO.N,/MA7*%
X145310000Y-124650000D03*
%TO.P,U28,10,A5*%
%TO.N,/MA5*%
X142770000Y-124650000D03*
%TO.P,U28,11,A4*%
%TO.N,/MA4*%
X140230000Y-124650000D03*
%TO.P,U28,12,A3*%
%TO.N,/MA3*%
X137690000Y-124650000D03*
%TO.P,U28,13,A6*%
%TO.N,/MA6*%
X135150000Y-124650000D03*
%TO.P,U28,14,Q*%
%TO.N,/MD0*%
X132610000Y-124650000D03*
%TO.P,U28,15,~{CAS}*%
%TO.N,/~{CASL}*%
X130070000Y-124650000D03*
%TO.P,U28,16,VSS*%
%TO.N,GND*%
X127530000Y-124650000D03*
%TD*%
D15*
%TO.P,P300,*%
%TO.N,*%
X345970000Y-159575000D03*
X269770000Y-159575000D03*
D16*
%TO.P,P300,a1,Pin_a1*%
%TO.N,GND*%
X339620000Y-160845000D03*
D17*
%TO.P,P300,a2,Pin_a2*%
%TO.N,VCC*%
X337080000Y-160845000D03*
%TO.P,P300,a3,Pin_a3*%
%TO.N,unconnected-(P300-Pin_a3-Pada3)*%
X334540000Y-160845000D03*
%TO.P,P300,a4,Pin_a4*%
%TO.N,/~{WE34}*%
X332000000Y-160845000D03*
%TO.P,P300,a5,Pin_a5*%
%TO.N,GND*%
X329460000Y-160845000D03*
%TO.P,P300,a6,Pin_a6*%
%TO.N,/~{MEM_DIR}*%
X326920000Y-160845000D03*
%TO.P,P300,a7,Pin_a7*%
%TO.N,/A6*%
X324380000Y-160845000D03*
%TO.P,P300,a8,Pin_a8*%
%TO.N,/A8*%
X321840000Y-160845000D03*
%TO.P,P300,a9,Pin_a9*%
%TO.N,/A0*%
X319300000Y-160845000D03*
%TO.P,P300,a10,Pin_a10*%
%TO.N,/A2*%
X316760000Y-160845000D03*
%TO.P,P300,a11,Pin_a11*%
%TO.N,/A1*%
X314220000Y-160845000D03*
%TO.P,P300,a12,Pin_a12*%
%TO.N,/MDPIN1*%
X311680000Y-160845000D03*
%TO.P,P300,a13,Pin_a13*%
%TO.N,/MDPIN0*%
X309140000Y-160845000D03*
%TO.P,P300,a14,Pin_a14*%
%TO.N,/~{CASH}*%
X306600000Y-160845000D03*
%TO.P,P300,a15,Pin_a15*%
%TO.N,/~{CASL}*%
X304060000Y-160845000D03*
%TO.P,P300,a16,Pin_a16*%
%TO.N,/~{RAS4}*%
X301520000Y-160845000D03*
%TO.P,P300,a17,Pin_a17*%
%TO.N,/D7*%
X298980000Y-160845000D03*
%TO.P,P300,a18,Pin_a18*%
%TO.N,/D6*%
X296440000Y-160845000D03*
%TO.P,P300,a19,Pin_a19*%
%TO.N,/D5*%
X293900000Y-160845000D03*
%TO.P,P300,a20,Pin_a20*%
%TO.N,/D4*%
X291360000Y-160845000D03*
%TO.P,P300,a21,Pin_a21*%
%TO.N,/D3*%
X288820000Y-160845000D03*
%TO.P,P300,a22,Pin_a22*%
%TO.N,/D2*%
X286280000Y-160845000D03*
%TO.P,P300,a23,Pin_a23*%
%TO.N,/D1*%
X283740000Y-160845000D03*
%TO.P,P300,a24,Pin_a24*%
%TO.N,/D0*%
X281200000Y-160845000D03*
%TO.P,P300,a25,Pin_a25*%
%TO.N,VCC*%
X278660000Y-160845000D03*
%TO.P,P300,a26,Pin_a26*%
%TO.N,GND*%
X276120000Y-160845000D03*
D16*
%TO.P,P300,b1,Pin_b1*%
X339620000Y-158305000D03*
D17*
%TO.P,P300,b2,Pin_b2*%
%TO.N,VCC*%
X337080000Y-158305000D03*
%TO.P,P300,b3,Pin_b3*%
%TO.N,unconnected-(P300-Pin_b3-Padb3)*%
X334540000Y-158305000D03*
%TO.P,P300,b4,Pin_b4*%
%TO.N,unconnected-(P300-Pin_b4-Padb4)*%
X332000000Y-158305000D03*
%TO.P,P300,b5,Pin_b5*%
%TO.N,/+RAS*%
X329460000Y-158305000D03*
%TO.P,P300,b6,Pin_b6*%
%TO.N,/XB*%
X326920000Y-158305000D03*
%TO.P,P300,b7,Pin_b7*%
%TO.N,/~{WE2}*%
X324380000Y-158305000D03*
%TO.P,P300,b8,Pin_b8*%
%TO.N,/A3*%
X321840000Y-158305000D03*
%TO.P,P300,b9,Pin_b9*%
%TO.N,/A4*%
X319300000Y-158305000D03*
%TO.P,P300,b10,Pin_b10*%
%TO.N,/A5*%
X316760000Y-158305000D03*
%TO.P,P300,b11,Pin_b11*%
%TO.N,/A7*%
X314220000Y-158305000D03*
%TO.P,P300,b12,Pin_b12*%
%TO.N,/MDPOUT1*%
X311680000Y-158305000D03*
%TO.P,P300,b13,Pin_b13*%
%TO.N,/MDPOUT0*%
X309140000Y-158305000D03*
%TO.P,P300,b14,Pin_b14*%
%TO.N,/D15*%
X306600000Y-158305000D03*
%TO.P,P300,b15,Pin_b15*%
%TO.N,/D14*%
X304060000Y-158305000D03*
%TO.P,P300,b16,Pin_b16*%
%TO.N,/D13*%
X301520000Y-158305000D03*
%TO.P,P300,b17,Pin_b17*%
%TO.N,/D12*%
X298980000Y-158305000D03*
%TO.P,P300,b18,Pin_b18*%
%TO.N,/D11*%
X296440000Y-158305000D03*
%TO.P,P300,b19,Pin_b19*%
%TO.N,/D10*%
X293900000Y-158305000D03*
%TO.P,P300,b20,Pin_b20*%
%TO.N,/D9*%
X291360000Y-158305000D03*
%TO.P,P300,b21,Pin_b21*%
%TO.N,/D8*%
X288820000Y-158305000D03*
%TO.P,P300,b22,Pin_b22*%
%TO.N,/~{RAS3}*%
X286280000Y-158305000D03*
%TO.P,P300,b23,Pin_b23*%
%TO.N,/~{RAS2}*%
X283740000Y-158305000D03*
%TO.P,P300,b24,Pin_b24*%
%TO.N,/XA*%
X281200000Y-158305000D03*
%TO.P,P300,b25,Pin_b25*%
%TO.N,VCC*%
X278660000Y-158305000D03*
%TO.P,P300,b26,Pin_b26*%
%TO.N,GND*%
X276120000Y-158305000D03*
%TD*%
D14*
%TO.P,C36,1*%
%TO.N,VCC*%
X149120000Y-114627349D03*
D12*
%TO.P,C36,2*%
%TO.N,GND*%
X149120000Y-119627349D03*
%TD*%
D14*
%TO.P,U14,1,A8*%
%TO.N,/MA8*%
X178330000Y-101790000D03*
D13*
%TO.P,U14,2,D*%
%TO.N,/MD13*%
X180870000Y-101790000D03*
%TO.P,U14,3,~{WE}*%
%TO.N,/~{WE34}*%
X183410000Y-101790000D03*
%TO.P,U14,4,~{RAS}*%
%TO.N,/~{RAS3}*%
X185950000Y-101790000D03*
%TO.P,U14,5,A0*%
%TO.N,/MA0*%
X188490000Y-101790000D03*
%TO.P,U14,6,A2*%
%TO.N,/MA2*%
X191030000Y-101790000D03*
%TO.P,U14,7,A1*%
%TO.N,/MA1*%
X193570000Y-101790000D03*
%TO.P,U14,8,VCC*%
%TO.N,VCC*%
X196110000Y-101790000D03*
%TO.P,U14,9,A7*%
%TO.N,/MA7*%
X196110000Y-94170000D03*
%TO.P,U14,10,A5*%
%TO.N,/MA5*%
X193570000Y-94170000D03*
%TO.P,U14,11,A4*%
%TO.N,/MA4*%
X191030000Y-94170000D03*
%TO.P,U14,12,A3*%
%TO.N,/MA3*%
X188490000Y-94170000D03*
%TO.P,U14,13,A6*%
%TO.N,/MA6*%
X185950000Y-94170000D03*
%TO.P,U14,14,Q*%
%TO.N,/MD13*%
X183410000Y-94170000D03*
%TO.P,U14,15,~{CAS}*%
%TO.N,/~{CASH}*%
X180870000Y-94170000D03*
%TO.P,U14,16,VSS*%
%TO.N,GND*%
X178330000Y-94170000D03*
%TD*%
D14*
%TO.P,U45,1,A8*%
%TO.N,/MA8*%
X152930000Y-157670000D03*
D13*
%TO.P,U45,2,D*%
%TO.N,/MD6*%
X155470000Y-157670000D03*
%TO.P,U45,3,~{WE}*%
%TO.N,/~{WE34}*%
X158010000Y-157670000D03*
%TO.P,U45,4,~{RAS}*%
%TO.N,/~{RAS3}*%
X160550000Y-157670000D03*
%TO.P,U45,5,A0*%
%TO.N,/MA0*%
X163090000Y-157670000D03*
%TO.P,U45,6,A2*%
%TO.N,/MA2*%
X165630000Y-157670000D03*
%TO.P,U45,7,A1*%
%TO.N,/MA1*%
X168170000Y-157670000D03*
%TO.P,U45,8,VCC*%
%TO.N,VCC*%
X170710000Y-157670000D03*
%TO.P,U45,9,A7*%
%TO.N,/MA7*%
X170710000Y-150050000D03*
%TO.P,U45,10,A5*%
%TO.N,/MA5*%
X168170000Y-150050000D03*
%TO.P,U45,11,A4*%
%TO.N,/MA4*%
X165630000Y-150050000D03*
%TO.P,U45,12,A3*%
%TO.N,/MA3*%
X163090000Y-150050000D03*
%TO.P,U45,13,A6*%
%TO.N,/MA6*%
X160550000Y-150050000D03*
%TO.P,U45,14,Q*%
%TO.N,/MD6*%
X158010000Y-150050000D03*
%TO.P,U45,15,~{CAS}*%
%TO.N,/~{CASL}*%
X155470000Y-150050000D03*
%TO.P,U45,16,VSS*%
%TO.N,GND*%
X152930000Y-150050000D03*
%TD*%
D14*
%TO.P,U40,1,A8*%
%TO.N,/MA8*%
X239290000Y-144970000D03*
D13*
%TO.P,U40,2,D*%
%TO.N,/MD4*%
X241830000Y-144970000D03*
%TO.P,U40,3,~{WE}*%
%TO.N,/~{WE2}*%
X244370000Y-144970000D03*
%TO.P,U40,4,~{RAS}*%
%TO.N,/~{RAS2}*%
X246910000Y-144970000D03*
%TO.P,U40,5,A0*%
%TO.N,/MA0*%
X249450000Y-144970000D03*
%TO.P,U40,6,A2*%
%TO.N,/MA2*%
X251990000Y-144970000D03*
%TO.P,U40,7,A1*%
%TO.N,/MA1*%
X254530000Y-144970000D03*
%TO.P,U40,8,VCC*%
%TO.N,VCC*%
X257070000Y-144970000D03*
%TO.P,U40,9,A7*%
%TO.N,/MA7*%
X257070000Y-137350000D03*
%TO.P,U40,10,A5*%
%TO.N,/MA5*%
X254530000Y-137350000D03*
%TO.P,U40,11,A4*%
%TO.N,/MA4*%
X251990000Y-137350000D03*
%TO.P,U40,12,A3*%
%TO.N,/MA3*%
X249450000Y-137350000D03*
%TO.P,U40,13,A6*%
%TO.N,/MA6*%
X246910000Y-137350000D03*
%TO.P,U40,14,Q*%
%TO.N,/MD4*%
X244370000Y-137350000D03*
%TO.P,U40,15,~{CAS}*%
%TO.N,/~{CASL}*%
X241830000Y-137350000D03*
%TO.P,U40,16,VSS*%
%TO.N,GND*%
X239290000Y-137350000D03*
%TD*%
D14*
%TO.P,U51,1,A8*%
%TO.N,/MA8*%
X329460000Y-114490000D03*
D13*
%TO.P,U51,2,D*%
%TO.N,/MD10*%
X332000000Y-114490000D03*
%TO.P,U51,3,~{WE}*%
%TO.N,/~{WE2}*%
X334540000Y-114490000D03*
%TO.P,U51,4,~{RAS}*%
%TO.N,/~{RAS2}*%
X337080000Y-114490000D03*
%TO.P,U51,5,A0*%
%TO.N,/MA0*%
X339620000Y-114490000D03*
%TO.P,U51,6,A2*%
%TO.N,/MA2*%
X342160000Y-114490000D03*
%TO.P,U51,7,A1*%
%TO.N,/MA1*%
X344700000Y-114490000D03*
%TO.P,U51,8,VCC*%
%TO.N,VCC*%
X347240000Y-114490000D03*
%TO.P,U51,9,A7*%
%TO.N,/MA7*%
X347240000Y-106870000D03*
%TO.P,U51,10,A5*%
%TO.N,/MA5*%
X344700000Y-106870000D03*
%TO.P,U51,11,A4*%
%TO.N,/MA4*%
X342160000Y-106870000D03*
%TO.P,U51,12,A3*%
%TO.N,/MA3*%
X339620000Y-106870000D03*
%TO.P,U51,13,A6*%
%TO.N,/MA6*%
X337080000Y-106870000D03*
%TO.P,U51,14,Q*%
%TO.N,/MD10*%
X334540000Y-106870000D03*
%TO.P,U51,15,~{CAS}*%
%TO.N,/~{CASH}*%
X332000000Y-106870000D03*
%TO.P,U51,16,VSS*%
%TO.N,GND*%
X329460000Y-106870000D03*
%TD*%
D14*
%TO.P,U1,1,A8*%
%TO.N,/MA8*%
X51330000Y-89090000D03*
D13*
%TO.P,U1,2,D*%
%TO.N,/MD8*%
X53870000Y-89090000D03*
%TO.P,U1,3,~{WE}*%
%TO.N,/~{WE34}*%
X56410000Y-89090000D03*
%TO.P,U1,4,~{RAS}*%
%TO.N,/~{RAS4}*%
X58950000Y-89090000D03*
%TO.P,U1,5,A0*%
%TO.N,/MA0*%
X61490000Y-89090000D03*
%TO.P,U1,6,A2*%
%TO.N,/MA2*%
X64030000Y-89090000D03*
%TO.P,U1,7,A1*%
%TO.N,/MA1*%
X66570000Y-89090000D03*
%TO.P,U1,8,VCC*%
%TO.N,VCC*%
X69110000Y-89090000D03*
%TO.P,U1,9,A7*%
%TO.N,/MA7*%
X69110000Y-81470000D03*
%TO.P,U1,10,A5*%
%TO.N,/MA5*%
X66570000Y-81470000D03*
%TO.P,U1,11,A4*%
%TO.N,/MA4*%
X64030000Y-81470000D03*
%TO.P,U1,12,A3*%
%TO.N,/MA3*%
X61490000Y-81470000D03*
%TO.P,U1,13,A6*%
%TO.N,/MA6*%
X58950000Y-81470000D03*
%TO.P,U1,14,Q*%
%TO.N,/MD8*%
X56410000Y-81470000D03*
%TO.P,U1,15,~{CAS}*%
%TO.N,/~{CASH}*%
X53870000Y-81470000D03*
%TO.P,U1,16,VSS*%
%TO.N,GND*%
X51330000Y-81470000D03*
%TD*%
D14*
%TO.P,U49,1,A8*%
%TO.N,/MA8*%
X278660000Y-114490000D03*
D13*
%TO.P,U49,2,D*%
%TO.N,/MD15*%
X281200000Y-114490000D03*
%TO.P,U49,3,~{WE}*%
%TO.N,/~{WE2}*%
X283740000Y-114490000D03*
%TO.P,U49,4,~{RAS}*%
%TO.N,/~{RAS2}*%
X286280000Y-114490000D03*
%TO.P,U49,5,A0*%
%TO.N,/MA0*%
X288820000Y-114490000D03*
%TO.P,U49,6,A2*%
%TO.N,/MA2*%
X291360000Y-114490000D03*
%TO.P,U49,7,A1*%
%TO.N,/MA1*%
X293900000Y-114490000D03*
%TO.P,U49,8,VCC*%
%TO.N,VCC*%
X296440000Y-114490000D03*
%TO.P,U49,9,A7*%
%TO.N,/MA7*%
X296440000Y-106870000D03*
%TO.P,U49,10,A5*%
%TO.N,/MA5*%
X293900000Y-106870000D03*
%TO.P,U49,11,A4*%
%TO.N,/MA4*%
X291360000Y-106870000D03*
%TO.P,U49,12,A3*%
%TO.N,/MA3*%
X288820000Y-106870000D03*
%TO.P,U49,13,A6*%
%TO.N,/MA6*%
X286280000Y-106870000D03*
%TO.P,U49,14,Q*%
%TO.N,/MD15*%
X283740000Y-106870000D03*
%TO.P,U49,15,~{CAS}*%
%TO.N,/~{CASH}*%
X281200000Y-106870000D03*
%TO.P,U49,16,VSS*%
%TO.N,GND*%
X278660000Y-106870000D03*
%TD*%
D14*
%TO.P,U27,1,A8*%
%TO.N,/MA8*%
X102130000Y-132270000D03*
D13*
%TO.P,U27,2,D*%
%TO.N,/MD2*%
X104670000Y-132270000D03*
%TO.P,U27,3,~{WE}*%
%TO.N,/~{WE34}*%
X107210000Y-132270000D03*
%TO.P,U27,4,~{RAS}*%
%TO.N,/~{RAS4}*%
X109750000Y-132270000D03*
%TO.P,U27,5,A0*%
%TO.N,/MA0*%
X112290000Y-132270000D03*
%TO.P,U27,6,A2*%
%TO.N,/MA2*%
X114830000Y-132270000D03*
%TO.P,U27,7,A1*%
%TO.N,/MA1*%
X117370000Y-132270000D03*
%TO.P,U27,8,VCC*%
%TO.N,VCC*%
X119910000Y-132270000D03*
%TO.P,U27,9,A7*%
%TO.N,/MA7*%
X119910000Y-124650000D03*
%TO.P,U27,10,A5*%
%TO.N,/MA5*%
X117370000Y-124650000D03*
%TO.P,U27,11,A4*%
%TO.N,/MA4*%
X114830000Y-124650000D03*
%TO.P,U27,12,A3*%
%TO.N,/MA3*%
X112290000Y-124650000D03*
%TO.P,U27,13,A6*%
%TO.N,/MA6*%
X109750000Y-124650000D03*
%TO.P,U27,14,Q*%
%TO.N,/MD2*%
X107210000Y-124650000D03*
%TO.P,U27,15,~{CAS}*%
%TO.N,/~{CASL}*%
X104670000Y-124650000D03*
%TO.P,U27,16,VSS*%
%TO.N,GND*%
X102130000Y-124650000D03*
%TD*%
D14*
%TO.P,U12,1,A8*%
%TO.N,/MA8*%
X127530000Y-101790000D03*
D13*
%TO.P,U12,2,D*%
%TO.N,/MD11*%
X130070000Y-101790000D03*
%TO.P,U12,3,~{WE}*%
%TO.N,/~{WE34}*%
X132610000Y-101790000D03*
%TO.P,U12,4,~{RAS}*%
%TO.N,/~{RAS3}*%
X135150000Y-101790000D03*
%TO.P,U12,5,A0*%
%TO.N,/MA0*%
X137690000Y-101790000D03*
%TO.P,U12,6,A2*%
%TO.N,/MA2*%
X140230000Y-101790000D03*
%TO.P,U12,7,A1*%
%TO.N,/MA1*%
X142770000Y-101790000D03*
%TO.P,U12,8,VCC*%
%TO.N,VCC*%
X145310000Y-101790000D03*
%TO.P,U12,9,A7*%
%TO.N,/MA7*%
X145310000Y-94170000D03*
%TO.P,U12,10,A5*%
%TO.N,/MA5*%
X142770000Y-94170000D03*
%TO.P,U12,11,A4*%
%TO.N,/MA4*%
X140230000Y-94170000D03*
%TO.P,U12,12,A3*%
%TO.N,/MA3*%
X137690000Y-94170000D03*
%TO.P,U12,13,A6*%
%TO.N,/MA6*%
X135150000Y-94170000D03*
%TO.P,U12,14,Q*%
%TO.N,/MD11*%
X132610000Y-94170000D03*
%TO.P,U12,15,~{CAS}*%
%TO.N,/~{CASH}*%
X130070000Y-94170000D03*
%TO.P,U12,16,VSS*%
%TO.N,GND*%
X127530000Y-94170000D03*
%TD*%
D14*
%TO.P,U9,1,A8*%
%TO.N,/MA8*%
X51330000Y-101790000D03*
D13*
%TO.P,U9,2,D*%
%TO.N,/MD11*%
X53870000Y-101790000D03*
%TO.P,U9,3,~{WE}*%
%TO.N,/~{WE34}*%
X56410000Y-101790000D03*
%TO.P,U9,4,~{RAS}*%
%TO.N,/~{RAS4}*%
X58950000Y-101790000D03*
%TO.P,U9,5,A0*%
%TO.N,/MA0*%
X61490000Y-101790000D03*
%TO.P,U9,6,A2*%
%TO.N,/MA2*%
X64030000Y-101790000D03*
%TO.P,U9,7,A1*%
%TO.N,/MA1*%
X66570000Y-101790000D03*
%TO.P,U9,8,VCC*%
%TO.N,VCC*%
X69110000Y-101790000D03*
%TO.P,U9,9,A7*%
%TO.N,/MA7*%
X69110000Y-94170000D03*
%TO.P,U9,10,A5*%
%TO.N,/MA5*%
X66570000Y-94170000D03*
%TO.P,U9,11,A4*%
%TO.N,/MA4*%
X64030000Y-94170000D03*
%TO.P,U9,12,A3*%
%TO.N,/MA3*%
X61490000Y-94170000D03*
%TO.P,U9,13,A6*%
%TO.N,/MA6*%
X58950000Y-94170000D03*
%TO.P,U9,14,Q*%
%TO.N,/MD11*%
X56410000Y-94170000D03*
%TO.P,U9,15,~{CAS}*%
%TO.N,/~{CASH}*%
X53870000Y-94170000D03*
%TO.P,U9,16,VSS*%
%TO.N,GND*%
X51330000Y-94170000D03*
%TD*%
D14*
%TO.P,U2,1,A8*%
%TO.N,/MA8*%
X76730000Y-89090000D03*
D13*
%TO.P,U2,2,D*%
%TO.N,/MD9*%
X79270000Y-89090000D03*
%TO.P,U2,3,~{WE}*%
%TO.N,/~{WE34}*%
X81810000Y-89090000D03*
%TO.P,U2,4,~{RAS}*%
%TO.N,/~{RAS4}*%
X84350000Y-89090000D03*
%TO.P,U2,5,A0*%
%TO.N,/MA0*%
X86890000Y-89090000D03*
%TO.P,U2,6,A2*%
%TO.N,/MA2*%
X89430000Y-89090000D03*
%TO.P,U2,7,A1*%
%TO.N,/MA1*%
X91970000Y-89090000D03*
%TO.P,U2,8,VCC*%
%TO.N,VCC*%
X94510000Y-89090000D03*
%TO.P,U2,9,A7*%
%TO.N,/MA7*%
X94510000Y-81470000D03*
%TO.P,U2,10,A5*%
%TO.N,/MA5*%
X91970000Y-81470000D03*
%TO.P,U2,11,A4*%
%TO.N,/MA4*%
X89430000Y-81470000D03*
%TO.P,U2,12,A3*%
%TO.N,/MA3*%
X86890000Y-81470000D03*
%TO.P,U2,13,A6*%
%TO.N,/MA6*%
X84350000Y-81470000D03*
%TO.P,U2,14,Q*%
%TO.N,/MD9*%
X81810000Y-81470000D03*
%TO.P,U2,15,~{CAS}*%
%TO.N,/~{CASH}*%
X79270000Y-81470000D03*
%TO.P,U2,16,VSS*%
%TO.N,GND*%
X76730000Y-81470000D03*
%TD*%
D14*
%TO.P,U41,1,A8*%
%TO.N,/MA8*%
X51330000Y-157670000D03*
D13*
%TO.P,U41,2,D*%
%TO.N,/MDPIN0*%
X53870000Y-157670000D03*
%TO.P,U41,3,~{WE}*%
%TO.N,/~{WE34}*%
X56410000Y-157670000D03*
%TO.P,U41,4,~{RAS}*%
%TO.N,/~{RAS4}*%
X58950000Y-157670000D03*
%TO.P,U41,5,A0*%
%TO.N,/MA0*%
X61490000Y-157670000D03*
%TO.P,U41,6,A2*%
%TO.N,/MA2*%
X64030000Y-157670000D03*
%TO.P,U41,7,A1*%
%TO.N,/MA1*%
X66570000Y-157670000D03*
%TO.P,U41,8,VCC*%
%TO.N,VCC*%
X69110000Y-157670000D03*
%TO.P,U41,9,A7*%
%TO.N,/MA7*%
X69110000Y-150050000D03*
%TO.P,U41,10,A5*%
%TO.N,/MA5*%
X66570000Y-150050000D03*
%TO.P,U41,11,A4*%
%TO.N,/MA4*%
X64030000Y-150050000D03*
%TO.P,U41,12,A3*%
%TO.N,/MA3*%
X61490000Y-150050000D03*
%TO.P,U41,13,A6*%
%TO.N,/MA6*%
X58950000Y-150050000D03*
%TO.P,U41,14,Q*%
%TO.N,/MDPOUT0*%
X56410000Y-150050000D03*
%TO.P,U41,15,~{CAS}*%
%TO.N,/~{CASL}*%
X53870000Y-150050000D03*
%TO.P,U41,16,VSS*%
%TO.N,GND*%
X51330000Y-150050000D03*
%TD*%
D14*
%TO.P,C34,1*%
%TO.N,VCC*%
X98320000Y-114627349D03*
D12*
%TO.P,C34,2*%
%TO.N,GND*%
X98320000Y-119627349D03*
%TD*%
D14*
%TO.P,U53,1,A8*%
%TO.N,/MA8*%
X304060000Y-127190000D03*
D13*
%TO.P,U53,2,D*%
%TO.N,/MD5*%
X306600000Y-127190000D03*
%TO.P,U53,3,~{WE}*%
%TO.N,/~{WE2}*%
X309140000Y-127190000D03*
%TO.P,U53,4,~{RAS}*%
%TO.N,/~{RAS2}*%
X311680000Y-127190000D03*
%TO.P,U53,5,A0*%
%TO.N,/MA0*%
X314220000Y-127190000D03*
%TO.P,U53,6,A2*%
%TO.N,/MA2*%
X316760000Y-127190000D03*
%TO.P,U53,7,A1*%
%TO.N,/MA1*%
X319300000Y-127190000D03*
%TO.P,U53,8,VCC*%
%TO.N,VCC*%
X321840000Y-127190000D03*
%TO.P,U53,9,A7*%
%TO.N,/MA7*%
X321840000Y-119570000D03*
%TO.P,U53,10,A5*%
%TO.N,/MA5*%
X319300000Y-119570000D03*
%TO.P,U53,11,A4*%
%TO.N,/MA4*%
X316760000Y-119570000D03*
%TO.P,U53,12,A3*%
%TO.N,/MA3*%
X314220000Y-119570000D03*
%TO.P,U53,13,A6*%
%TO.N,/MA6*%
X311680000Y-119570000D03*
%TO.P,U53,14,Q*%
%TO.N,/MD5*%
X309140000Y-119570000D03*
%TO.P,U53,15,~{CAS}*%
%TO.N,/~{CASL}*%
X306600000Y-119570000D03*
%TO.P,U53,16,VSS*%
%TO.N,GND*%
X304060000Y-119570000D03*
%TD*%
D14*
%TO.P,U56,1,A->B*%
%TO.N,/~{MEM_DIR}*%
X293900000Y-144970000D03*
D13*
%TO.P,U56,2,A0*%
%TO.N,/D8*%
X296440000Y-144970000D03*
%TO.P,U56,3,A1*%
%TO.N,/D9*%
X298980000Y-144970000D03*
%TO.P,U56,4,A2*%
%TO.N,/D10*%
X301520000Y-144970000D03*
%TO.P,U56,5,A3*%
%TO.N,/D11*%
X304060000Y-144970000D03*
%TO.P,U56,6,A4*%
%TO.N,/D12*%
X306600000Y-144970000D03*
%TO.P,U56,7,A5*%
%TO.N,/D13*%
X309140000Y-144970000D03*
%TO.P,U56,8,A6*%
%TO.N,/D14*%
X311680000Y-144970000D03*
%TO.P,U56,9,A7*%
%TO.N,/D15*%
X314220000Y-144970000D03*
%TO.P,U56,10,GND*%
%TO.N,GND*%
X316760000Y-144970000D03*
%TO.P,U56,11,B7*%
%TO.N,/MD15*%
X316760000Y-137350000D03*
%TO.P,U56,12,B6*%
%TO.N,/MD14*%
X314220000Y-137350000D03*
%TO.P,U56,13,B5*%
%TO.N,/MD13*%
X311680000Y-137350000D03*
%TO.P,U56,14,B4*%
%TO.N,/MD12*%
X309140000Y-137350000D03*
%TO.P,U56,15,B3*%
%TO.N,/MD11*%
X306600000Y-137350000D03*
%TO.P,U56,16,B2*%
%TO.N,/MD10*%
X304060000Y-137350000D03*
%TO.P,U56,17,B1*%
%TO.N,/MD9*%
X301520000Y-137350000D03*
%TO.P,U56,18,B0*%
%TO.N,/MD8*%
X298980000Y-137350000D03*
%TO.P,U56,19,CE*%
%TO.N,Net-(U56-CE)*%
X296440000Y-137350000D03*
%TO.P,U56,20,VCC*%
%TO.N,VCC*%
X293900000Y-137350000D03*
%TD*%
D14*
%TO.P,C37,1*%
%TO.N,VCC*%
X174520000Y-119707349D03*
D12*
%TO.P,C37,2*%
%TO.N,GND*%
X174520000Y-124707349D03*
%TD*%
D14*
%TO.P,U52,1,A8*%
%TO.N,/MA8*%
X278660000Y-127190000D03*
D13*
%TO.P,U52,2,D*%
%TO.N,/MD7*%
X281200000Y-127190000D03*
%TO.P,U52,3,~{WE}*%
%TO.N,/~{WE2}*%
X283740000Y-127190000D03*
%TO.P,U52,4,~{RAS}*%
%TO.N,/~{RAS2}*%
X286280000Y-127190000D03*
%TO.P,U52,5,A0*%
%TO.N,/MA0*%
X288820000Y-127190000D03*
%TO.P,U52,6,A2*%
%TO.N,/MA2*%
X291360000Y-127190000D03*
%TO.P,U52,7,A1*%
%TO.N,/MA1*%
X293900000Y-127190000D03*
%TO.P,U52,8,VCC*%
%TO.N,VCC*%
X296440000Y-127190000D03*
%TO.P,U52,9,A7*%
%TO.N,/MA7*%
X296440000Y-119570000D03*
%TO.P,U52,10,A5*%
%TO.N,/MA5*%
X293900000Y-119570000D03*
%TO.P,U52,11,A4*%
%TO.N,/MA4*%
X291360000Y-119570000D03*
%TO.P,U52,12,A3*%
%TO.N,/MA3*%
X288820000Y-119570000D03*
%TO.P,U52,13,A6*%
%TO.N,/MA6*%
X286280000Y-119570000D03*
%TO.P,U52,14,Q*%
%TO.N,/MD7*%
X283740000Y-119570000D03*
%TO.P,U52,15,~{CAS}*%
%TO.N,/~{CASL}*%
X281200000Y-119570000D03*
%TO.P,U52,16,VSS*%
%TO.N,GND*%
X278660000Y-119570000D03*
%TD*%
D12*
%TO.P,R1,1*%
%TO.N,GND*%
X40535000Y-127190000D03*
D13*
%TO.P,R1,2*%
%TO.N,/MA8*%
X40535000Y-114490000D03*
%TD*%
D12*
%TO.P,R9,1*%
%TO.N,/MDPOUT0*%
X37360000Y-146875000D03*
D13*
%TO.P,R9,2*%
%TO.N,VCC*%
X37360000Y-134175000D03*
%TD*%
D14*
%TO.P,U26,1,A8*%
%TO.N,/MA8*%
X76730000Y-132270000D03*
D13*
%TO.P,U26,2,D*%
%TO.N,/MD1*%
X79270000Y-132270000D03*
%TO.P,U26,3,~{WE}*%
%TO.N,/~{WE34}*%
X81810000Y-132270000D03*
%TO.P,U26,4,~{RAS}*%
%TO.N,/~{RAS4}*%
X84350000Y-132270000D03*
%TO.P,U26,5,A0*%
%TO.N,/MA0*%
X86890000Y-132270000D03*
%TO.P,U26,6,A2*%
%TO.N,/MA2*%
X89430000Y-132270000D03*
%TO.P,U26,7,A1*%
%TO.N,/MA1*%
X91970000Y-132270000D03*
%TO.P,U26,8,VCC*%
%TO.N,VCC*%
X94510000Y-132270000D03*
%TO.P,U26,9,A7*%
%TO.N,/MA7*%
X94510000Y-124650000D03*
%TO.P,U26,10,A5*%
%TO.N,/MA5*%
X91970000Y-124650000D03*
%TO.P,U26,11,A4*%
%TO.N,/MA4*%
X89430000Y-124650000D03*
%TO.P,U26,12,A3*%
%TO.N,/MA3*%
X86890000Y-124650000D03*
%TO.P,U26,13,A6*%
%TO.N,/MA6*%
X84350000Y-124650000D03*
%TO.P,U26,14,Q*%
%TO.N,/MD1*%
X81810000Y-124650000D03*
%TO.P,U26,15,~{CAS}*%
%TO.N,/~{CASL}*%
X79270000Y-124650000D03*
%TO.P,U26,16,VSS*%
%TO.N,GND*%
X76730000Y-124650000D03*
%TD*%
D14*
%TO.P,U43,1,A8*%
%TO.N,/MA8*%
X102130000Y-157670000D03*
D13*
%TO.P,U43,2,D*%
%TO.N,/MD7*%
X104670000Y-157670000D03*
%TO.P,U43,3,~{WE}*%
%TO.N,/~{WE34}*%
X107210000Y-157670000D03*
%TO.P,U43,4,~{RAS}*%
%TO.N,/~{RAS4}*%
X109750000Y-157670000D03*
%TO.P,U43,5,A0*%
%TO.N,/MA0*%
X112290000Y-157670000D03*
%TO.P,U43,6,A2*%
%TO.N,/MA2*%
X114830000Y-157670000D03*
%TO.P,U43,7,A1*%
%TO.N,/MA1*%
X117370000Y-157670000D03*
%TO.P,U43,8,VCC*%
%TO.N,VCC*%
X119910000Y-157670000D03*
%TO.P,U43,9,A7*%
%TO.N,/MA7*%
X119910000Y-150050000D03*
%TO.P,U43,10,A5*%
%TO.N,/MA5*%
X117370000Y-150050000D03*
%TO.P,U43,11,A4*%
%TO.N,/MA4*%
X114830000Y-150050000D03*
%TO.P,U43,12,A3*%
%TO.N,/MA3*%
X112290000Y-150050000D03*
%TO.P,U43,13,A6*%
%TO.N,/MA6*%
X109750000Y-150050000D03*
%TO.P,U43,14,Q*%
%TO.N,/MD7*%
X107210000Y-150050000D03*
%TO.P,U43,15,~{CAS}*%
%TO.N,/~{CASL}*%
X104670000Y-150050000D03*
%TO.P,U43,16,VSS*%
%TO.N,GND*%
X102130000Y-150050000D03*
%TD*%
D14*
%TO.P,U33,1,A8*%
%TO.N,/MA8*%
X51330000Y-144970000D03*
D13*
%TO.P,U33,2,D*%
%TO.N,/MD3*%
X53870000Y-144970000D03*
%TO.P,U33,3,~{WE}*%
%TO.N,/~{WE34}*%
X56410000Y-144970000D03*
%TO.P,U33,4,~{RAS}*%
%TO.N,/~{RAS4}*%
X58950000Y-144970000D03*
%TO.P,U33,5,A0*%
%TO.N,/MA0*%
X61490000Y-144970000D03*
%TO.P,U33,6,A2*%
%TO.N,/MA2*%
X64030000Y-144970000D03*
%TO.P,U33,7,A1*%
%TO.N,/MA1*%
X66570000Y-144970000D03*
%TO.P,U33,8,VCC*%
%TO.N,VCC*%
X69110000Y-144970000D03*
%TO.P,U33,9,A7*%
%TO.N,/MA7*%
X69110000Y-137350000D03*
%TO.P,U33,10,A5*%
%TO.N,/MA5*%
X66570000Y-137350000D03*
%TO.P,U33,11,A4*%
%TO.N,/MA4*%
X64030000Y-137350000D03*
%TO.P,U33,12,A3*%
%TO.N,/MA3*%
X61490000Y-137350000D03*
%TO.P,U33,13,A6*%
%TO.N,/MA6*%
X58950000Y-137350000D03*
%TO.P,U33,14,Q*%
%TO.N,/MD3*%
X56410000Y-137350000D03*
%TO.P,U33,15,~{CAS}*%
%TO.N,/~{CASL}*%
X53870000Y-137350000D03*
%TO.P,U33,16,VSS*%
%TO.N,GND*%
X51330000Y-137350000D03*
%TD*%
D12*
%TO.P,R3,1*%
%TO.N,Net-(U57-OEa)*%
X357400000Y-132270000D03*
D13*
%TO.P,R3,2*%
%TO.N,GND*%
X357400000Y-119570000D03*
%TD*%
D14*
%TO.P,U22,1,A8*%
%TO.N,/MA8*%
X178330000Y-114490000D03*
D13*
%TO.P,U22,2,D*%
%TO.N,/MD15*%
X180870000Y-114490000D03*
%TO.P,U22,3,~{WE}*%
%TO.N,/~{WE34}*%
X183410000Y-114490000D03*
%TO.P,U22,4,~{RAS}*%
%TO.N,/~{RAS3}*%
X185950000Y-114490000D03*
%TO.P,U22,5,A0*%
%TO.N,/MA0*%
X188490000Y-114490000D03*
%TO.P,U22,6,A2*%
%TO.N,/MA2*%
X191030000Y-114490000D03*
%TO.P,U22,7,A1*%
%TO.N,/MA1*%
X193570000Y-114490000D03*
%TO.P,U22,8,VCC*%
%TO.N,VCC*%
X196110000Y-114490000D03*
%TO.P,U22,9,A7*%
%TO.N,/MA7*%
X196110000Y-106870000D03*
%TO.P,U22,10,A5*%
%TO.N,/MA5*%
X193570000Y-106870000D03*
%TO.P,U22,11,A4*%
%TO.N,/MA4*%
X191030000Y-106870000D03*
%TO.P,U22,12,A3*%
%TO.N,/MA3*%
X188490000Y-106870000D03*
%TO.P,U22,13,A6*%
%TO.N,/MA6*%
X185950000Y-106870000D03*
%TO.P,U22,14,Q*%
%TO.N,/MD15*%
X183410000Y-106870000D03*
%TO.P,U22,15,~{CAS}*%
%TO.N,/~{CASH}*%
X180870000Y-106870000D03*
%TO.P,U22,16,VSS*%
%TO.N,GND*%
X178330000Y-106870000D03*
%TD*%
D14*
%TO.P,U44,1,A8*%
%TO.N,/MA8*%
X127530000Y-157670000D03*
D13*
%TO.P,U44,2,D*%
%TO.N,/MDPIN0*%
X130070000Y-157670000D03*
%TO.P,U44,3,~{WE}*%
%TO.N,/~{WE34}*%
X132610000Y-157670000D03*
%TO.P,U44,4,~{RAS}*%
%TO.N,/~{RAS3}*%
X135150000Y-157670000D03*
%TO.P,U44,5,A0*%
%TO.N,/MA0*%
X137690000Y-157670000D03*
%TO.P,U44,6,A2*%
%TO.N,/MA2*%
X140230000Y-157670000D03*
%TO.P,U44,7,A1*%
%TO.N,/MA1*%
X142770000Y-157670000D03*
%TO.P,U44,8,VCC*%
%TO.N,VCC*%
X145310000Y-157670000D03*
%TO.P,U44,9,A7*%
%TO.N,/MA7*%
X145310000Y-150050000D03*
%TO.P,U44,10,A5*%
%TO.N,/MA5*%
X142770000Y-150050000D03*
%TO.P,U44,11,A4*%
%TO.N,/MA4*%
X140230000Y-150050000D03*
%TO.P,U44,12,A3*%
%TO.N,/MA3*%
X137690000Y-150050000D03*
%TO.P,U44,13,A6*%
%TO.N,/MA6*%
X135150000Y-150050000D03*
%TO.P,U44,14,Q*%
%TO.N,/MDPOUT0*%
X132610000Y-150050000D03*
%TO.P,U44,15,~{CAS}*%
%TO.N,/~{CASL}*%
X130070000Y-150050000D03*
%TO.P,U44,16,VSS*%
%TO.N,GND*%
X127530000Y-150050000D03*
%TD*%
D14*
%TO.P,U10,1,A8*%
%TO.N,/MA8*%
X76730000Y-101790000D03*
D13*
%TO.P,U10,2,D*%
%TO.N,/MD12*%
X79270000Y-101790000D03*
%TO.P,U10,3,~{WE}*%
%TO.N,/~{WE34}*%
X81810000Y-101790000D03*
%TO.P,U10,4,~{RAS}*%
%TO.N,/~{RAS4}*%
X84350000Y-101790000D03*
%TO.P,U10,5,A0*%
%TO.N,/MA0*%
X86890000Y-101790000D03*
%TO.P,U10,6,A2*%
%TO.N,/MA2*%
X89430000Y-101790000D03*
%TO.P,U10,7,A1*%
%TO.N,/MA1*%
X91970000Y-101790000D03*
%TO.P,U10,8,VCC*%
%TO.N,VCC*%
X94510000Y-101790000D03*
%TO.P,U10,9,A7*%
%TO.N,/MA7*%
X94510000Y-94170000D03*
%TO.P,U10,10,A5*%
%TO.N,/MA5*%
X91970000Y-94170000D03*
%TO.P,U10,11,A4*%
%TO.N,/MA4*%
X89430000Y-94170000D03*
%TO.P,U10,12,A3*%
%TO.N,/MA3*%
X86890000Y-94170000D03*
%TO.P,U10,13,A6*%
%TO.N,/MA6*%
X84350000Y-94170000D03*
%TO.P,U10,14,Q*%
%TO.N,/MD12*%
X81810000Y-94170000D03*
%TO.P,U10,15,~{CAS}*%
%TO.N,/~{CASH}*%
X79270000Y-94170000D03*
%TO.P,U10,16,VSS*%
%TO.N,GND*%
X76730000Y-94170000D03*
%TD*%
D14*
%TO.P,U54,1,A8*%
%TO.N,/MA8*%
X329460000Y-127190000D03*
D13*
%TO.P,U54,2,D*%
%TO.N,/MD2*%
X332000000Y-127190000D03*
%TO.P,U54,3,~{WE}*%
%TO.N,/~{WE2}*%
X334540000Y-127190000D03*
%TO.P,U54,4,~{RAS}*%
%TO.N,/~{RAS2}*%
X337080000Y-127190000D03*
%TO.P,U54,5,A0*%
%TO.N,/MA0*%
X339620000Y-127190000D03*
%TO.P,U54,6,A2*%
%TO.N,/MA2*%
X342160000Y-127190000D03*
%TO.P,U54,7,A1*%
%TO.N,/MA1*%
X344700000Y-127190000D03*
%TO.P,U54,8,VCC*%
%TO.N,VCC*%
X347240000Y-127190000D03*
%TO.P,U54,9,A7*%
%TO.N,/MA7*%
X347240000Y-119570000D03*
%TO.P,U54,10,A5*%
%TO.N,/MA5*%
X344700000Y-119570000D03*
%TO.P,U54,11,A4*%
%TO.N,/MA4*%
X342160000Y-119570000D03*
%TO.P,U54,12,A3*%
%TO.N,/MA3*%
X339620000Y-119570000D03*
%TO.P,U54,13,A6*%
%TO.N,/MA6*%
X337080000Y-119570000D03*
%TO.P,U54,14,Q*%
%TO.N,/MD2*%
X334540000Y-119570000D03*
%TO.P,U54,15,~{CAS}*%
%TO.N,/~{CASL}*%
X332000000Y-119570000D03*
%TO.P,U54,16,VSS*%
%TO.N,GND*%
X329460000Y-119570000D03*
%TD*%
D14*
%TO.P,U7,1,A8*%
%TO.N,/MA8*%
X208810000Y-89090000D03*
D13*
%TO.P,U7,2,D*%
%TO.N,/MD8*%
X211350000Y-89090000D03*
%TO.P,U7,3,~{WE}*%
%TO.N,/~{WE2}*%
X213890000Y-89090000D03*
%TO.P,U7,4,~{RAS}*%
%TO.N,/~{RAS2}*%
X216430000Y-89090000D03*
%TO.P,U7,5,A0*%
%TO.N,/MA0*%
X218970000Y-89090000D03*
%TO.P,U7,6,A2*%
%TO.N,/MA2*%
X221510000Y-89090000D03*
%TO.P,U7,7,A1*%
%TO.N,/MA1*%
X224050000Y-89090000D03*
%TO.P,U7,8,VCC*%
%TO.N,VCC*%
X226590000Y-89090000D03*
%TO.P,U7,9,A7*%
%TO.N,/MA7*%
X226590000Y-81470000D03*
%TO.P,U7,10,A5*%
%TO.N,/MA5*%
X224050000Y-81470000D03*
%TO.P,U7,11,A4*%
%TO.N,/MA4*%
X221510000Y-81470000D03*
%TO.P,U7,12,A3*%
%TO.N,/MA3*%
X218970000Y-81470000D03*
%TO.P,U7,13,A6*%
%TO.N,/MA6*%
X216430000Y-81470000D03*
%TO.P,U7,14,Q*%
%TO.N,/MD8*%
X213890000Y-81470000D03*
%TO.P,U7,15,~{CAS}*%
%TO.N,/~{CASH}*%
X211350000Y-81470000D03*
%TO.P,U7,16,VSS*%
%TO.N,GND*%
X208810000Y-81470000D03*
%TD*%
D14*
%TO.P,U32,1,A8*%
%TO.N,/MA8*%
X239290000Y-132270000D03*
D13*
%TO.P,U32,2,D*%
%TO.N,/MD1*%
X241830000Y-132270000D03*
%TO.P,U32,3,~{WE}*%
%TO.N,/~{WE2}*%
X244370000Y-132270000D03*
%TO.P,U32,4,~{RAS}*%
%TO.N,/~{RAS2}*%
X246910000Y-132270000D03*
%TO.P,U32,5,A0*%
%TO.N,/MA0*%
X249450000Y-132270000D03*
%TO.P,U32,6,A2*%
%TO.N,/MA2*%
X251990000Y-132270000D03*
%TO.P,U32,7,A1*%
%TO.N,/MA1*%
X254530000Y-132270000D03*
%TO.P,U32,8,VCC*%
%TO.N,VCC*%
X257070000Y-132270000D03*
%TO.P,U32,9,A7*%
%TO.N,/MA7*%
X257070000Y-124650000D03*
%TO.P,U32,10,A5*%
%TO.N,/MA5*%
X254530000Y-124650000D03*
%TO.P,U32,11,A4*%
%TO.N,/MA4*%
X251990000Y-124650000D03*
%TO.P,U32,12,A3*%
%TO.N,/MA3*%
X249450000Y-124650000D03*
%TO.P,U32,13,A6*%
%TO.N,/MA6*%
X246910000Y-124650000D03*
%TO.P,U32,14,Q*%
%TO.N,/MD1*%
X244370000Y-124650000D03*
%TO.P,U32,15,~{CAS}*%
%TO.N,/~{CASL}*%
X241830000Y-124650000D03*
%TO.P,U32,16,VSS*%
%TO.N,GND*%
X239290000Y-124650000D03*
%TD*%
D14*
%TO.P,Z2,1,common*%
%TO.N,VCC*%
X265960000Y-134810000D03*
D13*
%TO.P,Z2,2,R1*%
%TO.N,unconnected-(Z2-R1-Pad2)*%
X268500000Y-134810000D03*
%TO.P,Z2,3,R2*%
%TO.N,/MD0*%
X271040000Y-134810000D03*
%TO.P,Z2,4,R3*%
%TO.N,/MD1*%
X273580000Y-134810000D03*
%TO.P,Z2,5,R4*%
%TO.N,/MD2*%
X276120000Y-134810000D03*
%TO.P,Z2,6,R5*%
%TO.N,/MD3*%
X278660000Y-134810000D03*
%TO.P,Z2,7,R6*%
%TO.N,/MD4*%
X281200000Y-134810000D03*
%TO.P,Z2,8,R7*%
%TO.N,/MD5*%
X283740000Y-134810000D03*
%TO.P,Z2,9,R8*%
%TO.N,/MD6*%
X286280000Y-134810000D03*
%TO.P,Z2,10,R9*%
%TO.N,/MD7*%
X288820000Y-134810000D03*
%TD*%
D14*
%TO.P,U16,1,A8*%
%TO.N,/MA8*%
X234210000Y-101790000D03*
D13*
%TO.P,U16,2,D*%
%TO.N,/MD12*%
X236750000Y-101790000D03*
%TO.P,U16,3,~{WE}*%
%TO.N,/~{WE2}*%
X239290000Y-101790000D03*
%TO.P,U16,4,~{RAS}*%
%TO.N,/~{RAS2}*%
X241830000Y-101790000D03*
%TO.P,U16,5,A0*%
%TO.N,/MA0*%
X244370000Y-101790000D03*
%TO.P,U16,6,A2*%
%TO.N,/MA2*%
X246910000Y-101790000D03*
%TO.P,U16,7,A1*%
%TO.N,/MA1*%
X249450000Y-101790000D03*
%TO.P,U16,8,VCC*%
%TO.N,VCC*%
X251990000Y-101790000D03*
%TO.P,U16,9,A7*%
%TO.N,/MA7*%
X251990000Y-94170000D03*
%TO.P,U16,10,A5*%
%TO.N,/MA5*%
X249450000Y-94170000D03*
%TO.P,U16,11,A4*%
%TO.N,/MA4*%
X246910000Y-94170000D03*
%TO.P,U16,12,A3*%
%TO.N,/MA3*%
X244370000Y-94170000D03*
%TO.P,U16,13,A6*%
%TO.N,/MA6*%
X241830000Y-94170000D03*
%TO.P,U16,14,Q*%
%TO.N,/MD12*%
X239290000Y-94170000D03*
%TO.P,U16,15,~{CAS}*%
%TO.N,/~{CASH}*%
X236750000Y-94170000D03*
%TO.P,U16,16,VSS*%
%TO.N,GND*%
X234210000Y-94170000D03*
%TD*%
D14*
%TO.P,U37,1,A8*%
%TO.N,/MA8*%
X152930000Y-144970000D03*
D13*
%TO.P,U37,2,D*%
%TO.N,/MD4*%
X155470000Y-144970000D03*
%TO.P,U37,3,~{WE}*%
%TO.N,/~{WE34}*%
X158010000Y-144970000D03*
%TO.P,U37,4,~{RAS}*%
%TO.N,/~{RAS3}*%
X160550000Y-144970000D03*
%TO.P,U37,5,A0*%
%TO.N,/MA0*%
X163090000Y-144970000D03*
%TO.P,U37,6,A2*%
%TO.N,/MA2*%
X165630000Y-144970000D03*
%TO.P,U37,7,A1*%
%TO.N,/MA1*%
X168170000Y-144970000D03*
%TO.P,U37,8,VCC*%
%TO.N,VCC*%
X170710000Y-144970000D03*
%TO.P,U37,9,A7*%
%TO.N,/MA7*%
X170710000Y-137350000D03*
%TO.P,U37,10,A5*%
%TO.N,/MA5*%
X168170000Y-137350000D03*
%TO.P,U37,11,A4*%
%TO.N,/MA4*%
X165630000Y-137350000D03*
%TO.P,U37,12,A3*%
%TO.N,/MA3*%
X163090000Y-137350000D03*
%TO.P,U37,13,A6*%
%TO.N,/MA6*%
X160550000Y-137350000D03*
%TO.P,U37,14,Q*%
%TO.N,/MD4*%
X158010000Y-137350000D03*
%TO.P,U37,15,~{CAS}*%
%TO.N,/~{CASL}*%
X155470000Y-137350000D03*
%TO.P,U37,16,VSS*%
%TO.N,GND*%
X152930000Y-137350000D03*
%TD*%
D14*
%TO.P,U42,1,A8*%
%TO.N,/MA8*%
X76730000Y-157670000D03*
D13*
%TO.P,U42,2,D*%
%TO.N,/MD6*%
X79270000Y-157670000D03*
%TO.P,U42,3,~{WE}*%
%TO.N,/~{WE34}*%
X81810000Y-157670000D03*
%TO.P,U42,4,~{RAS}*%
%TO.N,/~{RAS4}*%
X84350000Y-157670000D03*
%TO.P,U42,5,A0*%
%TO.N,/MA0*%
X86890000Y-157670000D03*
%TO.P,U42,6,A2*%
%TO.N,/MA2*%
X89430000Y-157670000D03*
%TO.P,U42,7,A1*%
%TO.N,/MA1*%
X91970000Y-157670000D03*
%TO.P,U42,8,VCC*%
%TO.N,VCC*%
X94510000Y-157670000D03*
%TO.P,U42,9,A7*%
%TO.N,/MA7*%
X94510000Y-150050000D03*
%TO.P,U42,10,A5*%
%TO.N,/MA5*%
X91970000Y-150050000D03*
%TO.P,U42,11,A4*%
%TO.N,/MA4*%
X89430000Y-150050000D03*
%TO.P,U42,12,A3*%
%TO.N,/MA3*%
X86890000Y-150050000D03*
%TO.P,U42,13,A6*%
%TO.N,/MA6*%
X84350000Y-150050000D03*
%TO.P,U42,14,Q*%
%TO.N,/MD6*%
X81810000Y-150050000D03*
%TO.P,U42,15,~{CAS}*%
%TO.N,/~{CASL}*%
X79270000Y-150050000D03*
%TO.P,U42,16,VSS*%
%TO.N,GND*%
X76730000Y-150050000D03*
%TD*%
D14*
%TO.P,U25,1,A8*%
%TO.N,/MA8*%
X51330000Y-132270000D03*
D13*
%TO.P,U25,2,D*%
%TO.N,/MD0*%
X53870000Y-132270000D03*
%TO.P,U25,3,~{WE}*%
%TO.N,/~{WE34}*%
X56410000Y-132270000D03*
%TO.P,U25,4,~{RAS}*%
%TO.N,/~{RAS4}*%
X58950000Y-132270000D03*
%TO.P,U25,5,A0*%
%TO.N,/MA0*%
X61490000Y-132270000D03*
%TO.P,U25,6,A2*%
%TO.N,/MA2*%
X64030000Y-132270000D03*
%TO.P,U25,7,A1*%
%TO.N,/MA1*%
X66570000Y-132270000D03*
%TO.P,U25,8,VCC*%
%TO.N,VCC*%
X69110000Y-132270000D03*
%TO.P,U25,9,A7*%
%TO.N,/MA7*%
X69110000Y-124650000D03*
%TO.P,U25,10,A5*%
%TO.N,/MA5*%
X66570000Y-124650000D03*
%TO.P,U25,11,A4*%
%TO.N,/MA4*%
X64030000Y-124650000D03*
%TO.P,U25,12,A3*%
%TO.N,/MA3*%
X61490000Y-124650000D03*
%TO.P,U25,13,A6*%
%TO.N,/MA6*%
X58950000Y-124650000D03*
%TO.P,U25,14,Q*%
%TO.N,/MD0*%
X56410000Y-124650000D03*
%TO.P,U25,15,~{CAS}*%
%TO.N,/~{CASL}*%
X53870000Y-124650000D03*
%TO.P,U25,16,VSS*%
%TO.N,GND*%
X51330000Y-124650000D03*
%TD*%
D14*
%TO.P,U5,1,A8*%
%TO.N,/MA8*%
X152930000Y-89090000D03*
D13*
%TO.P,U5,2,D*%
%TO.N,/MD9*%
X155470000Y-89090000D03*
%TO.P,U5,3,~{WE}*%
%TO.N,/~{WE34}*%
X158010000Y-89090000D03*
%TO.P,U5,4,~{RAS}*%
%TO.N,/~{RAS3}*%
X160550000Y-89090000D03*
%TO.P,U5,5,A0*%
%TO.N,/MA0*%
X163090000Y-89090000D03*
%TO.P,U5,6,A2*%
%TO.N,/MA2*%
X165630000Y-89090000D03*
%TO.P,U5,7,A1*%
%TO.N,/MA1*%
X168170000Y-89090000D03*
%TO.P,U5,8,VCC*%
%TO.N,VCC*%
X170710000Y-89090000D03*
%TO.P,U5,9,A7*%
%TO.N,/MA7*%
X170710000Y-81470000D03*
%TO.P,U5,10,A5*%
%TO.N,/MA5*%
X168170000Y-81470000D03*
%TO.P,U5,11,A4*%
%TO.N,/MA4*%
X165630000Y-81470000D03*
%TO.P,U5,12,A3*%
%TO.N,/MA3*%
X163090000Y-81470000D03*
%TO.P,U5,13,A6*%
%TO.N,/MA6*%
X160550000Y-81470000D03*
%TO.P,U5,14,Q*%
%TO.N,/MD9*%
X158010000Y-81470000D03*
%TO.P,U5,15,~{CAS}*%
%TO.N,/~{CASH}*%
X155470000Y-81470000D03*
%TO.P,U5,16,VSS*%
%TO.N,GND*%
X152930000Y-81470000D03*
%TD*%
D14*
%TO.P,U23,1,A8*%
%TO.N,/MA8*%
X208810000Y-114490000D03*
D13*
%TO.P,U23,2,D*%
%TO.N,/MDPIN1*%
X211350000Y-114490000D03*
%TO.P,U23,3,~{WE}*%
%TO.N,/~{WE2}*%
X213890000Y-114490000D03*
%TO.P,U23,4,~{RAS}*%
%TO.N,/~{RAS2}*%
X216430000Y-114490000D03*
%TO.P,U23,5,A0*%
%TO.N,/MA0*%
X218970000Y-114490000D03*
%TO.P,U23,6,A2*%
%TO.N,/MA2*%
X221510000Y-114490000D03*
%TO.P,U23,7,A1*%
%TO.N,/MA1*%
X224050000Y-114490000D03*
%TO.P,U23,8,VCC*%
%TO.N,VCC*%
X226590000Y-114490000D03*
%TO.P,U23,9,A7*%
%TO.N,/MA7*%
X226590000Y-106870000D03*
%TO.P,U23,10,A5*%
%TO.N,/MA5*%
X224050000Y-106870000D03*
%TO.P,U23,11,A4*%
%TO.N,/MA4*%
X221510000Y-106870000D03*
%TO.P,U23,12,A3*%
%TO.N,/MA3*%
X218970000Y-106870000D03*
%TO.P,U23,13,A6*%
%TO.N,/MA6*%
X216430000Y-106870000D03*
%TO.P,U23,14,Q*%
%TO.N,/MDPOUT1*%
X213890000Y-106870000D03*
%TO.P,U23,15,~{CAS}*%
%TO.N,/~{CASH}*%
X211350000Y-106870000D03*
%TO.P,U23,16,VSS*%
%TO.N,GND*%
X208810000Y-106870000D03*
%TD*%
D14*
%TO.P,U48,1,A8*%
%TO.N,/MA8*%
X239290000Y-157670000D03*
D13*
%TO.P,U48,2,D*%
%TO.N,/MD6*%
X241830000Y-157670000D03*
%TO.P,U48,3,~{WE}*%
%TO.N,/~{WE2}*%
X244370000Y-157670000D03*
%TO.P,U48,4,~{RAS}*%
%TO.N,/~{RAS2}*%
X246910000Y-157670000D03*
%TO.P,U48,5,A0*%
%TO.N,/MA0*%
X249450000Y-157670000D03*
%TO.P,U48,6,A2*%
%TO.N,/MA2*%
X251990000Y-157670000D03*
%TO.P,U48,7,A1*%
%TO.N,/MA1*%
X254530000Y-157670000D03*
%TO.P,U48,8,VCC*%
%TO.N,VCC*%
X257070000Y-157670000D03*
%TO.P,U48,9,A7*%
%TO.N,/MA7*%
X257070000Y-150050000D03*
%TO.P,U48,10,A5*%
%TO.N,/MA5*%
X254530000Y-150050000D03*
%TO.P,U48,11,A4*%
%TO.N,/MA4*%
X251990000Y-150050000D03*
%TO.P,U48,12,A3*%
%TO.N,/MA3*%
X249450000Y-150050000D03*
%TO.P,U48,13,A6*%
%TO.N,/MA6*%
X246910000Y-150050000D03*
%TO.P,U48,14,Q*%
%TO.N,/MD6*%
X244370000Y-150050000D03*
%TO.P,U48,15,~{CAS}*%
%TO.N,/~{CASL}*%
X241830000Y-150050000D03*
%TO.P,U48,16,VSS*%
%TO.N,GND*%
X239290000Y-150050000D03*
%TD*%
D14*
%TO.P,U20,1,A8*%
%TO.N,/MA8*%
X127530000Y-114490000D03*
D13*
%TO.P,U20,2,D*%
%TO.N,/MDPIN1*%
X130070000Y-114490000D03*
%TO.P,U20,3,~{WE}*%
%TO.N,/~{WE34}*%
X132610000Y-114490000D03*
%TO.P,U20,4,~{RAS}*%
%TO.N,/~{RAS3}*%
X135150000Y-114490000D03*
%TO.P,U20,5,A0*%
%TO.N,/MA0*%
X137690000Y-114490000D03*
%TO.P,U20,6,A2*%
%TO.N,/MA2*%
X140230000Y-114490000D03*
%TO.P,U20,7,A1*%
%TO.N,/MA1*%
X142770000Y-114490000D03*
%TO.P,U20,8,VCC*%
%TO.N,VCC*%
X145310000Y-114490000D03*
%TO.P,U20,9,A7*%
%TO.N,/MA7*%
X145310000Y-106870000D03*
%TO.P,U20,10,A5*%
%TO.N,/MA5*%
X142770000Y-106870000D03*
%TO.P,U20,11,A4*%
%TO.N,/MA4*%
X140230000Y-106870000D03*
%TO.P,U20,12,A3*%
%TO.N,/MA3*%
X137690000Y-106870000D03*
%TO.P,U20,13,A6*%
%TO.N,/MA6*%
X135150000Y-106870000D03*
%TO.P,U20,14,Q*%
%TO.N,/MDPOUT1*%
X132610000Y-106870000D03*
%TO.P,U20,15,~{CAS}*%
%TO.N,/~{CASH}*%
X130070000Y-106870000D03*
%TO.P,U20,16,VSS*%
%TO.N,GND*%
X127530000Y-106870000D03*
%TD*%
D12*
%TO.P,R2,1*%
%TO.N,VCC*%
X43075000Y-127190000D03*
D13*
%TO.P,R2,2*%
%TO.N,/MA8*%
X43075000Y-114490000D03*
%TD*%
D12*
%TO.P,R6,1*%
%TO.N,Net-(C73-Pad1)*%
X276755000Y-91630000D03*
D13*
%TO.P,R6,2*%
%TO.N,/~{WE2}*%
X276755000Y-78930000D03*
%TD*%
D14*
%TO.P,U18,1,A8*%
%TO.N,/MA8*%
X76730000Y-114490000D03*
D13*
%TO.P,U18,2,D*%
%TO.N,/MD14*%
X79270000Y-114490000D03*
%TO.P,U18,3,~{WE}*%
%TO.N,/~{WE34}*%
X81810000Y-114490000D03*
%TO.P,U18,4,~{RAS}*%
%TO.N,/~{RAS4}*%
X84350000Y-114490000D03*
%TO.P,U18,5,A0*%
%TO.N,/MA0*%
X86890000Y-114490000D03*
%TO.P,U18,6,A2*%
%TO.N,/MA2*%
X89430000Y-114490000D03*
%TO.P,U18,7,A1*%
%TO.N,/MA1*%
X91970000Y-114490000D03*
%TO.P,U18,8,VCC*%
%TO.N,VCC*%
X94510000Y-114490000D03*
%TO.P,U18,9,A7*%
%TO.N,/MA7*%
X94510000Y-106870000D03*
%TO.P,U18,10,A5*%
%TO.N,/MA5*%
X91970000Y-106870000D03*
%TO.P,U18,11,A4*%
%TO.N,/MA4*%
X89430000Y-106870000D03*
%TO.P,U18,12,A3*%
%TO.N,/MA3*%
X86890000Y-106870000D03*
%TO.P,U18,13,A6*%
%TO.N,/MA6*%
X84350000Y-106870000D03*
%TO.P,U18,14,Q*%
%TO.N,/MD14*%
X81810000Y-106870000D03*
%TO.P,U18,15,~{CAS}*%
%TO.N,/~{CASH}*%
X79270000Y-106870000D03*
%TO.P,U18,16,VSS*%
%TO.N,GND*%
X76730000Y-106870000D03*
%TD*%
D14*
%TO.P,U34,1,A8*%
%TO.N,/MA8*%
X76730000Y-144970000D03*
D13*
%TO.P,U34,2,D*%
%TO.N,/MD4*%
X79270000Y-144970000D03*
%TO.P,U34,3,~{WE}*%
%TO.N,/~{WE34}*%
X81810000Y-144970000D03*
%TO.P,U34,4,~{RAS}*%
%TO.N,/~{RAS4}*%
X84350000Y-144970000D03*
%TO.P,U34,5,A0*%
%TO.N,/MA0*%
X86890000Y-144970000D03*
%TO.P,U34,6,A2*%
%TO.N,/MA2*%
X89430000Y-144970000D03*
%TO.P,U34,7,A1*%
%TO.N,/MA1*%
X91970000Y-144970000D03*
%TO.P,U34,8,VCC*%
%TO.N,VCC*%
X94510000Y-144970000D03*
%TO.P,U34,9,A7*%
%TO.N,/MA7*%
X94510000Y-137350000D03*
%TO.P,U34,10,A5*%
%TO.N,/MA5*%
X91970000Y-137350000D03*
%TO.P,U34,11,A4*%
%TO.N,/MA4*%
X89430000Y-137350000D03*
%TO.P,U34,12,A3*%
%TO.N,/MA3*%
X86890000Y-137350000D03*
%TO.P,U34,13,A6*%
%TO.N,/MA6*%
X84350000Y-137350000D03*
%TO.P,U34,14,Q*%
%TO.N,/MD4*%
X81810000Y-137350000D03*
%TO.P,U34,15,~{CAS}*%
%TO.N,/~{CASL}*%
X79270000Y-137350000D03*
%TO.P,U34,16,VSS*%
%TO.N,GND*%
X76730000Y-137350000D03*
%TD*%
D14*
%TO.P,U15,1,A8*%
%TO.N,/MA8*%
X208810000Y-101790000D03*
D13*
%TO.P,U15,2,D*%
%TO.N,/MD11*%
X211350000Y-101790000D03*
%TO.P,U15,3,~{WE}*%
%TO.N,/~{WE2}*%
X213890000Y-101790000D03*
%TO.P,U15,4,~{RAS}*%
%TO.N,/~{RAS2}*%
X216430000Y-101790000D03*
%TO.P,U15,5,A0*%
%TO.N,/MA0*%
X218970000Y-101790000D03*
%TO.P,U15,6,A2*%
%TO.N,/MA2*%
X221510000Y-101790000D03*
%TO.P,U15,7,A1*%
%TO.N,/MA1*%
X224050000Y-101790000D03*
%TO.P,U15,8,VCC*%
%TO.N,VCC*%
X226590000Y-101790000D03*
%TO.P,U15,9,A7*%
%TO.N,/MA7*%
X226590000Y-94170000D03*
%TO.P,U15,10,A5*%
%TO.N,/MA5*%
X224050000Y-94170000D03*
%TO.P,U15,11,A4*%
%TO.N,/MA4*%
X221510000Y-94170000D03*
%TO.P,U15,12,A3*%
%TO.N,/MA3*%
X218970000Y-94170000D03*
%TO.P,U15,13,A6*%
%TO.N,/MA6*%
X216430000Y-94170000D03*
%TO.P,U15,14,Q*%
%TO.N,/MD11*%
X213890000Y-94170000D03*
%TO.P,U15,15,~{CAS}*%
%TO.N,/~{CASH}*%
X211350000Y-94170000D03*
%TO.P,U15,16,VSS*%
%TO.N,GND*%
X208810000Y-94170000D03*
%TD*%
D12*
%TO.P,R8,1*%
%TO.N,Net-(C72-Pad1)*%
X44345000Y-77025000D03*
D13*
%TO.P,R8,2*%
%TO.N,/~{RAS3}*%
X44345000Y-89725000D03*
%TD*%
D12*
%TO.P,R5,1*%
%TO.N,/~{WE34}*%
X43075000Y-99250000D03*
D13*
%TO.P,R5,2*%
%TO.N,Net-(C70-Pad1)*%
X43075000Y-111950000D03*
%TD*%
D14*
%TO.P,U31,1,A8*%
%TO.N,/MA8*%
X213890000Y-132270000D03*
D13*
%TO.P,U31,2,D*%
%TO.N,/MD0*%
X216430000Y-132270000D03*
%TO.P,U31,3,~{WE}*%
%TO.N,/~{WE2}*%
X218970000Y-132270000D03*
%TO.P,U31,4,~{RAS}*%
%TO.N,/~{RAS2}*%
X221510000Y-132270000D03*
%TO.P,U31,5,A0*%
%TO.N,/MA0*%
X224050000Y-132270000D03*
%TO.P,U31,6,A2*%
%TO.N,/MA2*%
X226590000Y-132270000D03*
%TO.P,U31,7,A1*%
%TO.N,/MA1*%
X229130000Y-132270000D03*
%TO.P,U31,8,VCC*%
%TO.N,VCC*%
X231670000Y-132270000D03*
%TO.P,U31,9,A7*%
%TO.N,/MA7*%
X231670000Y-124650000D03*
%TO.P,U31,10,A5*%
%TO.N,/MA5*%
X229130000Y-124650000D03*
%TO.P,U31,11,A4*%
%TO.N,/MA4*%
X226590000Y-124650000D03*
%TO.P,U31,12,A3*%
%TO.N,/MA3*%
X224050000Y-124650000D03*
%TO.P,U31,13,A6*%
%TO.N,/MA6*%
X221510000Y-124650000D03*
%TO.P,U31,14,Q*%
%TO.N,/MD0*%
X218970000Y-124650000D03*
%TO.P,U31,15,~{CAS}*%
%TO.N,/~{CASL}*%
X216430000Y-124650000D03*
%TO.P,U31,16,VSS*%
%TO.N,GND*%
X213890000Y-124650000D03*
%TD*%
D14*
%TO.P,C38,1*%
%TO.N,VCC*%
X201190000Y-114627349D03*
D12*
%TO.P,C38,2*%
%TO.N,GND*%
X201190000Y-119627349D03*
%TD*%
D14*
%TO.P,U17,1,A8*%
%TO.N,/MA8*%
X51330000Y-114490000D03*
D13*
%TO.P,U17,2,D*%
%TO.N,/MDPIN1*%
X53870000Y-114490000D03*
%TO.P,U17,3,~{WE}*%
%TO.N,/~{WE34}*%
X56410000Y-114490000D03*
%TO.P,U17,4,~{RAS}*%
%TO.N,/~{RAS4}*%
X58950000Y-114490000D03*
%TO.P,U17,5,A0*%
%TO.N,/MA0*%
X61490000Y-114490000D03*
%TO.P,U17,6,A2*%
%TO.N,/MA2*%
X64030000Y-114490000D03*
%TO.P,U17,7,A1*%
%TO.N,/MA1*%
X66570000Y-114490000D03*
%TO.P,U17,8,VCC*%
%TO.N,VCC*%
X69110000Y-114490000D03*
%TO.P,U17,9,A7*%
%TO.N,/MA7*%
X69110000Y-106870000D03*
%TO.P,U17,10,A5*%
%TO.N,/MA5*%
X66570000Y-106870000D03*
%TO.P,U17,11,A4*%
%TO.N,/MA4*%
X64030000Y-106870000D03*
%TO.P,U17,12,A3*%
%TO.N,/MA3*%
X61490000Y-106870000D03*
%TO.P,U17,13,A6*%
%TO.N,/MA6*%
X58950000Y-106870000D03*
%TO.P,U17,14,Q*%
%TO.N,/MDPOUT1*%
X56410000Y-106870000D03*
%TO.P,U17,15,~{CAS}*%
%TO.N,/~{CASH}*%
X53870000Y-106870000D03*
%TO.P,U17,16,VSS*%
%TO.N,GND*%
X51330000Y-106870000D03*
%TD*%
D14*
%TO.P,U46,1,A8*%
%TO.N,/MA8*%
X178330000Y-157670000D03*
D13*
%TO.P,U46,2,D*%
%TO.N,/MD7*%
X180870000Y-157670000D03*
%TO.P,U46,3,~{WE}*%
%TO.N,/~{WE34}*%
X183410000Y-157670000D03*
%TO.P,U46,4,~{RAS}*%
%TO.N,/~{RAS3}*%
X185950000Y-157670000D03*
%TO.P,U46,5,A0*%
%TO.N,/MA0*%
X188490000Y-157670000D03*
%TO.P,U46,6,A2*%
%TO.N,/MA2*%
X191030000Y-157670000D03*
%TO.P,U46,7,A1*%
%TO.N,/MA1*%
X193570000Y-157670000D03*
%TO.P,U46,8,VCC*%
%TO.N,VCC*%
X196110000Y-157670000D03*
%TO.P,U46,9,A7*%
%TO.N,/MA7*%
X196110000Y-150050000D03*
%TO.P,U46,10,A5*%
%TO.N,/MA5*%
X193570000Y-150050000D03*
%TO.P,U46,11,A4*%
%TO.N,/MA4*%
X191030000Y-150050000D03*
%TO.P,U46,12,A3*%
%TO.N,/MA3*%
X188490000Y-150050000D03*
%TO.P,U46,13,A6*%
%TO.N,/MA6*%
X185950000Y-150050000D03*
%TO.P,U46,14,Q*%
%TO.N,/MD7*%
X183410000Y-150050000D03*
%TO.P,U46,15,~{CAS}*%
%TO.N,/~{CASL}*%
X180870000Y-150050000D03*
%TO.P,U46,16,VSS*%
%TO.N,GND*%
X178330000Y-150050000D03*
%TD*%
D14*
%TO.P,U4,1,A8*%
%TO.N,/MA8*%
X127530000Y-89090000D03*
D13*
%TO.P,U4,2,D*%
%TO.N,/MD8*%
X130070000Y-89090000D03*
%TO.P,U4,3,~{WE}*%
%TO.N,/~{WE34}*%
X132610000Y-89090000D03*
%TO.P,U4,4,~{RAS}*%
%TO.N,/~{RAS3}*%
X135150000Y-89090000D03*
%TO.P,U4,5,A0*%
%TO.N,/MA0*%
X137690000Y-89090000D03*
%TO.P,U4,6,A2*%
%TO.N,/MA2*%
X140230000Y-89090000D03*
%TO.P,U4,7,A1*%
%TO.N,/MA1*%
X142770000Y-89090000D03*
%TO.P,U4,8,VCC*%
%TO.N,VCC*%
X145310000Y-89090000D03*
%TO.P,U4,9,A7*%
%TO.N,/MA7*%
X145310000Y-81470000D03*
%TO.P,U4,10,A5*%
%TO.N,/MA5*%
X142770000Y-81470000D03*
%TO.P,U4,11,A4*%
%TO.N,/MA4*%
X140230000Y-81470000D03*
%TO.P,U4,12,A3*%
%TO.N,/MA3*%
X137690000Y-81470000D03*
%TO.P,U4,13,A6*%
%TO.N,/MA6*%
X135150000Y-81470000D03*
%TO.P,U4,14,Q*%
%TO.N,/MD8*%
X132610000Y-81470000D03*
%TO.P,U4,15,~{CAS}*%
%TO.N,/~{CASH}*%
X130070000Y-81470000D03*
%TO.P,U4,16,VSS*%
%TO.N,GND*%
X127530000Y-81470000D03*
%TD*%
D14*
%TO.P,U38,1,A8*%
%TO.N,/MA8*%
X178330000Y-144970000D03*
D13*
%TO.P,U38,2,D*%
%TO.N,/MD5*%
X180870000Y-144970000D03*
%TO.P,U38,3,~{WE}*%
%TO.N,/~{WE34}*%
X183410000Y-144970000D03*
%TO.P,U38,4,~{RAS}*%
%TO.N,/~{RAS3}*%
X185950000Y-144970000D03*
%TO.P,U38,5,A0*%
%TO.N,/MA0*%
X188490000Y-144970000D03*
%TO.P,U38,6,A2*%
%TO.N,/MA2*%
X191030000Y-144970000D03*
%TO.P,U38,7,A1*%
%TO.N,/MA1*%
X193570000Y-144970000D03*
%TO.P,U38,8,VCC*%
%TO.N,VCC*%
X196110000Y-144970000D03*
%TO.P,U38,9,A7*%
%TO.N,/MA7*%
X196110000Y-137350000D03*
%TO.P,U38,10,A5*%
%TO.N,/MA5*%
X193570000Y-137350000D03*
%TO.P,U38,11,A4*%
%TO.N,/MA4*%
X191030000Y-137350000D03*
%TO.P,U38,12,A3*%
%TO.N,/MA3*%
X188490000Y-137350000D03*
%TO.P,U38,13,A6*%
%TO.N,/MA6*%
X185950000Y-137350000D03*
%TO.P,U38,14,Q*%
%TO.N,/MD5*%
X183410000Y-137350000D03*
%TO.P,U38,15,~{CAS}*%
%TO.N,/~{CASL}*%
X180870000Y-137350000D03*
%TO.P,U38,16,VSS*%
%TO.N,GND*%
X178330000Y-137350000D03*
%TD*%
D14*
%TO.P,U3,1,A8*%
%TO.N,/MA8*%
X102130000Y-89090000D03*
D13*
%TO.P,U3,2,D*%
%TO.N,/MD10*%
X104670000Y-89090000D03*
%TO.P,U3,3,~{WE}*%
%TO.N,/~{WE34}*%
X107210000Y-89090000D03*
%TO.P,U3,4,~{RAS}*%
%TO.N,/~{RAS4}*%
X109750000Y-89090000D03*
%TO.P,U3,5,A0*%
%TO.N,/MA0*%
X112290000Y-89090000D03*
%TO.P,U3,6,A2*%
%TO.N,/MA2*%
X114830000Y-89090000D03*
%TO.P,U3,7,A1*%
%TO.N,/MA1*%
X117370000Y-89090000D03*
%TO.P,U3,8,VCC*%
%TO.N,VCC*%
X119910000Y-89090000D03*
%TO.P,U3,9,A7*%
%TO.N,/MA7*%
X119910000Y-81470000D03*
%TO.P,U3,10,A5*%
%TO.N,/MA5*%
X117370000Y-81470000D03*
%TO.P,U3,11,A4*%
%TO.N,/MA4*%
X114830000Y-81470000D03*
%TO.P,U3,12,A3*%
%TO.N,/MA3*%
X112290000Y-81470000D03*
%TO.P,U3,13,A6*%
%TO.N,/MA6*%
X109750000Y-81470000D03*
%TO.P,U3,14,Q*%
%TO.N,/MD10*%
X107210000Y-81470000D03*
%TO.P,U3,15,~{CAS}*%
%TO.N,/~{CASH}*%
X104670000Y-81470000D03*
%TO.P,U3,16,VSS*%
%TO.N,GND*%
X102130000Y-81470000D03*
%TD*%
D14*
%TO.P,U58,1*%
%TO.N,/XB*%
X349780000Y-144970000D03*
D13*
%TO.P,U58,2*%
%TO.N,/+RAS*%
X352320000Y-144970000D03*
%TO.P,U58,3*%
%TO.N,Net-(U56-CE)*%
X354860000Y-144970000D03*
%TO.P,U58,4*%
%TO.N,/+RAS*%
X357400000Y-144970000D03*
%TO.P,U58,5*%
%TO.N,/XA*%
X359940000Y-144970000D03*
%TO.P,U58,6*%
%TO.N,Net-(U55-CE)*%
X362480000Y-144970000D03*
%TO.P,U58,7,GND*%
%TO.N,GND*%
X365020000Y-144970000D03*
%TO.P,U58,8*%
%TO.N,unconnected-(U58-Pad8)*%
X365020000Y-137350000D03*
%TO.P,U58,9*%
%TO.N,unconnected-(U58-Pad9)*%
X362480000Y-137350000D03*
%TO.P,U58,10*%
%TO.N,unconnected-(U58-Pad10)*%
X359940000Y-137350000D03*
%TO.P,U58,11*%
%TO.N,/MA7*%
X357400000Y-137350000D03*
%TO.P,U58,12*%
%TO.N,Net-(U57-OEa)*%
X354860000Y-137350000D03*
%TO.P,U58,13*%
%TO.N,/A7*%
X352320000Y-137350000D03*
%TO.P,U58,14,VCC*%
%TO.N,VCC*%
X349780000Y-137350000D03*
%TD*%
D14*
%TO.P,U57,1,OEa*%
%TO.N,Net-(U57-OEa)*%
X321840000Y-144970000D03*
D13*
%TO.P,U57,2,I0a*%
%TO.N,/A8*%
X324380000Y-144970000D03*
%TO.P,U57,3,O3b*%
%TO.N,/MA6*%
X326920000Y-144970000D03*
%TO.P,U57,4,I1a*%
%TO.N,/A3*%
X329460000Y-144970000D03*
%TO.P,U57,5,O2b*%
%TO.N,/MA0*%
X332000000Y-144970000D03*
%TO.P,U57,6,I2a*%
%TO.N,/A4*%
X334540000Y-144970000D03*
%TO.P,U57,7,O1b*%
%TO.N,/MA2*%
X337080000Y-144970000D03*
%TO.P,U57,8,I3a*%
%TO.N,/A5*%
X339620000Y-144970000D03*
%TO.P,U57,9,O0b*%
%TO.N,/MA1*%
X342160000Y-144970000D03*
%TO.P,U57,10,GND*%
%TO.N,GND*%
X344700000Y-144970000D03*
%TO.P,U57,11,I0b*%
%TO.N,/A1*%
X344700000Y-137350000D03*
%TO.P,U57,12,O3a*%
%TO.N,/MA5*%
X342160000Y-137350000D03*
%TO.P,U57,13,I1b*%
%TO.N,/A2*%
X339620000Y-137350000D03*
%TO.P,U57,14,O2a*%
%TO.N,/MA4*%
X337080000Y-137350000D03*
%TO.P,U57,15,I2b*%
%TO.N,/A0*%
X334540000Y-137350000D03*
%TO.P,U57,16,O1a*%
%TO.N,/MA3*%
X332000000Y-137350000D03*
%TO.P,U57,17,I3b*%
%TO.N,/A6*%
X329460000Y-137350000D03*
%TO.P,U57,18,O0a*%
%TO.N,/MA8*%
X326920000Y-137350000D03*
%TO.P,U57,19,OEb*%
%TO.N,Net-(U57-OEa)*%
X324380000Y-137350000D03*
%TO.P,U57,20,VCC*%
%TO.N,VCC*%
X321840000Y-137350000D03*
%TD*%
D14*
%TO.P,U50,1,A8*%
%TO.N,/MA8*%
X304060000Y-114490000D03*
D13*
%TO.P,U50,2,D*%
%TO.N,/MD13*%
X306600000Y-114490000D03*
%TO.P,U50,3,~{WE}*%
%TO.N,/~{WE2}*%
X309140000Y-114490000D03*
%TO.P,U50,4,~{RAS}*%
%TO.N,/~{RAS2}*%
X311680000Y-114490000D03*
%TO.P,U50,5,A0*%
%TO.N,/MA0*%
X314220000Y-114490000D03*
%TO.P,U50,6,A2*%
%TO.N,/MA2*%
X316760000Y-114490000D03*
%TO.P,U50,7,A1*%
%TO.N,/MA1*%
X319300000Y-114490000D03*
%TO.P,U50,8,VCC*%
%TO.N,VCC*%
X321840000Y-114490000D03*
%TO.P,U50,9,A7*%
%TO.N,/MA7*%
X321840000Y-106870000D03*
%TO.P,U50,10,A5*%
%TO.N,/MA5*%
X319300000Y-106870000D03*
%TO.P,U50,11,A4*%
%TO.N,/MA4*%
X316760000Y-106870000D03*
%TO.P,U50,12,A3*%
%TO.N,/MA3*%
X314220000Y-106870000D03*
%TO.P,U50,13,A6*%
%TO.N,/MA6*%
X311680000Y-106870000D03*
%TO.P,U50,14,Q*%
%TO.N,/MD13*%
X309140000Y-106870000D03*
%TO.P,U50,15,~{CAS}*%
%TO.N,/~{CASH}*%
X306600000Y-106870000D03*
%TO.P,U50,16,VSS*%
%TO.N,GND*%
X304060000Y-106870000D03*
%TD*%
D14*
%TO.P,U29,1,A8*%
%TO.N,/MA8*%
X152930000Y-132270000D03*
D13*
%TO.P,U29,2,D*%
%TO.N,/MD1*%
X155470000Y-132270000D03*
%TO.P,U29,3,~{WE}*%
%TO.N,/~{WE34}*%
X158010000Y-132270000D03*
%TO.P,U29,4,~{RAS}*%
%TO.N,/~{RAS3}*%
X160550000Y-132270000D03*
%TO.P,U29,5,A0*%
%TO.N,/MA0*%
X163090000Y-132270000D03*
%TO.P,U29,6,A2*%
%TO.N,/MA2*%
X165630000Y-132270000D03*
%TO.P,U29,7,A1*%
%TO.N,/MA1*%
X168170000Y-132270000D03*
%TO.P,U29,8,VCC*%
%TO.N,VCC*%
X170710000Y-132270000D03*
%TO.P,U29,9,A7*%
%TO.N,/MA7*%
X170710000Y-124650000D03*
%TO.P,U29,10,A5*%
%TO.N,/MA5*%
X168170000Y-124650000D03*
%TO.P,U29,11,A4*%
%TO.N,/MA4*%
X165630000Y-124650000D03*
%TO.P,U29,12,A3*%
%TO.N,/MA3*%
X163090000Y-124650000D03*
%TO.P,U29,13,A6*%
%TO.N,/MA6*%
X160550000Y-124650000D03*
%TO.P,U29,14,Q*%
%TO.N,/MD1*%
X158010000Y-124650000D03*
%TO.P,U29,15,~{CAS}*%
%TO.N,/~{CASL}*%
X155470000Y-124650000D03*
%TO.P,U29,16,VSS*%
%TO.N,GND*%
X152930000Y-124650000D03*
%TD*%
D14*
%TO.P,C35,1*%
%TO.N,VCC*%
X123720000Y-119707349D03*
D12*
%TO.P,C35,2*%
%TO.N,GND*%
X123720000Y-124707349D03*
%TD*%
%TO.P,R7,1*%
%TO.N,Net-(C74-Pad1)*%
X279295000Y-91630000D03*
D13*
%TO.P,R7,2*%
%TO.N,/~{RAS2}*%
X279295000Y-78930000D03*
%TD*%
D12*
%TO.P,R4,1*%
%TO.N,Net-(C71-Pad1)*%
X37995000Y-111950000D03*
D13*
%TO.P,R4,2*%
%TO.N,/~{RAS4}*%
X37995000Y-99250000D03*
%TD*%
D14*
%TO.P,C27,1*%
%TO.N,VCC*%
X230400000Y-101292349D03*
D12*
%TO.P,C27,2*%
%TO.N,GND*%
X230400000Y-106292349D03*
%TD*%
D14*
%TO.P,U30,1,A8*%
%TO.N,/MA8*%
X178330000Y-132270000D03*
D13*
%TO.P,U30,2,D*%
%TO.N,/MD2*%
X180870000Y-132270000D03*
%TO.P,U30,3,~{WE}*%
%TO.N,/~{WE34}*%
X183410000Y-132270000D03*
%TO.P,U30,4,~{RAS}*%
%TO.N,/~{RAS3}*%
X185950000Y-132270000D03*
%TO.P,U30,5,A0*%
%TO.N,/MA0*%
X188490000Y-132270000D03*
%TO.P,U30,6,A2*%
%TO.N,/MA2*%
X191030000Y-132270000D03*
%TO.P,U30,7,A1*%
%TO.N,/MA1*%
X193570000Y-132270000D03*
%TO.P,U30,8,VCC*%
%TO.N,VCC*%
X196110000Y-132270000D03*
%TO.P,U30,9,A7*%
%TO.N,/MA7*%
X196110000Y-124650000D03*
%TO.P,U30,10,A5*%
%TO.N,/MA5*%
X193570000Y-124650000D03*
%TO.P,U30,11,A4*%
%TO.N,/MA4*%
X191030000Y-124650000D03*
%TO.P,U30,12,A3*%
%TO.N,/MA3*%
X188490000Y-124650000D03*
%TO.P,U30,13,A6*%
%TO.N,/MA6*%
X185950000Y-124650000D03*
%TO.P,U30,14,Q*%
%TO.N,/MD2*%
X183410000Y-124650000D03*
%TO.P,U30,15,~{CAS}*%
%TO.N,/~{CASL}*%
X180870000Y-124650000D03*
%TO.P,U30,16,VSS*%
%TO.N,GND*%
X178330000Y-124650000D03*
%TD*%
D14*
%TO.P,U39,1,A8*%
%TO.N,/MA8*%
X213890000Y-144970000D03*
D13*
%TO.P,U39,2,D*%
%TO.N,/MD3*%
X216430000Y-144970000D03*
%TO.P,U39,3,~{WE}*%
%TO.N,/~{WE2}*%
X218970000Y-144970000D03*
%TO.P,U39,4,~{RAS}*%
%TO.N,/~{RAS2}*%
X221510000Y-144970000D03*
%TO.P,U39,5,A0*%
%TO.N,/MA0*%
X224050000Y-144970000D03*
%TO.P,U39,6,A2*%
%TO.N,/MA2*%
X226590000Y-144970000D03*
%TO.P,U39,7,A1*%
%TO.N,/MA1*%
X229130000Y-144970000D03*
%TO.P,U39,8,VCC*%
%TO.N,VCC*%
X231670000Y-144970000D03*
%TO.P,U39,9,A7*%
%TO.N,/MA7*%
X231670000Y-137350000D03*
%TO.P,U39,10,A5*%
%TO.N,/MA5*%
X229130000Y-137350000D03*
%TO.P,U39,11,A4*%
%TO.N,/MA4*%
X226590000Y-137350000D03*
%TO.P,U39,12,A3*%
%TO.N,/MA3*%
X224050000Y-137350000D03*
%TO.P,U39,13,A6*%
%TO.N,/MA6*%
X221510000Y-137350000D03*
%TO.P,U39,14,Q*%
%TO.N,/MD3*%
X218970000Y-137350000D03*
%TO.P,U39,15,~{CAS}*%
%TO.N,/~{CASL}*%
X216430000Y-137350000D03*
%TO.P,U39,16,VSS*%
%TO.N,GND*%
X213890000Y-137350000D03*
%TD*%
D14*
%TO.P,C39,1*%
%TO.N,VCC*%
X261515000Y-119707349D03*
D12*
%TO.P,C39,2*%
%TO.N,GND*%
X261515000Y-124707349D03*
%TD*%
D14*
%TO.P,U19,1,A8*%
%TO.N,/MA8*%
X102130000Y-114490000D03*
D13*
%TO.P,U19,2,D*%
%TO.N,/MD15*%
X104670000Y-114490000D03*
%TO.P,U19,3,~{WE}*%
%TO.N,/~{WE34}*%
X107210000Y-114490000D03*
%TO.P,U19,4,~{RAS}*%
%TO.N,/~{RAS4}*%
X109750000Y-114490000D03*
%TO.P,U19,5,A0*%
%TO.N,/MA0*%
X112290000Y-114490000D03*
%TO.P,U19,6,A2*%
%TO.N,/MA2*%
X114830000Y-114490000D03*
%TO.P,U19,7,A1*%
%TO.N,/MA1*%
X117370000Y-114490000D03*
%TO.P,U19,8,VCC*%
%TO.N,VCC*%
X119910000Y-114490000D03*
%TO.P,U19,9,A7*%
%TO.N,/MA7*%
X119910000Y-106870000D03*
%TO.P,U19,10,A5*%
%TO.N,/MA5*%
X117370000Y-106870000D03*
%TO.P,U19,11,A4*%
%TO.N,/MA4*%
X114830000Y-106870000D03*
%TO.P,U19,12,A3*%
%TO.N,/MA3*%
X112290000Y-106870000D03*
%TO.P,U19,13,A6*%
%TO.N,/MA6*%
X109750000Y-106870000D03*
%TO.P,U19,14,Q*%
%TO.N,/MD15*%
X107210000Y-106870000D03*
%TO.P,U19,15,~{CAS}*%
%TO.N,/~{CASH}*%
X104670000Y-106870000D03*
%TO.P,U19,16,VSS*%
%TO.N,GND*%
X102130000Y-106870000D03*
%TD*%
D14*
%TO.P,Z3,1,common*%
%TO.N,VCC*%
X293900000Y-134810000D03*
D13*
%TO.P,Z3,2,R1*%
%TO.N,unconnected-(Z3-R1-Pad2)*%
X296440000Y-134810000D03*
%TO.P,Z3,3,R2*%
%TO.N,/MD8*%
X298980000Y-134810000D03*
%TO.P,Z3,4,R3*%
%TO.N,/MD9*%
X301520000Y-134810000D03*
%TO.P,Z3,5,R4*%
%TO.N,/MD10*%
X304060000Y-134810000D03*
%TO.P,Z3,6,R5*%
%TO.N,/MD11*%
X306600000Y-134810000D03*
%TO.P,Z3,7,R6*%
%TO.N,/MD12*%
X309140000Y-134810000D03*
%TO.P,Z3,8,R7*%
%TO.N,/MD13*%
X311680000Y-134810000D03*
%TO.P,Z3,9,R8*%
%TO.N,/MD14*%
X314220000Y-134810000D03*
%TO.P,Z3,10,R9*%
%TO.N,/MD15*%
X316760000Y-134810000D03*
%TD*%
D14*
%TO.P,U47,1,A8*%
%TO.N,/MA8*%
X213890000Y-157670000D03*
D13*
%TO.P,U47,2,D*%
%TO.N,/MDPIN0*%
X216430000Y-157670000D03*
%TO.P,U47,3,~{WE}*%
%TO.N,/~{WE2}*%
X218970000Y-157670000D03*
%TO.P,U47,4,~{RAS}*%
%TO.N,/~{RAS2}*%
X221510000Y-157670000D03*
%TO.P,U47,5,A0*%
%TO.N,/MA0*%
X224050000Y-157670000D03*
%TO.P,U47,6,A2*%
%TO.N,/MA2*%
X226590000Y-157670000D03*
%TO.P,U47,7,A1*%
%TO.N,/MA1*%
X229130000Y-157670000D03*
%TO.P,U47,8,VCC*%
%TO.N,VCC*%
X231670000Y-157670000D03*
%TO.P,U47,9,A7*%
%TO.N,/MA7*%
X231670000Y-150050000D03*
%TO.P,U47,10,A5*%
%TO.N,/MA5*%
X229130000Y-150050000D03*
%TO.P,U47,11,A4*%
%TO.N,/MA4*%
X226590000Y-150050000D03*
%TO.P,U47,12,A3*%
%TO.N,/MA3*%
X224050000Y-150050000D03*
%TO.P,U47,13,A6*%
%TO.N,/MA6*%
X221510000Y-150050000D03*
%TO.P,U47,14,Q*%
%TO.N,/MDPOUT0*%
X218970000Y-150050000D03*
%TO.P,U47,15,~{CAS}*%
%TO.N,/~{CASL}*%
X216430000Y-150050000D03*
%TO.P,U47,16,VSS*%
%TO.N,GND*%
X213890000Y-150050000D03*
%TD*%
D14*
%TO.P,U55,1,A->B*%
%TO.N,/~{MEM_DIR}*%
X265960000Y-144970000D03*
D13*
%TO.P,U55,2,A0*%
%TO.N,/D0*%
X268500000Y-144970000D03*
%TO.P,U55,3,A1*%
%TO.N,/D1*%
X271040000Y-144970000D03*
%TO.P,U55,4,A2*%
%TO.N,/D2*%
X273580000Y-144970000D03*
%TO.P,U55,5,A3*%
%TO.N,/D3*%
X276120000Y-144970000D03*
%TO.P,U55,6,A4*%
%TO.N,/D4*%
X278660000Y-144970000D03*
%TO.P,U55,7,A5*%
%TO.N,/D5*%
X281200000Y-144970000D03*
%TO.P,U55,8,A6*%
%TO.N,/D6*%
X283740000Y-144970000D03*
%TO.P,U55,9,A7*%
%TO.N,/D7*%
X286280000Y-144970000D03*
%TO.P,U55,10,GND*%
%TO.N,GND*%
X288820000Y-144970000D03*
%TO.P,U55,11,B7*%
%TO.N,/MD7*%
X288820000Y-137350000D03*
%TO.P,U55,12,B6*%
%TO.N,/MD6*%
X286280000Y-137350000D03*
%TO.P,U55,13,B5*%
%TO.N,/MD5*%
X283740000Y-137350000D03*
%TO.P,U55,14,B4*%
%TO.N,/MD4*%
X281200000Y-137350000D03*
%TO.P,U55,15,B3*%
%TO.N,/MD3*%
X278660000Y-137350000D03*
%TO.P,U55,16,B2*%
%TO.N,/MD2*%
X276120000Y-137350000D03*
%TO.P,U55,17,B1*%
%TO.N,/MD1*%
X273580000Y-137350000D03*
%TO.P,U55,18,B0*%
%TO.N,/MD0*%
X271040000Y-137350000D03*
%TO.P,U55,19,CE*%
%TO.N,Net-(U55-CE)*%
X268500000Y-137350000D03*
%TO.P,U55,20,VCC*%
%TO.N,VCC*%
X265960000Y-137350000D03*
%TD*%
D18*
%TO.N,/MA0*%
X314855000Y-123380000D03*
X289455000Y-123380000D03*
%TO.N,/MA2*%
X292630000Y-122745000D03*
X318030000Y-122745000D03*
%TO.N,/MA1*%
X295170000Y-122110000D03*
X320570000Y-122110000D03*
%TO.N,/MA5*%
X293900000Y-110045000D03*
X344700000Y-110045000D03*
X319300000Y-110045000D03*
%TO.N,/MA4*%
X291360000Y-110680000D03*
X342160000Y-110680000D03*
X316760000Y-110680000D03*
%TO.N,/MA3*%
X312950000Y-111315000D03*
X338350000Y-111315000D03*
X287550000Y-111315000D03*
%TO.N,/MA6*%
X310410000Y-111950000D03*
X335810000Y-111950000D03*
X285010000Y-111950000D03*
%TO.N,/~{CASH}*%
X263420000Y-104965000D03*
%TO.N,/MDPIN1*%
X260880000Y-127190000D03*
%TO.N,/MDPOUT1*%
X265960000Y-150050000D03*
X264055000Y-123380000D03*
X213890000Y-118935000D03*
%TO.N,/~{CASL}*%
X276120000Y-117665000D03*
X240560000Y-162750000D03*
X276120000Y-127190000D03*
%TO.N,/MDPIN0*%
X216430000Y-164020000D03*
X130070000Y-164020000D03*
X53870000Y-164020000D03*
%TO.N,/~{MEM_DIR}*%
X329460000Y-147510000D03*
%TO.N,Net-(U55-CE)*%
X265960000Y-147510000D03*
%TO.N,/D11*%
X298980000Y-155765000D03*
%TO.N,/D10*%
X300250000Y-151955000D03*
%TO.N,/D9*%
X297710000Y-151955000D03*
%TO.N,/D8*%
X295170000Y-151955000D03*
%TO.N,Net-(U56-CE)*%
X291360000Y-146875000D03*
%TO.N,/XA*%
X359940000Y-150050000D03*
X273580000Y-150050000D03*
%TO.N,/XB*%
X349780000Y-152590000D03*
%TO.N,/MD10*%
X271040000Y-85915000D03*
X329460000Y-129730000D03*
%TO.N,/MD11*%
X268500000Y-96710000D03*
X269770000Y-127825000D03*
%TO.N,/MD14*%
X156740000Y-110680000D03*
X272945000Y-126555000D03*
X238020000Y-110680000D03*
X271040000Y-114490000D03*
%TO.N,/MD15*%
X298345000Y-115760000D03*
X301520000Y-127825000D03*
%TO.N,/MD1*%
X156740000Y-128460000D03*
X243100000Y-128460000D03*
%TO.N,/MD4*%
X156740000Y-141160000D03*
X243100000Y-141160000D03*
%TO.N,/MD5*%
X304060000Y-142430000D03*
%TO.N,/MD6*%
X156740000Y-153860000D03*
X257070000Y-142430000D03*
X257070000Y-153860000D03*
X243100000Y-153860000D03*
X286280000Y-141160000D03*
%TO.N,/MD7*%
X259610000Y-157670000D03*
X288820000Y-142430000D03*
X260245000Y-142430000D03*
%TO.N,/MD8*%
X267230000Y-81470000D03*
X269135000Y-129730000D03*
%TO.N,/MD9*%
X265325000Y-131000000D03*
X238655000Y-84645000D03*
X156740000Y-85280000D03*
X265325000Y-83375000D03*
%TO.N,/MD12*%
X271040000Y-126555000D03*
X156740000Y-97980000D03*
X271040000Y-97980000D03*
X238020000Y-97980000D03*
%TO.N,/MD13*%
X303425000Y-131000000D03*
%TO.N,/A2*%
X318030000Y-148145000D03*
X337080000Y-147510000D03*
%TO.N,/A0*%
X320570000Y-148145000D03*
X332000000Y-147510000D03*
%TO.N,/A1*%
X342160000Y-147510000D03*
X315490000Y-151955000D03*
%TO.N,/A3*%
X319300000Y-142430000D03*
%TO.N,/A5*%
X316760000Y-150050000D03*
%TO.N,/A4*%
X319300000Y-149415000D03*
%TO.N,/A7*%
X342160000Y-150050000D03*
X314220000Y-153225000D03*
%TO.N,/~{RAS2}*%
X311680000Y-124015000D03*
X246910000Y-161480000D03*
X286280000Y-124015000D03*
X221510000Y-161480000D03*
%TO.N,/~{RAS3}*%
X160550000Y-161480000D03*
X135150000Y-161480000D03*
X135150000Y-85280000D03*
X185950000Y-161480000D03*
%TO.N,/~{RAS4}*%
X84350000Y-162750000D03*
X58950000Y-162750000D03*
X109750000Y-162750000D03*
%TD*%
D19*
%TO.N,/MA8*%
X278660000Y-114490000D02*
X281200000Y-117030000D01*
X180235000Y-159575000D02*
X198015000Y-159575000D01*
X53235000Y-159575000D02*
X69745000Y-159575000D01*
X301520000Y-117030000D02*
X304060000Y-114490000D01*
X258340000Y-117665000D02*
X256435000Y-119570000D01*
X269770000Y-124650000D02*
X262785000Y-117665000D01*
X102130000Y-157670000D02*
X104035000Y-159575000D01*
X71650000Y-157670000D02*
X76730000Y-157670000D01*
X232940000Y-159575000D02*
X215795000Y-159575000D01*
X173250000Y-157670000D02*
X178330000Y-157670000D01*
X215795000Y-159575000D02*
X213890000Y-157670000D01*
X51330000Y-157670000D02*
X53235000Y-159575000D01*
X95145000Y-159575000D02*
X97050000Y-157670000D01*
X152930000Y-157670000D02*
X154835000Y-159575000D01*
X69745000Y-159575000D02*
X71650000Y-157670000D01*
X281200000Y-117030000D02*
X301520000Y-117030000D01*
X239290000Y-119570000D02*
X234210000Y-114490000D01*
X262785000Y-117665000D02*
X258340000Y-117665000D01*
X329460000Y-127190000D02*
X327555000Y-129095000D01*
X76730000Y-157670000D02*
X78635000Y-159575000D01*
X327555000Y-129095000D02*
X305965000Y-129095000D01*
X256435000Y-119570000D02*
X239290000Y-119570000D01*
X145945000Y-159575000D02*
X147850000Y-157670000D01*
X178330000Y-157670000D02*
X180235000Y-159575000D01*
X127530000Y-157670000D02*
X129435000Y-159575000D01*
X154835000Y-159575000D02*
X171345000Y-159575000D01*
X198015000Y-159575000D02*
X199920000Y-157670000D01*
X78635000Y-159575000D02*
X95145000Y-159575000D01*
X278660000Y-127190000D02*
X276120000Y-124650000D01*
X305965000Y-129095000D02*
X304060000Y-127190000D01*
X97050000Y-157670000D02*
X102130000Y-157670000D01*
X199920000Y-157670000D02*
X213890000Y-157670000D01*
X120545000Y-159575000D02*
X122450000Y-157670000D01*
X276120000Y-124650000D02*
X269770000Y-124650000D01*
X147850000Y-157670000D02*
X152930000Y-157670000D01*
X122450000Y-157670000D02*
X127530000Y-157670000D01*
X234845000Y-157670000D02*
X232940000Y-159575000D01*
X171345000Y-159575000D02*
X173250000Y-157670000D01*
X129435000Y-159575000D02*
X145945000Y-159575000D01*
X239290000Y-157670000D02*
X234845000Y-157670000D01*
X104035000Y-159575000D02*
X120545000Y-159575000D01*
%TO.N,Net-(C71-Pad1)*%
X37995000Y-111950000D02*
X37995000Y-114530000D01*
%TO.N,/MA0*%
X222145000Y-134175000D02*
X190395000Y-134175000D01*
X225955000Y-134175000D02*
X224050000Y-132270000D01*
X247545000Y-134175000D02*
X225955000Y-134175000D01*
X86890000Y-132270000D02*
X88795000Y-134175000D01*
X312315000Y-122745000D02*
X297710000Y-122745000D01*
X112290000Y-132270000D02*
X114195000Y-134175000D01*
X63395000Y-134175000D02*
X84985000Y-134175000D01*
X224050000Y-132270000D02*
X222145000Y-134175000D01*
X289455000Y-123380000D02*
X288820000Y-122745000D01*
X164995000Y-134175000D02*
X186585000Y-134175000D01*
X61490000Y-132270000D02*
X63395000Y-134175000D01*
X190395000Y-134175000D02*
X188490000Y-132270000D01*
X254530000Y-117665000D02*
X247545000Y-117665000D01*
X163090000Y-132270000D02*
X164995000Y-134175000D01*
X335175000Y-124015000D02*
X315490000Y-124015000D01*
X135785000Y-134175000D02*
X137690000Y-132270000D01*
X114195000Y-134175000D02*
X135785000Y-134175000D01*
X137690000Y-132270000D02*
X139595000Y-134175000D01*
X288820000Y-122745000D02*
X271675000Y-122745000D01*
X336445000Y-124015000D02*
X335175000Y-124015000D01*
X186585000Y-134175000D02*
X188490000Y-132270000D01*
X295170000Y-124015000D02*
X290090000Y-124015000D01*
X88795000Y-134175000D02*
X110385000Y-134175000D01*
X314220000Y-122745000D02*
X312315000Y-122745000D01*
X271675000Y-122745000D02*
X264690000Y-115760000D01*
X315490000Y-124015000D02*
X314855000Y-123380000D01*
X249450000Y-132270000D02*
X247545000Y-134175000D01*
X297075000Y-123380000D02*
X296440000Y-124015000D01*
X264690000Y-115760000D02*
X256435000Y-115760000D01*
X161185000Y-134175000D02*
X163090000Y-132270000D01*
X314855000Y-123380000D02*
X314220000Y-122745000D01*
X84985000Y-134175000D02*
X86890000Y-132270000D01*
X297710000Y-122745000D02*
X297075000Y-123380000D01*
X296440000Y-124015000D02*
X295170000Y-124015000D01*
X290090000Y-124015000D02*
X289455000Y-123380000D01*
X339620000Y-127190000D02*
X336445000Y-124015000D01*
X256435000Y-115760000D02*
X254530000Y-117665000D01*
X247545000Y-117665000D02*
X244370000Y-114490000D01*
X110385000Y-134175000D02*
X112290000Y-132270000D01*
X314855000Y-123380000D02*
X315172500Y-123697500D01*
X139595000Y-134175000D02*
X161185000Y-134175000D01*
%TO.N,/MA2*%
X272310000Y-122110000D02*
X265325000Y-115125000D01*
X265325000Y-115125000D02*
X255800000Y-115125000D01*
X317395000Y-122110000D02*
X312315000Y-122110000D01*
X318665000Y-123380000D02*
X318030000Y-122745000D01*
X116735000Y-103695000D02*
X114830000Y-101790000D01*
X295805000Y-123380000D02*
X295170000Y-123380000D01*
X249450000Y-117030000D02*
X246910000Y-114490000D01*
X167535000Y-103695000D02*
X165630000Y-101790000D01*
X114830000Y-101790000D02*
X112925000Y-103695000D01*
X255800000Y-115125000D02*
X253895000Y-117030000D01*
X295170000Y-123380000D02*
X293265000Y-123380000D01*
X333905000Y-123380000D02*
X318665000Y-123380000D01*
X297075000Y-122110000D02*
X295805000Y-123380000D01*
X189125000Y-103695000D02*
X167535000Y-103695000D01*
X138325000Y-103695000D02*
X116735000Y-103695000D01*
X65935000Y-103695000D02*
X64030000Y-101790000D01*
X87525000Y-103695000D02*
X65935000Y-103695000D01*
X312315000Y-122110000D02*
X298980000Y-122110000D01*
X219605000Y-103695000D02*
X192935000Y-103695000D01*
X91335000Y-103695000D02*
X89430000Y-101790000D01*
X140230000Y-101790000D02*
X138325000Y-103695000D01*
X245005000Y-103695000D02*
X223415000Y-103695000D01*
X338350000Y-123380000D02*
X333905000Y-123380000D01*
X298980000Y-122110000D02*
X297075000Y-122110000D01*
X89430000Y-101790000D02*
X87525000Y-103695000D01*
X221510000Y-101790000D02*
X219605000Y-103695000D01*
X253895000Y-117030000D02*
X249450000Y-117030000D01*
X292630000Y-122745000D02*
X291995000Y-122110000D01*
X191030000Y-101790000D02*
X189125000Y-103695000D01*
X165630000Y-101790000D02*
X163725000Y-103695000D01*
X112925000Y-103695000D02*
X91335000Y-103695000D01*
X318030000Y-122745000D02*
X317395000Y-122110000D01*
X291995000Y-122110000D02*
X272310000Y-122110000D01*
X142135000Y-103695000D02*
X140230000Y-101790000D01*
X246910000Y-101790000D02*
X245005000Y-103695000D01*
X293265000Y-123380000D02*
X292630000Y-122745000D01*
X163725000Y-103695000D02*
X142135000Y-103695000D01*
X192935000Y-103695000D02*
X191030000Y-101790000D01*
X223415000Y-103695000D02*
X221510000Y-101790000D01*
X342160000Y-127190000D02*
X338350000Y-123380000D01*
%TO.N,/MA1*%
X142770000Y-89090000D02*
X140865000Y-90995000D01*
X295170000Y-122110000D02*
X294535000Y-121475000D01*
X253260000Y-116395000D02*
X251355000Y-116395000D01*
X222145000Y-90995000D02*
X195475000Y-90995000D01*
X339620000Y-122110000D02*
X335810000Y-122110000D01*
X224050000Y-89090000D02*
X222145000Y-90995000D01*
X319935000Y-121475000D02*
X315490000Y-121475000D01*
X249450000Y-89090000D02*
X247545000Y-90995000D01*
X315490000Y-121475000D02*
X295805000Y-121475000D01*
X91970000Y-89090000D02*
X90065000Y-90995000D01*
X265960000Y-114490000D02*
X255165000Y-114490000D01*
X68475000Y-90995000D02*
X66570000Y-89090000D01*
X166265000Y-90995000D02*
X144675000Y-90995000D01*
X225955000Y-90995000D02*
X224050000Y-89090000D01*
X344700000Y-127190000D02*
X339620000Y-122110000D01*
X272945000Y-121475000D02*
X265960000Y-114490000D01*
X335810000Y-122110000D02*
X320570000Y-122110000D01*
X119275000Y-90995000D02*
X117370000Y-89090000D01*
X90065000Y-90995000D02*
X68475000Y-90995000D01*
X170075000Y-90995000D02*
X168170000Y-89090000D01*
X295805000Y-121475000D02*
X295170000Y-122110000D01*
X115465000Y-90995000D02*
X93875000Y-90995000D01*
X144675000Y-90995000D02*
X142770000Y-89090000D01*
X255165000Y-114490000D02*
X253260000Y-116395000D01*
X247545000Y-90995000D02*
X225955000Y-90995000D01*
X251355000Y-116395000D02*
X249450000Y-114490000D01*
X294535000Y-121475000D02*
X272945000Y-121475000D01*
X168170000Y-89090000D02*
X166265000Y-90995000D01*
X191665000Y-90995000D02*
X170075000Y-90995000D01*
X195475000Y-90995000D02*
X193570000Y-89090000D01*
X93875000Y-90995000D02*
X91970000Y-89090000D01*
X320570000Y-122110000D02*
X319935000Y-121475000D01*
X193570000Y-89090000D02*
X191665000Y-90995000D01*
X117370000Y-89090000D02*
X115465000Y-90995000D01*
X140865000Y-90995000D02*
X119275000Y-90995000D01*
%TO.N,/MA7*%
X321840000Y-106870000D02*
X319935000Y-108775000D01*
X251990000Y-106870000D02*
X257070000Y-106870000D01*
X257070000Y-106870000D02*
X258975000Y-108775000D01*
X319935000Y-108775000D02*
X298345000Y-108775000D01*
X294535000Y-108775000D02*
X296440000Y-106870000D01*
X298345000Y-108775000D02*
X296440000Y-106870000D01*
X347240000Y-106870000D02*
X345335000Y-108775000D01*
X258975000Y-108775000D02*
X294535000Y-108775000D01*
X323745000Y-108775000D02*
X321840000Y-106870000D01*
X345335000Y-108775000D02*
X323745000Y-108775000D01*
%TO.N,/MA5*%
X344700000Y-110045000D02*
X344065000Y-109410000D01*
X89430000Y-78930000D02*
X91970000Y-81470000D01*
X96415000Y-77025000D02*
X112925000Y-77025000D01*
X293900000Y-110045000D02*
X293265000Y-109410000D01*
X112925000Y-77025000D02*
X117370000Y-81470000D01*
X245005000Y-77025000D02*
X228495000Y-77025000D01*
X66570000Y-81470000D02*
X68475000Y-79565000D01*
X249450000Y-81470000D02*
X245005000Y-77025000D01*
X121815000Y-77025000D02*
X138325000Y-77025000D01*
X117370000Y-81470000D02*
X121815000Y-77025000D01*
X293265000Y-109410000D02*
X251990000Y-109410000D01*
X251990000Y-109410000D02*
X249450000Y-106870000D01*
X64030000Y-77025000D02*
X64030000Y-78930000D01*
X142770000Y-81470000D02*
X147215000Y-77025000D01*
X69745000Y-79565000D02*
X70380000Y-78930000D01*
X344065000Y-109410000D02*
X319935000Y-109410000D01*
X198015000Y-77025000D02*
X193570000Y-81470000D01*
X64030000Y-78930000D02*
X66570000Y-81470000D01*
X224050000Y-81470000D02*
X219605000Y-77025000D01*
X91970000Y-81470000D02*
X96415000Y-77025000D01*
X319300000Y-110045000D02*
X318665000Y-109410000D01*
X138325000Y-77025000D02*
X142770000Y-81470000D01*
X68475000Y-79565000D02*
X69745000Y-79565000D01*
X189125000Y-77025000D02*
X193570000Y-81470000D01*
X318665000Y-109410000D02*
X294535000Y-109410000D01*
X163725000Y-77025000D02*
X168170000Y-81470000D01*
X147215000Y-77025000D02*
X163725000Y-77025000D01*
X70380000Y-78930000D02*
X89430000Y-78930000D01*
X294535000Y-109410000D02*
X293900000Y-110045000D01*
X228495000Y-77025000D02*
X224050000Y-81470000D01*
X168170000Y-81470000D02*
X172615000Y-77025000D01*
X219605000Y-77025000D02*
X198015000Y-77025000D01*
X319935000Y-109410000D02*
X319300000Y-110045000D01*
X172615000Y-77025000D02*
X189125000Y-77025000D01*
%TO.N,/MA4*%
X341525000Y-110045000D02*
X342160000Y-110680000D01*
X61490000Y-78930000D02*
X64030000Y-81470000D01*
X291995000Y-111315000D02*
X291360000Y-110680000D01*
X142135000Y-92265000D02*
X163725000Y-92265000D01*
X140230000Y-94170000D02*
X142135000Y-92265000D01*
X91335000Y-92265000D02*
X112925000Y-92265000D01*
X89430000Y-94170000D02*
X91335000Y-92265000D01*
X246910000Y-94170000D02*
X245005000Y-92265000D01*
X165630000Y-94170000D02*
X167535000Y-92265000D01*
X64030000Y-94170000D02*
X65935000Y-92265000D01*
X223415000Y-92265000D02*
X221510000Y-94170000D01*
X192935000Y-92265000D02*
X191030000Y-94170000D01*
X138325000Y-92265000D02*
X140230000Y-94170000D01*
X317395000Y-111315000D02*
X325650000Y-111315000D01*
X219605000Y-92265000D02*
X192935000Y-92265000D01*
X221510000Y-94170000D02*
X219605000Y-92265000D01*
X316760000Y-110680000D02*
X316125000Y-110045000D01*
X112925000Y-92265000D02*
X114830000Y-94170000D01*
X301520000Y-110045000D02*
X300250000Y-111315000D01*
X167535000Y-92265000D02*
X189125000Y-92265000D01*
X316125000Y-110045000D02*
X301520000Y-110045000D01*
X163725000Y-92265000D02*
X165630000Y-94170000D01*
X65935000Y-92265000D02*
X87525000Y-92265000D01*
X60855000Y-78930000D02*
X61490000Y-78930000D01*
X245005000Y-92265000D02*
X223415000Y-92265000D01*
X290725000Y-110045000D02*
X250085000Y-110045000D01*
X291360000Y-110680000D02*
X290725000Y-110045000D01*
X250085000Y-110045000D02*
X246910000Y-106870000D01*
X87525000Y-92265000D02*
X89430000Y-94170000D01*
X58950000Y-77025000D02*
X60855000Y-78930000D01*
X325650000Y-111315000D02*
X326920000Y-110045000D01*
X114830000Y-94170000D02*
X116735000Y-92265000D01*
X316760000Y-110680000D02*
X317395000Y-111315000D01*
X189125000Y-92265000D02*
X191030000Y-94170000D01*
X326920000Y-110045000D02*
X341525000Y-110045000D01*
X116735000Y-92265000D02*
X138325000Y-92265000D01*
X300250000Y-111315000D02*
X291995000Y-111315000D01*
%TO.N,/MA3*%
X112290000Y-124650000D02*
X114195000Y-122745000D01*
X190395000Y-122745000D02*
X222145000Y-122745000D01*
X135785000Y-122745000D02*
X137690000Y-124650000D01*
X88795000Y-122745000D02*
X110385000Y-122745000D01*
X312950000Y-111315000D02*
X313585000Y-111950000D01*
X288185000Y-111950000D02*
X287550000Y-111315000D01*
X249450000Y-124650000D02*
X247545000Y-122745000D01*
X139595000Y-122745000D02*
X161185000Y-122745000D01*
X312315000Y-110680000D02*
X302155000Y-110680000D01*
X287550000Y-111315000D02*
X286915000Y-110680000D01*
X248180000Y-110680000D02*
X244370000Y-106870000D01*
X286915000Y-110680000D02*
X248180000Y-110680000D01*
X86890000Y-124650000D02*
X88795000Y-122745000D01*
X225955000Y-122745000D02*
X224050000Y-124650000D01*
X337715000Y-110680000D02*
X338350000Y-111315000D01*
X186585000Y-122745000D02*
X188490000Y-124650000D01*
X59585000Y-79565000D02*
X61490000Y-81470000D01*
X53870000Y-77025000D02*
X56410000Y-79565000D01*
X114195000Y-122745000D02*
X135785000Y-122745000D01*
X61490000Y-124650000D02*
X63395000Y-122745000D01*
X161185000Y-122745000D02*
X163090000Y-124650000D01*
X63395000Y-122745000D02*
X84985000Y-122745000D01*
X110385000Y-122745000D02*
X112290000Y-124650000D01*
X247545000Y-122745000D02*
X225955000Y-122745000D01*
X312950000Y-111315000D02*
X312315000Y-110680000D01*
X327555000Y-110680000D02*
X337715000Y-110680000D01*
X326285000Y-111950000D02*
X327555000Y-110680000D01*
X302155000Y-110680000D02*
X300885000Y-111950000D01*
X300885000Y-111950000D02*
X288185000Y-111950000D01*
X164995000Y-122745000D02*
X186585000Y-122745000D01*
X163090000Y-124650000D02*
X164995000Y-122745000D01*
X222145000Y-122745000D02*
X224050000Y-124650000D01*
X137690000Y-124650000D02*
X139595000Y-122745000D01*
X84985000Y-122745000D02*
X86890000Y-124650000D01*
X188490000Y-124650000D02*
X190395000Y-122745000D01*
X313585000Y-111950000D02*
X326285000Y-111950000D01*
X56410000Y-79565000D02*
X59585000Y-79565000D01*
%TO.N,/MA6*%
X135150000Y-137350000D02*
X137055000Y-135445000D01*
X246275000Y-111315000D02*
X241830000Y-106870000D01*
X219605000Y-135445000D02*
X187855000Y-135445000D01*
X335810000Y-111950000D02*
X335175000Y-112585000D01*
X223415000Y-135445000D02*
X221510000Y-137350000D01*
X221510000Y-137350000D02*
X219605000Y-135445000D01*
X137055000Y-135445000D02*
X158645000Y-135445000D01*
X60855000Y-135445000D02*
X82445000Y-135445000D01*
X162455000Y-135445000D02*
X184045000Y-135445000D01*
X84350000Y-137350000D02*
X86255000Y-135445000D01*
X158645000Y-135445000D02*
X160550000Y-137350000D01*
X311045000Y-112585000D02*
X310410000Y-111950000D01*
X245005000Y-135445000D02*
X223415000Y-135445000D01*
X307235000Y-112585000D02*
X285645000Y-112585000D01*
X107845000Y-135445000D02*
X109750000Y-137350000D01*
X246910000Y-137350000D02*
X245005000Y-135445000D01*
X86255000Y-135445000D02*
X107845000Y-135445000D01*
X335175000Y-112585000D02*
X333270000Y-112585000D01*
X309775000Y-112585000D02*
X307235000Y-112585000D01*
X285010000Y-111950000D02*
X284375000Y-111315000D01*
X284375000Y-111315000D02*
X246275000Y-111315000D01*
X160550000Y-137350000D02*
X162455000Y-135445000D01*
X109750000Y-137350000D02*
X111655000Y-135445000D01*
X133245000Y-135445000D02*
X135150000Y-137350000D01*
X333270000Y-112585000D02*
X311045000Y-112585000D01*
X187855000Y-135445000D02*
X185950000Y-137350000D01*
X310410000Y-111950000D02*
X309775000Y-112585000D01*
X58950000Y-137350000D02*
X60855000Y-135445000D01*
X184045000Y-135445000D02*
X185950000Y-137350000D01*
X285645000Y-112585000D02*
X285010000Y-111950000D01*
X82445000Y-135445000D02*
X84350000Y-137350000D01*
X111655000Y-135445000D02*
X133245000Y-135445000D01*
%TO.N,/~{CASH}*%
X236750000Y-106870000D02*
X234845000Y-104965000D01*
X130070000Y-106870000D02*
X128165000Y-104965000D01*
X153565000Y-104965000D02*
X131975000Y-104965000D01*
X102765000Y-104965000D02*
X81175000Y-104965000D01*
X281200000Y-106870000D02*
X279295000Y-104965000D01*
X211350000Y-106870000D02*
X209445000Y-104965000D01*
X155470000Y-106870000D02*
X153565000Y-104965000D01*
X104670000Y-106870000D02*
X102765000Y-104965000D01*
X234845000Y-104965000D02*
X213255000Y-104965000D01*
X128165000Y-104965000D02*
X106575000Y-104965000D01*
X182775000Y-104965000D02*
X180870000Y-106870000D01*
X77365000Y-104965000D02*
X55775000Y-104965000D01*
X263420000Y-104965000D02*
X238655000Y-104965000D01*
X81175000Y-104965000D02*
X79270000Y-106870000D01*
X213255000Y-104965000D02*
X211350000Y-106870000D01*
X106575000Y-104965000D02*
X104670000Y-106870000D01*
X238655000Y-104965000D02*
X236750000Y-106870000D01*
X55775000Y-104965000D02*
X53870000Y-106870000D01*
X178965000Y-104965000D02*
X157375000Y-104965000D01*
X180870000Y-106870000D02*
X178965000Y-104965000D01*
X209445000Y-104965000D02*
X182775000Y-104965000D01*
X79270000Y-106870000D02*
X77365000Y-104965000D01*
X131975000Y-104965000D02*
X130070000Y-106870000D01*
X157375000Y-104965000D02*
X155470000Y-106870000D01*
X277390000Y-104965000D02*
X263420000Y-104965000D01*
X279295000Y-104965000D02*
X277390000Y-104965000D01*
X283105000Y-104965000D02*
X304695000Y-104965000D01*
X281200000Y-106870000D02*
X283105000Y-104965000D01*
X304695000Y-104965000D02*
X306600000Y-106870000D01*
%TO.N,GND*%
X331365000Y-162750000D02*
X329460000Y-160845000D01*
X337715000Y-162750000D02*
X331365000Y-162750000D01*
X339620000Y-160845000D02*
X337715000Y-162750000D01*
%TO.N,/MDPIN1*%
X249450000Y-121475000D02*
X250085000Y-122110000D01*
X257705000Y-122745000D02*
X258975000Y-124015000D01*
X130070000Y-114490000D02*
X127530000Y-117030000D01*
X132610000Y-117030000D02*
X130070000Y-114490000D01*
X259610000Y-125920000D02*
X260880000Y-127190000D01*
X211350000Y-114490000D02*
X211350000Y-113220000D01*
X250720000Y-122745000D02*
X253260000Y-122745000D01*
X258975000Y-125285000D02*
X259610000Y-125920000D01*
X56410000Y-117030000D02*
X53870000Y-114490000D01*
X258975000Y-124015000D02*
X258975000Y-124650000D01*
X211350000Y-118935000D02*
X212620000Y-120205000D01*
X212620000Y-120205000D02*
X213890000Y-121475000D01*
X127530000Y-117030000D02*
X56410000Y-117030000D01*
X211350000Y-114490000D02*
X211350000Y-118935000D01*
X211350000Y-113220000D02*
X210715000Y-112585000D01*
X217065000Y-121475000D02*
X249450000Y-121475000D01*
X253260000Y-122745000D02*
X257705000Y-122745000D01*
X201825000Y-117030000D02*
X132610000Y-117030000D01*
X206270000Y-112585000D02*
X201825000Y-117030000D01*
X213890000Y-121475000D02*
X217065000Y-121475000D01*
X210715000Y-112585000D02*
X206270000Y-112585000D01*
X258975000Y-124650000D02*
X258975000Y-125285000D01*
X250085000Y-122110000D02*
X250720000Y-122745000D01*
%TO.N,/MDPOUT1*%
X58950000Y-109410000D02*
X130070000Y-109410000D01*
X255800000Y-120205000D02*
X234210000Y-120205000D01*
X263420000Y-122745000D02*
X262785000Y-122110000D01*
X265960000Y-150050000D02*
X267865000Y-151955000D01*
X130070000Y-109410000D02*
X132610000Y-106870000D01*
X233575000Y-119570000D02*
X232940000Y-118935000D01*
X48790000Y-127190000D02*
X48790000Y-111315000D01*
X259610000Y-121475000D02*
X258340000Y-121475000D01*
X41805000Y-129730000D02*
X46250000Y-129730000D01*
X39900000Y-134175000D02*
X39900000Y-131635000D01*
X267865000Y-151955000D02*
X290090000Y-151955000D01*
X56410000Y-106870000D02*
X58950000Y-109410000D01*
X48790000Y-111315000D02*
X50695000Y-109410000D01*
X135150000Y-109410000D02*
X211350000Y-109410000D01*
X290090000Y-151955000D02*
X291995000Y-150050000D01*
X257070000Y-120205000D02*
X255800000Y-120205000D01*
X39900000Y-131635000D02*
X41805000Y-129730000D01*
X257705000Y-120840000D02*
X257070000Y-120205000D01*
X262150000Y-121475000D02*
X259610000Y-121475000D01*
X53870000Y-109410000D02*
X56410000Y-106870000D01*
X262785000Y-122110000D02*
X262150000Y-121475000D01*
X291995000Y-150050000D02*
X303425000Y-150050000D01*
X234210000Y-120205000D02*
X233575000Y-119570000D01*
X132610000Y-106870000D02*
X135150000Y-109410000D01*
X258340000Y-121475000D02*
X257705000Y-120840000D01*
X211350000Y-109410000D02*
X213890000Y-106870000D01*
X232940000Y-118935000D02*
X231035000Y-118935000D01*
X303425000Y-150050000D02*
X311680000Y-158305000D01*
X264055000Y-123380000D02*
X263420000Y-122745000D01*
X50695000Y-109410000D02*
X53870000Y-109410000D01*
X231035000Y-118935000D02*
X213890000Y-118935000D01*
X46250000Y-129730000D02*
X48790000Y-127190000D01*
%TO.N,/~{CASL}*%
X79270000Y-150050000D02*
X81175000Y-148145000D01*
X243735000Y-126555000D02*
X241830000Y-124650000D01*
X267865000Y-125285000D02*
X264690000Y-128460000D01*
X332000000Y-119570000D02*
X330095000Y-117665000D01*
X53870000Y-150050000D02*
X55775000Y-148145000D01*
X106575000Y-148145000D02*
X128165000Y-148145000D01*
X306600000Y-119570000D02*
X304695000Y-117665000D01*
X304695000Y-117665000D02*
X283105000Y-117665000D01*
X274215000Y-125285000D02*
X267865000Y-125285000D01*
X216430000Y-150050000D02*
X214525000Y-148145000D01*
X202460000Y-148145000D02*
X182775000Y-148145000D01*
X258340000Y-126555000D02*
X243735000Y-126555000D01*
X264690000Y-128460000D02*
X260245000Y-128460000D01*
X304060000Y-160845000D02*
X304060000Y-162750000D01*
X205000000Y-145605000D02*
X202460000Y-148145000D01*
X210080000Y-145605000D02*
X205000000Y-145605000D01*
X214525000Y-148145000D02*
X212620000Y-148145000D01*
X281200000Y-119570000D02*
X279295000Y-117665000D01*
X130070000Y-150050000D02*
X131975000Y-148145000D01*
X241830000Y-150050000D02*
X239925000Y-148145000D01*
X178965000Y-148145000D02*
X180870000Y-150050000D01*
X157375000Y-148145000D02*
X178965000Y-148145000D01*
X104670000Y-150050000D02*
X106575000Y-148145000D01*
X182775000Y-148145000D02*
X180870000Y-150050000D01*
X279295000Y-117665000D02*
X276120000Y-117665000D01*
X155470000Y-150050000D02*
X157375000Y-148145000D01*
X308505000Y-117665000D02*
X306600000Y-119570000D01*
X276120000Y-127190000D02*
X274215000Y-125285000D01*
X283105000Y-117665000D02*
X281200000Y-119570000D01*
X260245000Y-128460000D02*
X258340000Y-126555000D01*
X302790000Y-164020000D02*
X259610000Y-164020000D01*
X153565000Y-148145000D02*
X155470000Y-150050000D01*
X259610000Y-164020000D02*
X241830000Y-164020000D01*
X241830000Y-164020000D02*
X240560000Y-162750000D01*
X131975000Y-148145000D02*
X153565000Y-148145000D01*
X55775000Y-148145000D02*
X77365000Y-148145000D01*
X128165000Y-148145000D02*
X130070000Y-150050000D01*
X102765000Y-148145000D02*
X104670000Y-150050000D01*
X239925000Y-148145000D02*
X218335000Y-148145000D01*
X330095000Y-117665000D02*
X308505000Y-117665000D01*
X218335000Y-148145000D02*
X216430000Y-150050000D01*
X81175000Y-148145000D02*
X102765000Y-148145000D01*
X304060000Y-162750000D02*
X302790000Y-164020000D01*
X212620000Y-148145000D02*
X210080000Y-145605000D01*
X77365000Y-148145000D02*
X79270000Y-150050000D01*
%TO.N,/MDPIN0*%
X215795000Y-164020000D02*
X194840000Y-164020000D01*
X130070000Y-164020000D02*
X129435000Y-164020000D01*
X129435000Y-164020000D02*
X53870000Y-164020000D01*
X309140000Y-163385000D02*
X309140000Y-161480000D01*
X307870000Y-164655000D02*
X309140000Y-163385000D01*
X217065000Y-164655000D02*
X307870000Y-164655000D01*
X216430000Y-164020000D02*
X217065000Y-164655000D01*
X216430000Y-164020000D02*
X215795000Y-164020000D01*
X194840000Y-164020000D02*
X130070000Y-164020000D01*
%TO.N,/MDPOUT0*%
X301520000Y-150685000D02*
X293900000Y-150685000D01*
X216430000Y-152590000D02*
X218970000Y-150050000D01*
X135150000Y-152590000D02*
X216430000Y-152590000D01*
X309140000Y-158305000D02*
X301520000Y-150685000D01*
X293900000Y-150685000D02*
X291995000Y-152590000D01*
X56410000Y-150050000D02*
X58950000Y-152590000D01*
X58950000Y-152590000D02*
X130070000Y-152590000D01*
X40535000Y-152590000D02*
X53870000Y-152590000D01*
X132610000Y-150050000D02*
X135150000Y-152590000D01*
X291995000Y-152590000D02*
X221510000Y-152590000D01*
X37360000Y-146875000D02*
X37360000Y-149415000D01*
X221510000Y-152590000D02*
X218970000Y-150050000D01*
X130070000Y-152590000D02*
X132610000Y-150050000D01*
X37360000Y-149415000D02*
X40535000Y-152590000D01*
X53870000Y-152590000D02*
X56410000Y-150050000D01*
%TO.N,/~{MEM_DIR}*%
X293900000Y-144970000D02*
X295805000Y-146875000D01*
X328825000Y-146875000D02*
X329460000Y-147510000D01*
X291360000Y-144970000D02*
X289455000Y-146875000D01*
X267865000Y-146875000D02*
X265960000Y-144970000D01*
X295805000Y-146875000D02*
X328825000Y-146875000D01*
X289455000Y-146875000D02*
X267865000Y-146875000D01*
X293900000Y-144970000D02*
X291360000Y-144970000D01*
%TO.N,Net-(U55-CE)*%
X347240000Y-148780000D02*
X356765000Y-148780000D01*
X266595000Y-148145000D02*
X305330000Y-148145000D01*
X359940000Y-147510000D02*
X362480000Y-144970000D01*
X305330000Y-148145000D02*
X312315000Y-155130000D01*
X358035000Y-147510000D02*
X359940000Y-147510000D01*
X265960000Y-147510000D02*
X266595000Y-148145000D01*
X312315000Y-155130000D02*
X340890000Y-155130000D01*
X340890000Y-155130000D02*
X347240000Y-148780000D01*
X356765000Y-148780000D02*
X358035000Y-147510000D01*
%TO.N,/D11*%
X296440000Y-158305000D02*
X298980000Y-155765000D01*
%TO.N,/D10*%
X293900000Y-158305000D02*
X300250000Y-151955000D01*
%TO.N,/D9*%
X291360000Y-158305000D02*
X297710000Y-151955000D01*
%TO.N,/D8*%
X288820000Y-158305000D02*
X295170000Y-151955000D01*
%TO.N,Net-(U56-CE)*%
X347240000Y-147510000D02*
X352320000Y-147510000D01*
X291360000Y-146875000D02*
X291995000Y-147510000D01*
X291995000Y-147510000D02*
X305965000Y-147510000D01*
X305965000Y-147510000D02*
X312950000Y-154495000D01*
X312950000Y-154495000D02*
X340255000Y-154495000D01*
X340255000Y-154495000D02*
X347240000Y-147510000D01*
X352320000Y-147510000D02*
X354860000Y-144970000D01*
%TO.N,/XA*%
X347240000Y-150050000D02*
X341525000Y-155765000D01*
X274850000Y-148780000D02*
X273580000Y-150050000D01*
X359940000Y-150050000D02*
X347240000Y-150050000D01*
X304695000Y-148780000D02*
X274850000Y-148780000D01*
X341525000Y-155765000D02*
X311680000Y-155765000D01*
X311680000Y-155765000D02*
X304695000Y-148780000D01*
%TO.N,/XB*%
X328825000Y-156400000D02*
X342160000Y-156400000D01*
X342160000Y-156400000D02*
X345970000Y-152590000D01*
X345970000Y-152590000D02*
X349780000Y-152590000D01*
X326920000Y-158305000D02*
X328825000Y-156400000D01*
%TO.N,/MD10*%
X305965000Y-139255000D02*
X304060000Y-137350000D01*
X211985000Y-86550000D02*
X183410000Y-86550000D01*
X178330000Y-86550000D02*
X142770000Y-86550000D01*
X142770000Y-86550000D02*
X142135000Y-87185000D01*
X325015000Y-129730000D02*
X318665000Y-136080000D01*
X183410000Y-86550000D02*
X180870000Y-89090000D01*
X304060000Y-134810000D02*
X304060000Y-137350000D01*
X142135000Y-87185000D02*
X106575000Y-87185000D01*
X255165000Y-83375000D02*
X252625000Y-85915000D01*
X106575000Y-87185000D02*
X104670000Y-89090000D01*
X318665000Y-137985000D02*
X317395000Y-139255000D01*
X262150000Y-83375000D02*
X255165000Y-83375000D01*
X329460000Y-129730000D02*
X325015000Y-129730000D01*
X271040000Y-85915000D02*
X264690000Y-85915000D01*
X180870000Y-89090000D02*
X178330000Y-86550000D01*
X317395000Y-139255000D02*
X305965000Y-139255000D01*
X264690000Y-85915000D02*
X262150000Y-83375000D01*
X318665000Y-136080000D02*
X318665000Y-137985000D01*
X252625000Y-85915000D02*
X212620000Y-85915000D01*
X212620000Y-85915000D02*
X211985000Y-86550000D01*
%TO.N,/MD11*%
X298345000Y-133540000D02*
X297075000Y-132270000D01*
X306600000Y-134810000D02*
X306600000Y-137350000D01*
X132610000Y-94170000D02*
X130070000Y-96710000D01*
X213890000Y-94170000D02*
X211350000Y-96710000D01*
X305330000Y-133540000D02*
X302790000Y-133540000D01*
X135150000Y-96710000D02*
X132610000Y-94170000D01*
X293900000Y-130365000D02*
X272310000Y-130365000D01*
X268500000Y-96710000D02*
X216430000Y-96710000D01*
X211350000Y-96710000D02*
X135150000Y-96710000D01*
X58950000Y-96710000D02*
X56410000Y-94170000D01*
X130070000Y-96710000D02*
X58950000Y-96710000D01*
X297075000Y-132270000D02*
X295170000Y-130365000D01*
X295170000Y-130365000D02*
X293900000Y-130365000D01*
X302790000Y-133540000D02*
X298345000Y-133540000D01*
X272310000Y-130365000D02*
X269770000Y-127825000D01*
X306600000Y-134810000D02*
X305330000Y-133540000D01*
X216430000Y-96710000D02*
X213890000Y-94170000D01*
%TO.N,/MD14*%
X309775000Y-130365000D02*
X308505000Y-130365000D01*
X83080000Y-110680000D02*
X79270000Y-114490000D01*
X314220000Y-134810000D02*
X314220000Y-137350000D01*
X303425000Y-129730000D02*
X301520000Y-129730000D01*
X253895000Y-111950000D02*
X239290000Y-111950000D01*
X300885000Y-129095000D02*
X275485000Y-129095000D01*
X304060000Y-129730000D02*
X303425000Y-129730000D01*
X237385000Y-110680000D02*
X194840000Y-110680000D01*
X269135000Y-112585000D02*
X265960000Y-112585000D01*
X301520000Y-129730000D02*
X300885000Y-129095000D01*
X275485000Y-129095000D02*
X272945000Y-126555000D01*
X156740000Y-110680000D02*
X83080000Y-110680000D01*
X314220000Y-134810000D02*
X310410000Y-131000000D01*
X259610000Y-112585000D02*
X256435000Y-112585000D01*
X310410000Y-131000000D02*
X309775000Y-130365000D01*
X256435000Y-112585000D02*
X255800000Y-111950000D01*
X239290000Y-111950000D02*
X238020000Y-110680000D01*
X265960000Y-112585000D02*
X259610000Y-112585000D01*
X304695000Y-130365000D02*
X304060000Y-129730000D01*
X238020000Y-110680000D02*
X237385000Y-110680000D01*
X194840000Y-110680000D02*
X156740000Y-110680000D01*
X271040000Y-114490000D02*
X269135000Y-112585000D01*
X255800000Y-111950000D02*
X253895000Y-111950000D01*
X308505000Y-130365000D02*
X304695000Y-130365000D01*
%TO.N,/MD15*%
X231035000Y-112585000D02*
X253895000Y-112585000D01*
X104670000Y-114490000D02*
X107210000Y-111950000D01*
X269770000Y-116395000D02*
X274850000Y-116395000D01*
X302790000Y-129095000D02*
X301520000Y-127825000D01*
X180870000Y-114490000D02*
X183410000Y-111950000D01*
X311680000Y-129730000D02*
X309140000Y-129730000D01*
X279930000Y-111950000D02*
X281200000Y-113220000D01*
X107210000Y-111950000D02*
X178330000Y-111950000D01*
X276120000Y-115125000D02*
X276120000Y-113220000D01*
X304695000Y-129095000D02*
X302790000Y-129095000D01*
X309140000Y-129730000D02*
X305330000Y-129730000D01*
X267230000Y-113855000D02*
X269770000Y-116395000D01*
X316760000Y-134810000D02*
X311680000Y-129730000D01*
X297710000Y-116395000D02*
X298345000Y-115760000D01*
X281200000Y-113220000D02*
X281200000Y-114490000D01*
X305330000Y-129730000D02*
X304695000Y-129095000D01*
X274850000Y-116395000D02*
X276120000Y-115125000D01*
X283105000Y-116395000D02*
X288185000Y-116395000D01*
X253895000Y-112585000D02*
X255165000Y-113855000D01*
X316760000Y-134810000D02*
X316760000Y-137350000D01*
X277390000Y-111950000D02*
X279930000Y-111950000D01*
X230400000Y-111950000D02*
X231035000Y-112585000D01*
X276120000Y-113220000D02*
X277390000Y-111950000D01*
X183410000Y-111950000D02*
X230400000Y-111950000D01*
X281200000Y-114490000D02*
X283105000Y-116395000D01*
X255165000Y-113855000D02*
X267230000Y-113855000D01*
X288185000Y-116395000D02*
X297710000Y-116395000D01*
X178330000Y-111950000D02*
X180870000Y-114490000D01*
%TO.N,/MD0*%
X132610000Y-124650000D02*
X135150000Y-127190000D01*
X56410000Y-124650000D02*
X58950000Y-127190000D01*
X271040000Y-133540000D02*
X269770000Y-132270000D01*
X221510000Y-127190000D02*
X218970000Y-124650000D01*
X271040000Y-134810000D02*
X271040000Y-133540000D01*
X130070000Y-127190000D02*
X132610000Y-124650000D01*
X264690000Y-132270000D02*
X264055000Y-131635000D01*
X257705000Y-127190000D02*
X221510000Y-127190000D01*
X216430000Y-127190000D02*
X218970000Y-124650000D01*
X135150000Y-127190000D02*
X216430000Y-127190000D01*
X58950000Y-127190000D02*
X130070000Y-127190000D01*
X269770000Y-132270000D02*
X264690000Y-132270000D01*
X260245000Y-129730000D02*
X257705000Y-127190000D01*
X264055000Y-131000000D02*
X262785000Y-129730000D01*
X264055000Y-131635000D02*
X264055000Y-131000000D01*
X271040000Y-134810000D02*
X271040000Y-137350000D01*
X262785000Y-129730000D02*
X260245000Y-129730000D01*
%TO.N,/MD1*%
X264055000Y-137985000D02*
X265325000Y-139255000D01*
X264055000Y-136080000D02*
X264055000Y-137985000D01*
X257070000Y-128460000D02*
X258975000Y-130365000D01*
X194840000Y-128460000D02*
X156740000Y-128460000D01*
X265325000Y-139255000D02*
X271675000Y-139255000D01*
X83080000Y-128460000D02*
X79270000Y-132270000D01*
X156740000Y-128460000D02*
X83080000Y-128460000D01*
X271675000Y-139255000D02*
X273580000Y-137350000D01*
X273580000Y-134810000D02*
X273580000Y-137350000D01*
X262150000Y-130365000D02*
X263420000Y-131635000D01*
X263420000Y-135445000D02*
X264055000Y-136080000D01*
X243100000Y-128460000D02*
X257070000Y-128460000D01*
X258975000Y-130365000D02*
X262150000Y-130365000D01*
X263420000Y-131635000D02*
X263420000Y-135445000D01*
X243100000Y-128460000D02*
X194840000Y-128460000D01*
%TO.N,/MD2*%
X262785000Y-136715000D02*
X258975000Y-132905000D01*
X262785000Y-137985000D02*
X262785000Y-136715000D01*
X321840000Y-134175000D02*
X319935000Y-136080000D01*
X264690000Y-139890000D02*
X262785000Y-137985000D01*
X332000000Y-131000000D02*
X328825000Y-134175000D01*
X257070000Y-129730000D02*
X183410000Y-129730000D01*
X332000000Y-127190000D02*
X332000000Y-131000000D01*
X178330000Y-129730000D02*
X107210000Y-129730000D01*
X258975000Y-132905000D02*
X258975000Y-131635000D01*
X258975000Y-131635000D02*
X257070000Y-129730000D01*
X180870000Y-132270000D02*
X178330000Y-129730000D01*
X328825000Y-134175000D02*
X321840000Y-134175000D01*
X319935000Y-138620000D02*
X318665000Y-139890000D01*
X273580000Y-139890000D02*
X264690000Y-139890000D01*
X300885000Y-141160000D02*
X291995000Y-141160000D01*
X302155000Y-139890000D02*
X300885000Y-141160000D01*
X290725000Y-134175000D02*
X288820000Y-132270000D01*
X318665000Y-139890000D02*
X302155000Y-139890000D01*
X319935000Y-136080000D02*
X319935000Y-138620000D01*
X278660000Y-132270000D02*
X276120000Y-134810000D01*
X276120000Y-134810000D02*
X276120000Y-137350000D01*
X276120000Y-137350000D02*
X273580000Y-139890000D01*
X107210000Y-129730000D02*
X104670000Y-132270000D01*
X183410000Y-129730000D02*
X180870000Y-132270000D01*
X290725000Y-139890000D02*
X290725000Y-134175000D01*
X291995000Y-141160000D02*
X290725000Y-139890000D01*
X288820000Y-132270000D02*
X278660000Y-132270000D01*
%TO.N,/MD3*%
X218970000Y-137350000D02*
X216430000Y-139890000D01*
X277390000Y-140525000D02*
X264055000Y-140525000D01*
X58950000Y-139890000D02*
X56410000Y-137350000D01*
X278660000Y-137350000D02*
X278660000Y-139255000D01*
X130070000Y-139890000D02*
X58950000Y-139890000D01*
X216430000Y-139890000D02*
X135150000Y-139890000D01*
X135150000Y-139890000D02*
X132610000Y-137350000D01*
X221510000Y-139890000D02*
X218970000Y-137350000D01*
X254530000Y-139890000D02*
X221510000Y-139890000D01*
X255165000Y-139255000D02*
X254530000Y-139890000D01*
X264055000Y-140525000D02*
X262785000Y-139255000D01*
X262785000Y-139255000D02*
X255165000Y-139255000D01*
X278660000Y-134810000D02*
X278660000Y-137350000D01*
X278660000Y-139255000D02*
X277390000Y-140525000D01*
X132610000Y-137350000D02*
X130070000Y-139890000D01*
%TO.N,/MD4*%
X262150000Y-139890000D02*
X259610000Y-139890000D01*
X255165000Y-140525000D02*
X254530000Y-141160000D01*
X255800000Y-139890000D02*
X255165000Y-140525000D01*
X259610000Y-139890000D02*
X255800000Y-139890000D01*
X278025000Y-141160000D02*
X263420000Y-141160000D01*
X280565000Y-139890000D02*
X279295000Y-141160000D01*
X279295000Y-141160000D02*
X278025000Y-141160000D01*
X281200000Y-139255000D02*
X280565000Y-139890000D01*
X95145000Y-141160000D02*
X156740000Y-141160000D01*
X262785000Y-140525000D02*
X262150000Y-139890000D01*
X83080000Y-141160000D02*
X95145000Y-141160000D01*
X79270000Y-144970000D02*
X83080000Y-141160000D01*
X254530000Y-141160000D02*
X243100000Y-141160000D01*
X263420000Y-141160000D02*
X262785000Y-140525000D01*
X156740000Y-141160000D02*
X243100000Y-141160000D01*
X281200000Y-137350000D02*
X281200000Y-139255000D01*
X281200000Y-134810000D02*
X281200000Y-137350000D01*
%TO.N,/MD5*%
X294535000Y-143065000D02*
X303425000Y-143065000D01*
X107210000Y-142430000D02*
X104670000Y-144970000D01*
X282470000Y-138620000D02*
X282470000Y-140525000D01*
X180870000Y-144970000D02*
X178330000Y-142430000D01*
X283740000Y-137350000D02*
X285645000Y-139255000D01*
X183410000Y-142430000D02*
X180870000Y-144970000D01*
X254530000Y-142430000D02*
X183410000Y-142430000D01*
X178330000Y-142430000D02*
X107210000Y-142430000D01*
X261515000Y-140525000D02*
X256435000Y-140525000D01*
X291360000Y-141795000D02*
X292630000Y-143065000D01*
X256435000Y-140525000D02*
X254530000Y-142430000D01*
X292630000Y-143065000D02*
X294535000Y-143065000D01*
X262785000Y-141795000D02*
X261515000Y-140525000D01*
X282470000Y-140525000D02*
X281200000Y-141795000D01*
X288820000Y-139255000D02*
X291360000Y-141795000D01*
X286915000Y-139255000D02*
X288820000Y-139255000D01*
X303425000Y-143065000D02*
X304060000Y-142430000D01*
X283740000Y-137350000D02*
X282470000Y-138620000D01*
X285645000Y-139255000D02*
X286915000Y-139255000D01*
X281200000Y-141795000D02*
X262785000Y-141795000D01*
X283740000Y-134810000D02*
X283740000Y-137350000D01*
%TO.N,/MD6*%
X255800000Y-153860000D02*
X243100000Y-153860000D01*
X194840000Y-153860000D02*
X177060000Y-153860000D01*
X286280000Y-134810000D02*
X286280000Y-137350000D01*
X203730000Y-153860000D02*
X203095000Y-153225000D01*
X156740000Y-153860000D02*
X156105000Y-153225000D01*
X199920000Y-153225000D02*
X199285000Y-153860000D01*
X176425000Y-153225000D02*
X173250000Y-153225000D01*
X231670000Y-153860000D02*
X203730000Y-153860000D01*
X285010000Y-142430000D02*
X276120000Y-142430000D01*
X257070000Y-153860000D02*
X255800000Y-153860000D01*
X286280000Y-141160000D02*
X285010000Y-142430000D01*
X232940000Y-153860000D02*
X231670000Y-153860000D01*
X260880000Y-141160000D02*
X259610000Y-141160000D01*
X83715000Y-153225000D02*
X79270000Y-157670000D01*
X259610000Y-141160000D02*
X258340000Y-141160000D01*
X199285000Y-153860000D02*
X194840000Y-153860000D01*
X243100000Y-153860000D02*
X238020000Y-153860000D01*
X156105000Y-153225000D02*
X83715000Y-153225000D01*
X262150000Y-142430000D02*
X261515000Y-141795000D01*
X276120000Y-142430000D02*
X262150000Y-142430000D01*
X233575000Y-153225000D02*
X232940000Y-153860000D01*
X258340000Y-141160000D02*
X257070000Y-142430000D01*
X238020000Y-153860000D02*
X237385000Y-153225000D01*
X203095000Y-153225000D02*
X199920000Y-153225000D01*
X177060000Y-153860000D02*
X176425000Y-153225000D01*
X173250000Y-153225000D02*
X172615000Y-153860000D01*
X172615000Y-153860000D02*
X171980000Y-153860000D01*
X236750000Y-153225000D02*
X233575000Y-153225000D01*
X237385000Y-153225000D02*
X236750000Y-153225000D01*
X171980000Y-153860000D02*
X156740000Y-153860000D01*
X261515000Y-141795000D02*
X260880000Y-141160000D01*
%TO.N,/MD7*%
X150390000Y-157035000D02*
X152295000Y-155130000D01*
X121180000Y-155765000D02*
X122450000Y-157035000D01*
X122450000Y-157035000D02*
X124355000Y-157035000D01*
X177695000Y-155130000D02*
X178330000Y-155130000D01*
X288820000Y-134810000D02*
X288820000Y-137350000D01*
X198650000Y-155130000D02*
X200555000Y-157035000D01*
X178330000Y-155130000D02*
X180870000Y-157670000D01*
X232305000Y-155130000D02*
X234210000Y-157035000D01*
X276120000Y-143065000D02*
X260880000Y-143065000D01*
X236750000Y-157035000D02*
X238655000Y-155130000D01*
X146580000Y-155130000D02*
X148485000Y-157035000D01*
X148485000Y-157035000D02*
X150390000Y-157035000D01*
X202460000Y-157035000D02*
X204365000Y-155130000D01*
X104670000Y-157670000D02*
X106575000Y-155765000D01*
X260880000Y-143065000D02*
X260245000Y-142430000D01*
X106575000Y-155765000D02*
X121180000Y-155765000D01*
X152295000Y-155130000D02*
X171345000Y-155130000D01*
X175790000Y-157035000D02*
X177695000Y-155130000D01*
X180870000Y-157670000D02*
X183410000Y-155130000D01*
X200555000Y-157035000D02*
X202460000Y-157035000D01*
X288820000Y-142430000D02*
X288185000Y-143065000D01*
X126260000Y-155130000D02*
X146580000Y-155130000D01*
X183410000Y-155130000D02*
X198650000Y-155130000D01*
X171345000Y-155130000D02*
X173250000Y-157035000D01*
X257070000Y-155130000D02*
X259610000Y-157670000D01*
X173250000Y-157035000D02*
X175790000Y-157035000D01*
X288185000Y-143065000D02*
X276120000Y-143065000D01*
X204365000Y-155130000D02*
X232305000Y-155130000D01*
X124355000Y-157035000D02*
X126260000Y-155130000D01*
X238655000Y-155130000D02*
X257070000Y-155130000D01*
X234210000Y-157035000D02*
X236750000Y-157035000D01*
%TO.N,/MD8*%
X291360000Y-132270000D02*
X290090000Y-131000000D01*
X124990000Y-82105000D02*
X122450000Y-82105000D01*
X202460000Y-81470000D02*
X200555000Y-81470000D01*
X173250000Y-82105000D02*
X171345000Y-84010000D01*
X292630000Y-139255000D02*
X291995000Y-138620000D01*
X95145000Y-84010000D02*
X76095000Y-84010000D01*
X270405000Y-131000000D02*
X269135000Y-129730000D01*
X152930000Y-84010000D02*
X151025000Y-82105000D01*
X254530000Y-81470000D02*
X252625000Y-83375000D01*
X267230000Y-81470000D02*
X254530000Y-81470000D01*
X281200000Y-131000000D02*
X272310000Y-131000000D01*
X296440000Y-139255000D02*
X292630000Y-139255000D01*
X216430000Y-84010000D02*
X213890000Y-81470000D01*
X76095000Y-84010000D02*
X74825000Y-82740000D01*
X233575000Y-83375000D02*
X231670000Y-81470000D01*
X99590000Y-82105000D02*
X97050000Y-82105000D01*
X132610000Y-81470000D02*
X130070000Y-84010000D01*
X147215000Y-82105000D02*
X145310000Y-84010000D01*
X58950000Y-84010000D02*
X56410000Y-81470000D01*
X290090000Y-131000000D02*
X281200000Y-131000000D01*
X291995000Y-138620000D02*
X291995000Y-132905000D01*
X69745000Y-84010000D02*
X58950000Y-84010000D01*
X298980000Y-134810000D02*
X298980000Y-137350000D01*
X97050000Y-82105000D02*
X95145000Y-84010000D01*
X171345000Y-84010000D02*
X152930000Y-84010000D01*
X205000000Y-84010000D02*
X202460000Y-81470000D01*
X120545000Y-84010000D02*
X101495000Y-84010000D01*
X291995000Y-132905000D02*
X291360000Y-132270000D01*
X151025000Y-82105000D02*
X147215000Y-82105000D01*
X297075000Y-139255000D02*
X296440000Y-139255000D01*
X213890000Y-81470000D02*
X211350000Y-84010000D01*
X135150000Y-84010000D02*
X132610000Y-81470000D01*
X229130000Y-81470000D02*
X226590000Y-84010000D01*
X200555000Y-81470000D02*
X198015000Y-84010000D01*
X145310000Y-84010000D02*
X135150000Y-84010000D01*
X74825000Y-82740000D02*
X71015000Y-82740000D01*
X178330000Y-84010000D02*
X176425000Y-82105000D01*
X272310000Y-131000000D02*
X270405000Y-131000000D01*
X211350000Y-84010000D02*
X205000000Y-84010000D01*
X231670000Y-81470000D02*
X229130000Y-81470000D01*
X71015000Y-82740000D02*
X69745000Y-84010000D01*
X252625000Y-83375000D02*
X233575000Y-83375000D01*
X130070000Y-84010000D02*
X126895000Y-84010000D01*
X126895000Y-84010000D02*
X124990000Y-82105000D01*
X122450000Y-82105000D02*
X120545000Y-84010000D01*
X226590000Y-84010000D02*
X216430000Y-84010000D01*
X176425000Y-82105000D02*
X173250000Y-82105000D01*
X198015000Y-84010000D02*
X178330000Y-84010000D01*
X101495000Y-84010000D02*
X99590000Y-82105000D01*
X298980000Y-137350000D02*
X297075000Y-139255000D01*
%TO.N,/MD9*%
X254530000Y-82740000D02*
X253895000Y-83375000D01*
X175790000Y-85915000D02*
X173250000Y-85915000D01*
X253895000Y-83375000D02*
X253260000Y-84010000D01*
X231035000Y-82105000D02*
X230400000Y-82105000D01*
X229765000Y-82105000D02*
X229130000Y-82740000D01*
X251355000Y-84010000D02*
X239290000Y-84010000D01*
X171980000Y-85280000D02*
X156740000Y-85280000D01*
X298345000Y-140525000D02*
X301520000Y-137350000D01*
X203730000Y-85280000D02*
X203095000Y-85915000D01*
X291360000Y-133540000D02*
X291360000Y-139255000D01*
X255165000Y-82740000D02*
X254530000Y-82740000D01*
X81175000Y-87185000D02*
X79270000Y-89090000D01*
X265325000Y-83375000D02*
X264690000Y-82740000D01*
X200555000Y-85915000D02*
X199920000Y-85280000D01*
X176425000Y-85280000D02*
X175790000Y-85915000D01*
X142135000Y-85915000D02*
X141500000Y-86550000D01*
X229130000Y-82740000D02*
X226590000Y-85280000D01*
X203095000Y-85915000D02*
X202460000Y-85915000D01*
X172615000Y-85280000D02*
X171980000Y-85280000D01*
X225955000Y-85280000D02*
X203730000Y-85280000D01*
X105940000Y-86550000D02*
X105305000Y-87185000D01*
X230400000Y-82105000D02*
X229765000Y-82105000D01*
X238655000Y-84645000D02*
X233575000Y-84645000D01*
X173250000Y-85915000D02*
X172615000Y-85280000D01*
X156105000Y-85915000D02*
X142135000Y-85915000D01*
X232305000Y-83375000D02*
X231035000Y-82105000D01*
X265960000Y-131635000D02*
X289455000Y-131635000D01*
X292630000Y-140525000D02*
X298345000Y-140525000D01*
X264690000Y-82740000D02*
X263420000Y-82740000D01*
X201190000Y-85915000D02*
X200555000Y-85915000D01*
X105305000Y-87185000D02*
X81175000Y-87185000D01*
X226590000Y-85280000D02*
X225955000Y-85280000D01*
X233575000Y-84645000D02*
X232305000Y-83375000D01*
X253260000Y-84010000D02*
X251355000Y-84010000D01*
X289455000Y-131635000D02*
X291360000Y-133540000D01*
X202460000Y-85915000D02*
X201190000Y-85915000D01*
X265325000Y-131000000D02*
X265960000Y-131635000D01*
X239290000Y-84010000D02*
X238655000Y-84645000D01*
X195475000Y-85280000D02*
X176425000Y-85280000D01*
X156740000Y-85280000D02*
X156105000Y-85915000D01*
X263420000Y-82740000D02*
X255165000Y-82740000D01*
X291360000Y-139255000D02*
X292630000Y-140525000D01*
X141500000Y-86550000D02*
X105940000Y-86550000D01*
X301520000Y-134810000D02*
X301520000Y-137350000D01*
X199920000Y-85280000D02*
X195475000Y-85280000D01*
%TO.N,/MD12*%
X156740000Y-97980000D02*
X237385000Y-97980000D01*
X79270000Y-101790000D02*
X83080000Y-97980000D01*
X309140000Y-134810000D02*
X309140000Y-137350000D01*
X274215000Y-129730000D02*
X271040000Y-126555000D01*
X298980000Y-132905000D02*
X295805000Y-129730000D01*
X83080000Y-97980000D02*
X87525000Y-97980000D01*
X237385000Y-97980000D02*
X238020000Y-97980000D01*
X295805000Y-129730000D02*
X274215000Y-129730000D01*
X271040000Y-97980000D02*
X269770000Y-97980000D01*
X307235000Y-132905000D02*
X298980000Y-132905000D01*
X309140000Y-134810000D02*
X307235000Y-132905000D01*
X269770000Y-97980000D02*
X238020000Y-97980000D01*
X87525000Y-97980000D02*
X156740000Y-97980000D01*
%TO.N,/MD13*%
X178330000Y-99250000D02*
X107210000Y-99250000D01*
X270405000Y-104330000D02*
X265325000Y-99250000D01*
X309775000Y-131635000D02*
X311680000Y-133540000D01*
X311680000Y-133540000D02*
X311680000Y-134810000D01*
X309140000Y-106870000D02*
X306600000Y-104330000D01*
X306600000Y-104330000D02*
X270405000Y-104330000D01*
X183410000Y-99250000D02*
X180870000Y-101790000D01*
X304060000Y-131635000D02*
X309775000Y-131635000D01*
X303425000Y-131000000D02*
X304060000Y-131635000D01*
X107210000Y-99250000D02*
X104670000Y-101790000D01*
X180870000Y-101790000D02*
X178330000Y-99250000D01*
X311680000Y-134810000D02*
X311680000Y-137350000D01*
X265325000Y-99250000D02*
X183410000Y-99250000D01*
%TO.N,/A2*%
X318030000Y-150050000D02*
X318030000Y-148145000D01*
X337080000Y-147510000D02*
X333905000Y-150685000D01*
X333905000Y-150685000D02*
X332635000Y-150685000D01*
X332635000Y-150685000D02*
X318665000Y-150685000D01*
X318665000Y-150685000D02*
X318030000Y-150050000D01*
%TO.N,/A0*%
X330730000Y-148780000D02*
X327555000Y-148780000D01*
X326920000Y-148145000D02*
X320570000Y-148145000D01*
X332000000Y-147510000D02*
X330730000Y-148780000D01*
X327555000Y-148780000D02*
X326920000Y-148145000D01*
%TO.N,/A1*%
X337080000Y-152590000D02*
X335810000Y-152590000D01*
X342160000Y-147510000D02*
X338985000Y-150685000D01*
X316125000Y-152590000D02*
X315490000Y-151955000D01*
X335810000Y-152590000D02*
X316125000Y-152590000D01*
X338985000Y-150685000D02*
X337080000Y-152590000D01*
%TO.N,/A3*%
X326920000Y-142430000D02*
X329460000Y-144970000D01*
X319300000Y-142430000D02*
X326920000Y-142430000D01*
%TO.N,/A5*%
X335810000Y-151955000D02*
X317395000Y-151955000D01*
X339620000Y-144970000D02*
X339620000Y-148145000D01*
X317395000Y-151955000D02*
X316760000Y-151320000D01*
X339620000Y-148145000D02*
X335810000Y-151955000D01*
X316760000Y-151320000D02*
X316760000Y-150050000D01*
%TO.N,/A4*%
X332635000Y-149415000D02*
X319300000Y-149415000D01*
X334540000Y-147510000D02*
X332635000Y-149415000D01*
X334540000Y-144970000D02*
X334540000Y-147510000D01*
%TO.N,/A7*%
X338350000Y-153860000D02*
X342160000Y-150050000D01*
X314220000Y-153225000D02*
X314855000Y-153860000D01*
X317395000Y-153860000D02*
X338350000Y-153860000D01*
X314855000Y-153860000D02*
X317395000Y-153860000D01*
%TO.N,/+RAS*%
X352320000Y-144970000D02*
X354225000Y-143065000D01*
X355495000Y-143065000D02*
X357400000Y-144970000D01*
X354225000Y-143065000D02*
X355495000Y-143065000D01*
%TO.N,/~{RAS2}*%
X298345000Y-123380000D02*
X297710000Y-124015000D01*
X259610000Y-162750000D02*
X248180000Y-162750000D01*
X248180000Y-162750000D02*
X246910000Y-161480000D01*
X337080000Y-127190000D02*
X334540000Y-124650000D01*
X246275000Y-160845000D02*
X239290000Y-160845000D01*
X264055000Y-160845000D02*
X262150000Y-162750000D01*
X255165000Y-118300000D02*
X245640000Y-118300000D01*
X253895000Y-87820000D02*
X253260000Y-87185000D01*
X286915000Y-124650000D02*
X286280000Y-124015000D01*
X334540000Y-124650000D02*
X312315000Y-124650000D01*
X279295000Y-85280000D02*
X271040000Y-93535000D01*
X311680000Y-124015000D02*
X311045000Y-123380000D01*
X262150000Y-162750000D02*
X259610000Y-162750000D01*
X264055000Y-157035000D02*
X264055000Y-160845000D01*
X297710000Y-124015000D02*
X297075000Y-124650000D01*
X311045000Y-123380000D02*
X307870000Y-123380000D01*
X271040000Y-93535000D02*
X255165000Y-93535000D01*
X267230000Y-153860000D02*
X264055000Y-157035000D01*
X283740000Y-156400000D02*
X281200000Y-153860000D01*
X271040000Y-123380000D02*
X264055000Y-116395000D01*
X222780000Y-162750000D02*
X221510000Y-161480000D01*
X246910000Y-161480000D02*
X246275000Y-160845000D01*
X257070000Y-116395000D02*
X255165000Y-118300000D01*
X218335000Y-87185000D02*
X216430000Y-89090000D01*
X245640000Y-118300000D02*
X241830000Y-114490000D01*
X307870000Y-123380000D02*
X298345000Y-123380000D01*
X281200000Y-153860000D02*
X267230000Y-153860000D01*
X239290000Y-160845000D02*
X237385000Y-162750000D01*
X253260000Y-87185000D02*
X218335000Y-87185000D01*
X285645000Y-123380000D02*
X271040000Y-123380000D01*
X264055000Y-116395000D02*
X257070000Y-116395000D01*
X279295000Y-78930000D02*
X279295000Y-85280000D01*
X297075000Y-124650000D02*
X295170000Y-124650000D01*
X255165000Y-93535000D02*
X253895000Y-92265000D01*
X237385000Y-162750000D02*
X222780000Y-162750000D01*
X253895000Y-92265000D02*
X253895000Y-87820000D01*
X312315000Y-124650000D02*
X311680000Y-124015000D01*
X286280000Y-124015000D02*
X285645000Y-123380000D01*
X283740000Y-158940000D02*
X283740000Y-156400000D01*
X295170000Y-124650000D02*
X286915000Y-124650000D01*
%TO.N,/~{RAS3}*%
X258975000Y-162115000D02*
X256435000Y-159575000D01*
X76730000Y-85915000D02*
X133245000Y-85915000D01*
X194840000Y-162115000D02*
X186585000Y-162115000D01*
X215160000Y-160210000D02*
X213255000Y-162115000D01*
X261515000Y-162115000D02*
X258975000Y-162115000D01*
X161185000Y-162115000D02*
X160550000Y-161480000D01*
X236750000Y-162115000D02*
X234210000Y-162115000D01*
X46250000Y-84010000D02*
X57680000Y-84010000D01*
X286280000Y-158940000D02*
X286280000Y-156400000D01*
X286280000Y-156400000D02*
X283105000Y-153225000D01*
X157375000Y-162115000D02*
X135785000Y-162115000D01*
X135785000Y-162115000D02*
X135150000Y-161480000D01*
X74825000Y-87185000D02*
X76095000Y-85915000D01*
X263420000Y-156400000D02*
X263420000Y-160210000D01*
X234210000Y-162115000D02*
X232305000Y-160210000D01*
X134515000Y-85915000D02*
X135150000Y-85280000D01*
X172615000Y-162115000D02*
X161185000Y-162115000D01*
X239290000Y-159575000D02*
X236750000Y-162115000D01*
X232305000Y-160210000D02*
X215160000Y-160210000D01*
X283105000Y-153225000D02*
X266595000Y-153225000D01*
X45615000Y-84010000D02*
X46250000Y-84010000D01*
X256435000Y-159575000D02*
X239290000Y-159575000D01*
X159915000Y-162115000D02*
X157375000Y-162115000D01*
X44345000Y-85280000D02*
X45615000Y-84010000D01*
X160550000Y-161480000D02*
X159915000Y-162115000D01*
X185950000Y-161480000D02*
X185315000Y-162115000D01*
X266595000Y-153225000D02*
X263420000Y-156400000D01*
X185315000Y-162115000D02*
X172615000Y-162115000D01*
X57680000Y-84010000D02*
X60855000Y-87185000D01*
X186585000Y-162115000D02*
X185950000Y-161480000D01*
X133245000Y-85915000D02*
X134515000Y-85915000D01*
X213255000Y-162115000D02*
X194840000Y-162115000D01*
X44345000Y-89725000D02*
X44345000Y-85280000D01*
X60855000Y-87185000D02*
X74825000Y-87185000D01*
X263420000Y-160210000D02*
X261515000Y-162115000D01*
X76095000Y-85915000D02*
X76730000Y-85915000D01*
%TO.N,/~{RAS4}*%
X132610000Y-162750000D02*
X109750000Y-162750000D01*
X262785000Y-163385000D02*
X243100000Y-163385000D01*
X109115000Y-162750000D02*
X84350000Y-162750000D01*
X274215000Y-156400000D02*
X272310000Y-154495000D01*
X241195000Y-161480000D02*
X239925000Y-161480000D01*
X48155000Y-97345000D02*
X48790000Y-96710000D01*
X213890000Y-162750000D02*
X213255000Y-163385000D01*
X39900000Y-97345000D02*
X48155000Y-97345000D01*
X133245000Y-163385000D02*
X132610000Y-162750000D01*
X301520000Y-160845000D02*
X299615000Y-162750000D01*
X37995000Y-99250000D02*
X39900000Y-97345000D01*
X274850000Y-162750000D02*
X274215000Y-162115000D01*
X267865000Y-154495000D02*
X264690000Y-157670000D01*
X238020000Y-163385000D02*
X218970000Y-163385000D01*
X272310000Y-154495000D02*
X267865000Y-154495000D01*
X264690000Y-157670000D02*
X264690000Y-161480000D01*
X194840000Y-163385000D02*
X133245000Y-163385000D01*
X274215000Y-162115000D02*
X274215000Y-156400000D01*
X243100000Y-163385000D02*
X241195000Y-161480000D01*
X218335000Y-162750000D02*
X213890000Y-162750000D01*
X109750000Y-162750000D02*
X109115000Y-162750000D01*
X58315000Y-86550000D02*
X58950000Y-87185000D01*
X58950000Y-87185000D02*
X58950000Y-89090000D01*
X50060000Y-86550000D02*
X58315000Y-86550000D01*
X218970000Y-163385000D02*
X218335000Y-162750000D01*
X213255000Y-163385000D02*
X194840000Y-163385000D01*
X84350000Y-162750000D02*
X58950000Y-162750000D01*
X264690000Y-161480000D02*
X262785000Y-163385000D01*
X48790000Y-96710000D02*
X48790000Y-87820000D01*
X299615000Y-162750000D02*
X274850000Y-162750000D01*
X48790000Y-87820000D02*
X50060000Y-86550000D01*
X239925000Y-161480000D02*
X238020000Y-163385000D01*
%TO.N,Net-(U57-OEa)*%
X354860000Y-137350000D02*
X354860000Y-134810000D01*
X326920000Y-134810000D02*
X324380000Y-137350000D01*
X354860000Y-134810000D02*
X326920000Y-134810000D01*
X354860000Y-134810000D02*
X357400000Y-132270000D01*
%TO.N,Net-(C72-Pad1)*%
X46885000Y-79565000D02*
X46885000Y-81510000D01*
X44345000Y-77025000D02*
X46885000Y-79565000D01*
%TO.N,Net-(C70-Pad1)*%
X40535000Y-103100000D02*
X43075000Y-105640000D01*
X43075000Y-105640000D02*
X43075000Y-111950000D01*
%TO.N,Net-(C74-Pad1)*%
X279295000Y-91630000D02*
X279295000Y-94210000D01*
%TO.N,Net-(C73-Pad1)*%
X276755000Y-91630000D02*
X276755000Y-94210000D01*
%TO.N,/~{WE34}*%
X48155000Y-99250000D02*
X43075000Y-99250000D01*
X83715000Y-146875000D02*
X105305000Y-146875000D01*
X107210000Y-144970000D02*
X109115000Y-146875000D01*
X56410000Y-144970000D02*
X58315000Y-146875000D01*
X134515000Y-146875000D02*
X156105000Y-146875000D01*
X79905000Y-146875000D02*
X81810000Y-144970000D01*
X181505000Y-146875000D02*
X183410000Y-144970000D01*
X58315000Y-146875000D02*
X79905000Y-146875000D01*
X156105000Y-146875000D02*
X158010000Y-144970000D01*
X49425000Y-97980000D02*
X48155000Y-99250000D01*
X132610000Y-144970000D02*
X134515000Y-146875000D01*
X49425000Y-92900000D02*
X49425000Y-97980000D01*
X56410000Y-89090000D02*
X56410000Y-90995000D01*
X159915000Y-146875000D02*
X181505000Y-146875000D01*
X130705000Y-146875000D02*
X132610000Y-144970000D01*
X105305000Y-146875000D02*
X107210000Y-144970000D01*
X109115000Y-146875000D02*
X130705000Y-146875000D01*
X55775000Y-91630000D02*
X50695000Y-91630000D01*
X158010000Y-144970000D02*
X159915000Y-146875000D01*
X81810000Y-144970000D02*
X83715000Y-146875000D01*
X50695000Y-91630000D02*
X49425000Y-92900000D01*
X56410000Y-90995000D02*
X55775000Y-91630000D01*
%TO.N,/~{WE2}*%
X253895000Y-86550000D02*
X216430000Y-86550000D01*
X255800000Y-92900000D02*
X254530000Y-91630000D01*
X255800000Y-118935000D02*
X243735000Y-118935000D01*
X289455000Y-151320000D02*
X271675000Y-151320000D01*
X271675000Y-151320000D02*
X269135000Y-148780000D01*
X276755000Y-86550000D02*
X270405000Y-92900000D01*
X254530000Y-87185000D02*
X253895000Y-86550000D01*
X305965000Y-124015000D02*
X298980000Y-124015000D01*
X263420000Y-117030000D02*
X257705000Y-117030000D01*
X304060000Y-149415000D02*
X291360000Y-149415000D01*
X270405000Y-124015000D02*
X263420000Y-117030000D01*
X270405000Y-92900000D02*
X255800000Y-92900000D01*
X269135000Y-148780000D02*
X264690000Y-148780000D01*
X264690000Y-148780000D02*
X262785000Y-146875000D01*
X262785000Y-146875000D02*
X246275000Y-146875000D01*
X285645000Y-125285000D02*
X283740000Y-127190000D01*
X283740000Y-127190000D02*
X280565000Y-124015000D01*
X297710000Y-125285000D02*
X285645000Y-125285000D01*
X309140000Y-127190000D02*
X305965000Y-124015000D01*
X324380000Y-158305000D02*
X322475000Y-156400000D01*
X322475000Y-156400000D02*
X311045000Y-156400000D01*
X218970000Y-144970000D02*
X220875000Y-146875000D01*
X311045000Y-156400000D02*
X304060000Y-149415000D01*
X242465000Y-146875000D02*
X244370000Y-144970000D01*
X298980000Y-124015000D02*
X297710000Y-125285000D01*
X257705000Y-117030000D02*
X255800000Y-118935000D01*
X276755000Y-78930000D02*
X276755000Y-86550000D01*
X311045000Y-125285000D02*
X332635000Y-125285000D01*
X246275000Y-146875000D02*
X244370000Y-144970000D01*
X220875000Y-146875000D02*
X242465000Y-146875000D01*
X291360000Y-149415000D02*
X289455000Y-151320000D01*
X309140000Y-127190000D02*
X311045000Y-125285000D01*
X243735000Y-118935000D02*
X239290000Y-114490000D01*
X254530000Y-91630000D02*
X254530000Y-87185000D01*
X332635000Y-125285000D02*
X334540000Y-127190000D01*
X216430000Y-86550000D02*
X213890000Y-89090000D01*
X280565000Y-124015000D02*
X270405000Y-124015000D01*
%TD*%
M02*
